<?xml version="1.0" encoding="utf-8"?>
<!-- Generator: Adobe Illustrator 27.5.0, SVG Export Plug-In . SVG Version: 6.00 Build 0)  -->
<svg version="1.1" id="Layer_1" xmlns="http://www.w3.org/2000/svg" xmlns:xlink="http://www.w3.org/1999/xlink" x="0px" y="0px"
	 viewBox="0 0 2372 1898" style="enable-background:new 0 0 2372 1898;" xml:space="preserve">
<g>
	<rect style="fill:#FFFFFF;" width="2371.708" height="1897.367"/>
	<g>
		<g>
			
				<radialGradient id="SVGID_1_" cx="1004.8336" cy="-1906.194" r="410.728" gradientTransform="matrix(-0.9156 0 0 -1.4622 1337.9288 -1900.382)" gradientUnits="userSpaceOnUse">
				<stop  offset="0.1931" style="stop-color:#000000"/>
				<stop  offset="0.2567" style="stop-color:#313131"/>
				<stop  offset="0.3281" style="stop-color:#616161"/>
				<stop  offset="0.4038" style="stop-color:#8B8B8B"/>
				<stop  offset="0.4824" style="stop-color:#AFAFAF"/>
				<stop  offset="0.5646" style="stop-color:#CCCCCC"/>
				<stop  offset="0.6519" style="stop-color:#E3E3E3"/>
				<stop  offset="0.7464" style="stop-color:#F3F3F3"/>
				<stop  offset="0.8534" style="stop-color:#FCFCFC"/>
				<stop  offset="1" style="stop-color:#FFFFFF"/>
			</radialGradient>
			<ellipse style="fill:url(#SVGID_1_);" cx="417.903" cy="886.855" rx="376.051" ry="600.586"/>
			<path style="fill:#FFFFFF;" d="M2371.708,648.148c-6.448-0.09-12.929-0.42-19.501-0.959
				c-33.663-13.476-59.647,26.223-90.698-18.572c-23.074-16.649-47.726-43.497-74.09-28.599
				c-17.724-3.761-32.927,0.851-50.587-4.484c-30.268-17.566-52.441-38.776-83.545-13.736c-28.428,0.481-52.711,31.573-80.29-8.302
				c-44.031-4.244-86.732-49.316-133.514-13.372c-32.391-2.071-65.223,66.065-97.971-3.924
				c-42.405-3.777-78.466-3.764-118.023,33.532c-17.42-17.147-34.194-17.786-51.608,5.396
				c-20.506-32.859-29.308,14.06-48.324,19.854c-7.193,22.011-20.259-19.443-27.796,2.275
				c-16.589-15.426-31.426,37.947-48.057,10.76c-24.398-1.858-52.678,5.641-77.727-0.816c-39.099,20.573-78.484-43.894-118.138-3.19
				c-43.375,4.27-82.542-9.879-126.751,4.268c-12.993,29.101-30.424,15.869-41.465,1.957c-12.942,3.905-6.881,23.113-23.398,20.136
				c-19.555,2.581-55.255,7.56-75.041-2.282c-23.27,0.36-46.634-9.329-70.094-1.717c-23.255-33.531-38.833-23.241-77.218-2.189
				c-14.201-12.707-45.267,5.307-47.157,7.528c-18.701-4.428-47.438-25.386-49.502-2.83c-2.223,12.436-32.556-48.27-52.516-37.252
				c-25.605-33.28-35.315,4.32-52.512-10.252c-0.113-3.971-6.826-33.582-24.939-4.499c8.48-49.711-7.759,22.646-9.897-10.103
				c-46.93-67.994-60.68-100.786-113.771-66.776c-0.944-0.709-1.791-1.157-2.691-1.75v833.769
				c35.661-3.578,85.694-45.476,102.897-13.031c64.506-11.399,72.98-31.427,130.343-28.182
				c44.481,14.073,106.28-1.562,128.427-22.154c26.337-55.59,31.94-60.691,38.625,9.003c8.637,7.22-23.193,40.126,18.3,27.182
				c45.845,21.737,34.45-19.412,98.894,19.059c39.499-1.66,80.296,10.708,107.245-8.023c23.133-13.997,46.177-57.594,69.124-2.434
				c22.963,4.427,45.834-7.274,68.612-2.469c39.757,2.24,87.478,19.083,125.944-5.4c21.305-90.064,25.791-35.271,42.712-27.438
				c9.975,6.991,21.641,9.737,32.8-11.695c53.045-8.901,104.771-28.861,159.015-27.706c25.946-5.775,34.975,6.089,56.76,15.373
				c36.308,17.023,79.3-23.84,120.516,23.936c9.346,33.209,21.319-31.355,30.966-2.81c36.848,9.901,71.151,20.563,107.609,19.228
				c22.18,18.123,41.232-15.004,64.146,3.945c22.95-14.035,49.809-2.821,71.741-17.557c27.209,3.573,38.985,3.604,68.631-29.596
				c16.784-20.622,33.535-31.055,50.215-1.5c13.336,4.629,38.163-19.401,50.085-0.986c7.217,18.145,11.23,42.277,17.109,18.199
				c9.23,27.788,33.689,24.685,46.174,21.454c18.712-23.514,41.058,11.722,58.624-6.317c7.161,1.609,14.219-2.368,21.307-6.191
				V648.148z"/>
			<path style="fill:#303030;" d="M2371.708,667.342c-6.448-0.084-12.929-0.391-19.501-0.894
				c-33.663-12.555-59.647,24.433-90.698-17.304c-23.074-15.512-47.726-40.527-74.09-26.645
				c-17.724-3.505-32.927,0.793-50.587-4.178c-30.268-16.366-52.441-36.128-83.545-12.799c-28.428,0.449-52.711,29.417-80.29-7.734
				c-44.031-3.954-86.732-45.949-133.514-12.459c-32.391-1.929-65.223,61.554-97.971-3.656
				c-42.405-3.519-78.466-3.507-118.023,31.243c-17.42-15.976-34.194-16.572-51.608,5.027c-20.506-30.616-29.308,13.1-48.324,18.498
				c-7.193,20.508-20.259-18.116-27.796,2.12c-16.589-14.373-31.426,35.356-48.057,10.025c-24.398-1.731-52.678,5.256-77.727-0.76
				c-39.099,19.168-78.484-40.898-118.138-2.973c-43.375,3.979-82.542-9.204-126.751,3.977
				c-12.993,27.114-30.424,14.786-41.465,1.824c-12.942,3.639-6.881,21.535-23.398,18.761c-19.555,2.405-55.255,7.044-75.041-2.127
				c-23.27,0.336-46.634-8.691-70.094-1.6c-23.255-31.241-38.833-21.654-77.218-2.04c-14.201-11.839-45.267,4.945-47.157,7.014
				c-18.701-4.126-47.438-23.653-49.502-2.638c-2.223,11.588-32.556-44.973-52.516-34.708c-25.605-31.007-35.315,4.025-52.512-9.552
				c-0.113-3.699-6.826-31.289-24.939-4.192c8.48-46.316-7.759,21.1-9.897-9.412c-46.93-63.352-60.68-93.904-113.771-62.216
				c-0.944-0.661-1.791-1.079-2.691-1.631v776.834c35.661-3.333,85.694-42.371,102.897-12.141
				c64.506-10.62,72.98-29.281,130.343-26.257c44.481,13.112,106.28-1.455,128.427-20.642c26.337-51.794,31.94-56.547,38.625,8.388
				c8.637,6.727-23.193,37.387,18.3,25.327c45.845,20.252,34.45-18.086,98.894,17.757c39.499-1.546,80.296,9.978,107.245-7.475
				c23.133-13.041,46.177-53.661,69.124-2.268c22.963,4.124,45.834-6.777,68.612-2.301c39.757,2.087,87.478,17.781,125.944-5.031
				c21.305-83.914,25.791-32.862,42.712-25.564c9.975,6.514,21.641,9.072,32.8-10.897c53.045-8.294,104.771-26.891,159.015-25.813
				c25.946-5.38,34.975,5.674,56.76,14.323c36.308,15.861,79.3-22.212,120.516,22.302c9.346,30.942,21.319-29.214,30.966-2.619
				c36.848,9.225,71.151,19.16,107.609,17.915c22.18,16.886,41.232-13.979,64.146,3.676c22.95-13.076,49.809-2.629,71.741-16.358
				c27.209,3.329,38.985,3.357,68.631-27.575c16.784-19.214,33.535-28.935,50.215-1.397c13.336,4.312,38.163-18.076,50.085-0.919
				c7.217,16.906,11.23,39.39,17.109,16.956c9.23,25.891,33.689,22.999,46.174,19.99c18.712-21.909,41.058,10.921,58.624-5.886
				c7.161,1.5,14.219-2.207,21.307-5.768V667.342z"/>
			<path style="fill:#262626;" d="M2371.708,680.085c-6.448-0.08-12.929-0.372-19.501-0.851
				c-33.663-11.945-59.647,23.243-90.698-16.462c-23.074-14.757-47.726-38.555-74.09-25.35c-17.724-3.334-32.927,0.755-50.587-3.975
				c-30.268-15.57-52.441-34.37-83.545-12.175c-28.428,0.426-52.711,27.985-80.29-7.358c-44.031-3.762-86.732-43.713-133.514-11.853
				c-32.391-1.835-65.223,58.558-97.971-3.478c-42.405-3.348-78.466-3.336-118.023,29.723c-17.42-15.199-34.194-15.766-51.608,4.782
				c-20.506-29.126-29.308,12.463-48.324,17.598c-7.193,19.51-20.259-17.234-27.796,2.017
				c-16.589-13.674-31.426,33.635-48.057,9.538c-24.398-1.647-52.678,5-77.727-0.724c-39.099,18.236-78.484-38.907-118.138-2.827
				c-43.375,3.785-82.542-8.757-126.751,3.784c-12.993,25.794-30.424,14.065-41.465,1.734c-12.942,3.463-6.881,20.487-23.398,17.849
				c-19.555,2.288-55.255,6.701-75.041-2.023c-23.27,0.319-46.634-8.269-70.094-1.522c-23.255-29.721-38.833-20.601-77.218-1.941
				c-14.201-11.263-45.267,4.705-47.157,6.672c-18.701-3.925-47.438-22.502-49.502-2.509c-2.223,11.023-32.556-42.785-52.516-33.02
				c-25.605-29.499-35.315,3.829-52.512-9.088c-0.113-3.519-6.826-29.766-24.939-3.988c8.48-44.062-7.759,20.072-9.897-8.955
				c-46.93-60.269-60.68-89.336-113.771-59.189c-0.944-0.628-1.791-1.026-2.691-1.552v739.035
				c35.661-3.172,85.694-40.308,102.897-11.55c64.506-10.104,72.98-27.856,130.343-24.98c44.481,12.474,106.28-1.385,128.427-19.637
				c26.337-49.274,31.94-53.796,38.625,7.979c8.637,6.4-23.193,35.567,18.3,24.094c45.845,19.267,34.45-17.206,98.894,16.893
				c39.499-1.471,80.296,9.491,107.245-7.112c23.133-12.406,46.177-51.05,69.124-2.157c22.963,3.923,45.834-6.447,68.612-2.189
				c39.757,1.986,87.478,16.916,125.944-4.786c21.305-79.831,25.791-31.264,42.712-24.32c9.975,6.196,21.641,8.63,32.8-10.366
				c53.045-7.89,104.771-25.582,159.015-24.558c25.946-5.119,34.975,5.398,56.76,13.626c36.308,15.089,79.3-21.132,120.516,21.217
				c9.346,29.436,21.319-27.792,30.966-2.491c36.848,8.775,71.151,18.227,107.609,17.043c22.18,16.064,41.232-13.299,64.146,3.497
				c22.95-12.44,49.809-2.501,71.741-15.562c27.209,3.167,38.985,3.194,68.631-26.234c16.784-18.279,33.535-27.526,50.215-1.329
				c13.336,4.102,38.163-17.197,50.085-0.875c7.217,16.084,11.23,37.474,17.109,16.132c9.23,24.631,33.689,21.88,46.174,19.017
				c18.712-20.843,41.058,10.39,58.624-5.599c7.161,1.426,14.219-2.1,21.307-5.488V680.085z"/>
			<g>
				<path style="fill:#FFFFFF;" d="M322.463,1009.04c6.68,1.932,13.523,2.807,20.196,0.13c-0.242-28.659,16.263,3.753,27.068,6.621
					c-4.778,66.926,22.762-52.887,20.49,11.559c18.931-8.773,35.275,32.142,47.554,12.368c18.364-10.974,23.52,8.172,27.728,19.238
					c7.113-15.291,30.99,6.098,33.688,4.491c35.554,8.661,70.987-10.039,85.25,4.398c11.507,25.718,36.766,18.603,48.18,20.701
					c-19.459,85.702,18.111,13.313,3.685,9.608c3.839-56.588,12.076,38.531,12.907,14.872c23.424,10.632,0.069-26.889,34.328,13.826
					c15.296,20.777,25.086,25.63,30.152,25.351v-5.525c-0.052,0.016-0.088,0.005-0.141,0.022
					c-13.477-6.323-7.566-18.489,0.141-9.243V527.745c-4.128,1.202-7.089,1.437-7.2-1.837c-6.783-0.695-17.848-48.66-25.287-16.631
					c-23.621-24.68-40.206-11.85-56.821-12.254c-23.44-53.362-30.009-23.43-58.22-8.503c-19.401,53.422-36.577,10.134-49.757,1.281
					c-8.007,4.202-14.4-3.632-14.944,4.501c-4.035-26.629-16.026-66.749-17.572,20.343c1.223,11.052,2.493,18.39,3.55,23.183
					c-1.914-4.015-5.118-9.105-10.217-13.845c-3.91-11.984-23.596-17.17-25.47,1.598c-23.173,0.905-34.316,22.998-45.036,23.361
					c-10.182,39.549-15.561-19.347-31.386,16.234c-13.899,15.773-21.342,16.187-33.913,8.132c-6.457,0.806-12.552,9.69-18.953,6.322
					V1009.04z"/>
				
					<linearGradient id="SVGID_00000001644898613128267110000013406019964919155879_" gradientUnits="userSpaceOnUse" x1="577.7261" y1="-2433.9585" x2="968.9539" y2="-2433.9585" gradientTransform="matrix(-1 -0.081 0 -1 1291.4174 -1573.1697)">
					<stop  offset="0" style="stop-color:#E6E5E5"/>
					<stop  offset="0.0037" style="stop-color:#DEDEDE"/>
					<stop  offset="0.0182" style="stop-color:#C6C6C7"/>
					<stop  offset="0.0334" style="stop-color:#B5B5B7"/>
					<stop  offset="0.0498" style="stop-color:#AAABAD"/>
					<stop  offset="0.0693" style="stop-color:#A7A8AA"/>
					<stop  offset="0.2151" style="stop-color:#E6E5E5"/>
					<stop  offset="0.307" style="stop-color:#F2F1F1"/>
					<stop  offset="0.4379" style="stop-color:#FCFCFC"/>
					<stop  offset="0.5942" style="stop-color:#FFFFFF"/>
					<stop  offset="0.8416" style="stop-color:#BFBFBF"/>
					<stop  offset="1" style="stop-color:#E6E5E5"/>
				</linearGradient>
				<path style="fill:url(#SVGID_00000001644898613128267110000013406019964919155879_);" d="M322.463,997.632
					c6.68,1.864,13.523,2.725,20.196,0.21c-0.242-27.228,16.263,3.634,27.068,6.405c-4.778,63.559,22.762-50.145,20.49,11.069
					c18.931-8.254,35.275,30.685,47.554,11.952c18.364-10.348,23.52,7.863,27.728,18.394c7.113-14.496,30.99,5.925,33.688,4.409
					c35.554,8.379,70.987-9.234,85.25,4.542c11.507,24.481,36.766,17.83,48.18,19.872c-19.459,81.334,18.111,12.724,3.685,9.143
					c3.839-53.742,12.076,36.656,12.907,14.183c23.424,10.201,0.069-25.545,34.328,13.282
					c15.296,19.803,25.086,24.455,30.152,24.212v-5.249c-0.052,0.014-0.088,0.004-0.141,0.02
					c-13.477-6.065-7.566-17.597,0.141-8.781V542.07c-4.128,1.125-7.089,1.335-7.2-1.776c-6.783-0.688-17.848-46.302-25.287-15.907
					c-23.621-23.547-40.206-11.428-56.821-11.884c-23.44-50.794-30.009-22.386-58.22-8.327
					c-19.401,50.669-36.577,9.472-49.757,1.005c-8.007,3.957-14.4-3.512-14.944,4.212c-4.035-25.315-16.026-63.48-17.572,19.251
					c1.223,10.504,2.493,17.481,3.55,22.039c-1.914-3.823-5.118-8.672-10.217-13.197c-3.91-11.402-23.596-16.412-25.47,1.41
					c-23.173,0.762-34.316,21.701-45.036,22.001c-10.182,37.528-15.561-18.446-31.386,15.288
					c-13.899,14.925-21.342,15.287-33.913,7.582c-6.457,0.739-12.552,9.152-18.953,5.925V997.632z"/>
			</g>
			<g>
				<path style="fill:#FFFFFF;" d="M266.372,1318.118c4.906-4.449,10.251-10.226,16.533-18.03
					c15.331-21.017,30.631-31.008,45.868,2.286c12.18,6.048,34.856-18.032,45.748,2.83c6.591,20.205,10.258,46.64,15.626,21.034
					c8.431,30.799,30.772,29.345,42.176,26.82c17.093-23.999,37.504,15.885,53.548-2.276c15.759,5.542,30.956-24.075,47.347-1.742
					c42.287-4.634,84.251,3.025,125.765,5.431c17.404,3.175,22.409-4.2,35.24-7.573c1.403,50.402,2.805-1.509,4.207-9.963
					c6.335,3.287,13.046,9.179,20.136-2.094c11.202-16.474,22.393,14.09,33.569,1.37c1.415,2.913,2.807,5.102,4.187,6.961V636.779
					c-29.286-20.024-59.312,26.363-88.78,4.297c-8.355-13.28-17.011,16.537-25.356-3.415c-18.329-8.729-33.535-23.336-51.071,8.426
					c-12.518,2.66-26.22-1.634-39.033-4.475c-21.97,5.61-42.736,4.334-64.561,0.349c-30.748-17.207-54.481,23.745-82.844-27.165
					c-21.076-19.818-43.593-50.801-67.675-36.727c-16.189-5.452-30.075-1.642-46.208-8.791c-8.714-6.736-16.691-13.795-24.422-19.54
					V1318.118z"/>
				
					<linearGradient id="SVGID_00000027591752136853096510000000554049577461326002_" gradientUnits="userSpaceOnUse" x1="535.096" y1="-2601.959" x2="1025.0448" y2="-2601.959" gradientTransform="matrix(-1 -0.081 0 -1 1291.4174 -1573.1697)">
					<stop  offset="0" style="stop-color:#E6E5E5"/>
					<stop  offset="0.0037" style="stop-color:#DEDEDE"/>
					<stop  offset="0.0182" style="stop-color:#C6C6C7"/>
					<stop  offset="0.0334" style="stop-color:#B5B5B7"/>
					<stop  offset="0.0498" style="stop-color:#AAABAD"/>
					<stop  offset="0.0693" style="stop-color:#A7A8AA"/>
					<stop  offset="0.2151" style="stop-color:#E6E5E5"/>
					<stop  offset="0.307" style="stop-color:#F2F1F1"/>
					<stop  offset="0.4379" style="stop-color:#FCFCFC"/>
					<stop  offset="0.5942" style="stop-color:#FFFFFF"/>
					<stop  offset="0.8416" style="stop-color:#BFBFBF"/>
					<stop  offset="1" style="stop-color:#E6E5E5"/>
				</linearGradient>
				<path style="fill:url(#SVGID_00000027591752136853096510000000554049577461326002_);" d="M266.372,1299.484
					c4.906-4.206,10.251-9.671,16.533-17.058c15.331-19.901,30.631-29.328,45.868,2.367c12.18,5.798,34.856-16.982,45.748,2.884
					c6.591,19.223,10.258,44.352,15.626,20.048c8.431,29.296,30.772,28.009,42.176,25.659c17.093-22.726,37.504,15.25,53.548-1.934
					c15.759,5.331,30.956-22.74,47.347-1.453c42.287-4.222,84.251,3.233,125.765,5.695c17.404,3.09,22.409-3.895,35.24-7.044
					c1.403,47.888,2.805-1.421,4.207-9.447c6.335,3.15,13.046,8.776,20.136-1.903c11.202-15.603,22.393,13.481,33.569,1.445
					c1.415,2.774,2.807,4.859,4.187,6.631V654.3c-29.286-19.147-59.312,24.792-88.78,3.704
					c-8.355-12.652-17.011,15.638-25.356-3.353c-18.329-8.371-33.535-22.312-51.071,7.786c-12.518,2.474-26.22-1.664-39.033-4.417
					c-21.97,5.236-42.736,3.935-64.561,0.056c-30.748-16.477-54.481,22.326-82.844-26.159
					c-21.076-18.918-43.593-48.447-67.675-35.179c-16.189-5.248-30.075-1.687-46.208-8.549
					c-8.714-6.436-16.691-13.177-24.422-18.667V1299.484z"/>
			</g>
		</g>
	</g>
	<g>
		
			<radialGradient id="SVGID_00000178905202125694284310000002357767605536032165_" cx="1533.6967" cy="991.3823" r="706.8072" gradientUnits="userSpaceOnUse">
			<stop  offset="0" style="stop-color:#FFFFFF"/>
			<stop  offset="1" style="stop-color:#000000"/>
		</radialGradient>
		<path style="fill:url(#SVGID_00000178905202125694284310000002357767605536032165_);" d="M935.062,936.035
			c-16.914-8.914-30.171-21.372-39.764-37.383c-9.596-16.007-14.392-34.172-14.392-54.497c0-20.318,4.797-38.486,14.392-54.496
			c9.593-16.004,22.849-28.469,39.764-37.383c16.911-8.914,35.912-13.372,57.005-13.372c19.382,0,36.672,3.451,51.878,10.351
			c15.199,6.904,27.739,16.873,37.624,29.907l-42.471,38.248c-12.353-15.718-26.89-23.579-43.611-23.579
			c-14.063,0-25.367,4.555-33.918,13.658c-8.551,9.107-12.826,21.331-12.826,36.665c0,15.341,4.275,27.562,12.826,36.666
			c8.551,9.11,19.854,13.662,33.918,13.662c16.721,0,31.258-7.859,43.611-23.583l42.471,38.248
			c-9.885,13.038-22.425,23.007-37.624,29.907c-15.206,6.904-32.496,10.352-51.878,10.352
			C970.974,949.407,951.973,944.952,935.062,936.035z"/>
		
			<radialGradient id="SVGID_00000060735852098627747590000016520692060291054733_" cx="1533.6959" cy="991.3823" r="706.8055" gradientUnits="userSpaceOnUse">
			<stop  offset="0" style="stop-color:#FFFFFF"/>
			<stop  offset="1" style="stop-color:#000000"/>
		</radialGradient>
		<path style="fill:url(#SVGID_00000060735852098627747590000016520692060291054733_);" d="M1143.416,935.893
			c-17.101-9.01-30.499-21.521-40.188-37.53c-9.692-16.004-14.537-34.076-14.537-54.207c0-20.13,4.845-38.196,14.537-54.207
			c9.689-16.007,23.087-28.514,40.188-37.528c17.101-9.01,36.386-13.517,57.862-13.517c21.472,0,40.76,4.506,57.861,13.517
			c17.104,9.014,30.499,21.521,40.191,37.528c9.689,16.01,14.537,34.076,14.537,54.207c0,20.131-4.848,38.204-14.537,54.207
			c-9.692,16.01-23.087,28.52-40.191,37.53c-17.101,9.007-36.389,13.514-57.861,13.514
			C1179.802,949.407,1160.516,944.9,1143.416,935.893z M1223.937,888.3c6.742-4.121,12.115-9.969,16.106-17.545
			c3.989-7.569,5.983-16.435,5.983-26.6c0-10.159-1.994-19.024-5.983-26.6c-3.992-7.572-9.364-13.417-16.106-17.541
			c-6.745-4.121-14.299-6.182-22.659-6.182c-8.364,0-15.917,2.061-22.66,6.182c-6.749,4.124-12.115,9.969-16.103,17.541
			c-3.992,7.576-5.987,16.441-5.987,26.6c0,10.165,1.994,19.031,5.987,26.6c3.989,7.576,9.354,13.424,16.103,17.545
			c6.742,4.124,14.295,6.183,22.66,6.183C1209.638,894.483,1217.191,892.424,1223.937,888.3z"/>
		
			<radialGradient id="SVGID_00000065036320521761032620000002639177613033494952_" cx="1533.6959" cy="991.3827" r="706.8065" gradientUnits="userSpaceOnUse">
			<stop  offset="0" style="stop-color:#FFFFFF"/>
			<stop  offset="1" style="stop-color:#000000"/>
		</radialGradient>
		<path style="fill:url(#SVGID_00000065036320521761032620000002639177613033494952_);" d="M1516.524,944.807l-0.573-91.738
			l-43.324,73.62h-29.643l-43.324-70.456v88.573h-61.281V743.504h55.294l64.989,107.265l63.275-107.265h55.298l0.569,201.303
			H1516.524z"/>
		
			<radialGradient id="SVGID_00000164472058120317615950000013667193826020917123_" cx="1533.6954" cy="991.3827" r="706.8078" gradientUnits="userSpaceOnUse">
			<stop  offset="0" style="stop-color:#FFFFFF"/>
			<stop  offset="1" style="stop-color:#000000"/>
		</radialGradient>
		<path style="fill:url(#SVGID_00000164472058120317615950000013667193826020917123_);" d="M1610.298,743.504h67.267v201.303
			h-67.267V743.504z"/>
		
			<radialGradient id="SVGID_00000047048216059571942090000006806960479264687773_" cx="1533.6965" cy="991.3827" r="706.8032" gradientUnits="userSpaceOnUse">
			<stop  offset="0" style="stop-color:#FFFFFF"/>
			<stop  offset="1" style="stop-color:#000000"/>
		</radialGradient>
		<path style="fill:url(#SVGID_00000047048216059571942090000006806960479264687773_);" d="M1906.726,743.504v201.303h-55.297
			l-75.818-91.448v91.448h-65.556V743.504h55.294l75.821,91.448v-91.448H1906.726z"/>
		
			<radialGradient id="SVGID_00000116950531820109623140000005611083116037807523_" cx="1533.6948" cy="991.3823" r="706.8076" gradientUnits="userSpaceOnUse">
			<stop  offset="0" style="stop-color:#FFFFFF"/>
			<stop  offset="1" style="stop-color:#000000"/>
		</radialGradient>
		<path style="fill:url(#SVGID_00000116950531820109623140000005611083116037807523_);" d="M2071.187,838.693h58.434v85.121
			c-11.787,8.245-25.468,14.573-41.047,18.98c-15.583,4.41-30.882,6.614-45.888,6.614c-21.286,0-40.381-4.456-57.292-13.372
			c-16.914-8.914-30.171-21.372-39.764-37.383c-9.596-16.007-14.392-34.172-14.392-54.497c0-20.318,4.797-38.486,14.392-54.496
			c9.593-16.004,22.991-28.469,40.191-37.383c17.194-8.914,36.627-13.372,58.289-13.372c19.568,0,37.096,3.306,52.589,9.92
			c15.483,6.614,28.36,16.248,38.621,28.9l-43.041,38.248c-12.539-14.759-27.459-22.141-44.75-22.141
			c-14.82,0-26.607,4.506-35.343,13.513c-8.744,9.014-13.112,21.283-13.112,36.81c0,15.148,4.32,27.321,12.971,36.524
			c8.644,9.2,20.185,13.803,34.629,13.803c8.551,0,16.721-1.628,24.512-4.89V838.693z"/>
	</g>
	<g>
		
			<radialGradient id="SVGID_00000063598904154690133160000009675658401605843882_" cx="1533.6964" cy="991.3821" r="706.8055" gradientUnits="userSpaceOnUse">
			<stop  offset="0" style="stop-color:#FFFFFF"/>
			<stop  offset="1" style="stop-color:#000000"/>
		</radialGradient>
		<path style="fill:url(#SVGID_00000063598904154690133160000009675658401605843882_);" d="M1119.885,1194.89
			c-15.676-3.738-28.553-8.769-38.621-15.097l21.662-49.462c9.499,5.562,20.141,10.017,31.924,13.369
			c11.78,3.359,23.087,5.035,33.919,5.035c9.31,0,15.962-0.907,19.954-2.731c3.989-1.821,5.983-4.552,5.983-8.196
			c0-4.214-2.612-7.379-7.837-9.49c-5.23-2.107-13.826-4.41-25.796-6.903c-15.392-3.255-28.218-6.759-38.48-10.497
			c-10.262-3.738-19.195-9.872-26.793-18.403c-7.601-8.528-11.401-20.083-11.401-34.652c0-12.655,3.513-24.158,10.545-34.51
			c7.029-10.352,17.529-18.5,31.496-24.444c13.967-5.938,30.926-8.914,50.877-8.914c13.682,0,27.125,1.486,40.333,4.459
			c13.205,2.973,24.844,7.331,34.916,13.083l-20.237,49.176c-19.571-9.966-38.1-14.955-55.58-14.955
			c-17.294,0-25.937,4.22-25.937,12.655c0,4.024,2.564,7.045,7.695,9.059c5.131,2.013,13.585,4.169,25.368,6.469
			c15.199,2.876,28.028,6.183,38.48,9.921c10.448,3.741,19.526,9.828,27.221,18.261c7.695,8.438,11.546,19.942,11.546,34.51
			c0,12.652-3.519,24.11-10.548,34.365c-7.032,10.259-17.529,18.404-31.496,24.442c-13.967,6.041-30.926,9.059-50.877,9.059
			C1151.667,1200.497,1135.561,1198.628,1119.885,1194.89z"/>
		
			<radialGradient id="SVGID_00000133495797831765948830000012009732025114591624_" cx="1533.6957" cy="991.3821" r="706.8063" gradientUnits="userSpaceOnUse">
			<stop  offset="0" style="stop-color:#FFFFFF"/>
			<stop  offset="1" style="stop-color:#000000"/>
		</radialGradient>
		<path style="fill:url(#SVGID_00000133495797831765948830000012009732025114591624_);" d="M1327.815,1186.983
			c-17.101-9.01-30.499-21.521-40.188-37.53c-9.692-16.004-14.537-34.076-14.537-54.207c0-20.13,4.845-38.196,14.537-54.207
			c9.689-16.007,23.087-28.514,40.188-37.528c17.101-9.011,36.385-13.518,57.861-13.518c21.473,0,40.76,4.507,57.861,13.518
			c17.104,9.014,30.499,21.521,40.191,37.528c9.689,16.01,14.537,34.076,14.537,54.207c0,20.131-4.848,38.204-14.537,54.207
			c-9.692,16.01-23.087,28.521-40.191,37.53c-17.101,9.007-36.389,13.514-57.861,13.514
			C1364.2,1200.497,1344.915,1195.99,1327.815,1186.983z M1408.335,1139.39c6.742-4.121,12.114-9.969,16.107-17.545
			c3.989-7.569,5.983-16.435,5.983-26.6c0-10.159-1.995-19.024-5.983-26.6c-3.992-7.572-9.364-13.417-16.107-17.541
			c-6.746-4.121-14.299-6.182-22.66-6.182c-8.364,0-15.917,2.062-22.66,6.182c-6.749,4.124-12.114,9.969-16.103,17.541
			c-3.992,7.576-5.987,16.441-5.987,26.6c0,10.165,1.995,19.031,5.987,26.6c3.989,7.576,9.354,13.424,16.103,17.545
			c6.743,4.124,14.296,6.183,22.66,6.183C1394.036,1145.573,1401.589,1143.515,1408.335,1139.39z"/>
		
			<radialGradient id="SVGID_00000103239543112854399780000008491343769679856519_" cx="1533.6956" cy="991.3821" r="706.8068" gradientUnits="userSpaceOnUse">
			<stop  offset="0" style="stop-color:#FFFFFF"/>
			<stop  offset="1" style="stop-color:#000000"/>
		</radialGradient>
		<path style="fill:url(#SVGID_00000103239543112854399780000008491343769679856519_);" d="M1569.521,1186.983
			c-17.101-9.01-30.499-21.521-40.188-37.53c-9.692-16.004-14.537-34.076-14.537-54.207c0-20.13,4.845-38.196,14.537-54.207
			c9.689-16.007,23.087-28.514,40.188-37.528c17.101-9.011,36.385-13.518,57.861-13.518c21.473,0,40.76,4.507,57.861,13.518
			c17.104,9.014,30.499,21.521,40.191,37.528c9.689,16.01,14.537,34.076,14.537,54.207c0,20.131-4.848,38.204-14.537,54.207
			c-9.692,16.01-23.087,28.521-40.191,37.53c-17.101,9.007-36.389,13.514-57.861,13.514
			C1605.907,1200.497,1586.622,1195.99,1569.521,1186.983z M1650.042,1139.39c6.743-4.121,12.115-9.969,16.107-17.545
			c3.988-7.569,5.983-16.435,5.983-26.6c0-10.159-1.995-19.024-5.983-26.6c-3.992-7.572-9.364-13.417-16.107-17.541
			c-6.746-4.121-14.299-6.182-22.659-6.182c-8.364,0-15.917,2.062-22.66,6.182c-6.749,4.124-12.114,9.969-16.103,17.541
			c-3.992,7.576-5.987,16.441-5.987,26.6c0,10.165,1.994,19.031,5.987,26.6c3.989,7.576,9.354,13.424,16.103,17.545
			c6.743,4.124,14.296,6.183,22.66,6.183C1635.743,1145.573,1643.296,1143.515,1650.042,1139.39z"/>
		
			<radialGradient id="SVGID_00000122685395514726239520000002582063416533147298_" cx="1533.6945" cy="991.3825" r="706.8069" gradientUnits="userSpaceOnUse">
			<stop  offset="0" style="stop-color:#FFFFFF"/>
			<stop  offset="1" style="stop-color:#000000"/>
		</radialGradient>
		<path style="fill:url(#SVGID_00000122685395514726239520000002582063416533147298_);" d="M1961.152,994.594v201.303h-55.298
			l-75.818-91.448v91.448h-65.556V994.594h55.294l75.821,91.449v-91.449H1961.152z"/>
	</g>
</g>
</svg>
