<svg width="188" height="64" viewBox="0 0 188 64" fill="none" xmlns="http://www.w3.org/2000/svg">
<path d="M31.6738 2.30229H45.4056L42.8077 3.1131L36.797 40.4867C36.1922 44.0267 34.9114 47.0865 32.9546 49.6659C30.9978 52.2275 28.5162 54.211 25.5098 55.6164C22.5035 57.0039 19.1502 57.6977 15.4501 57.6977C12.1235 57.6977 9.20607 57.1107 6.6978 55.9366C4.20732 54.7625 2.36614 52.9836 1.17427 50.5998C0.000183202 48.2161 -0.293338 45.2097 0.293704 41.5807H11.7143C11.5364 43.0572 11.6254 44.3025 11.9812 45.3165C12.3548 46.3304 12.9863 47.1043 13.8757 47.6379C14.7652 48.1716 15.877 48.4385 17.2112 48.4385C18.6521 48.4385 19.9329 48.1271 21.0536 47.5045C22.1744 46.8819 23.0994 45.9658 23.8288 44.7561C24.5759 43.5464 25.1007 42.0699 25.4031 40.3266L31.6738 2.30229Z" fill="white"/>
<path d="M64.2693 2.30229C69.7661 2.30229 74.3289 3.42323 77.9578 5.6646C81.6046 7.90603 84.1755 11.117 85.6697 15.2974C87.164 19.46 87.4311 24.432 86.4705 30.2134C85.5455 35.7992 83.7044 40.5937 80.9471 44.5962C78.1898 48.581 74.6582 51.6403 70.3533 53.7749C66.0484 55.8919 61.1203 56.9507 55.5701 56.9507H37.3836C38.9789 46.6977 48.3059 36.4779 61.7752 30.9937L64.4246 39.2193L73.3084 21.896L55.9822 13.0093L58.6014 21.1402C50.4806 24.4464 43.8656 29.4735 39.5428 35.1919L45.0037 2.30229H64.2693Z" fill="white"/>
<path d="M99.4702 27L96.8097 2.23341H99.8571L101.695 22.4046H101.937L110.547 2.23341H113.933L115.868 22.4046H116.11L124.624 2.23341H127.671L116.787 27H113.692L111.515 7.26413H111.321L102.566 27H99.4702ZM132.92 27.387C131.138 27.387 129.667 26.9919 128.506 26.2019C127.345 25.4037 126.534 24.2912 126.075 22.8642C125.615 21.4291 125.543 19.7603 125.857 17.8576C126.172 15.955 126.796 14.2781 127.732 12.8269C128.667 11.3677 129.832 10.231 131.227 9.41669C132.621 8.59436 134.153 8.1832 135.822 8.1832C136.789 8.1832 137.721 8.34444 138.615 8.66692C139.51 8.9894 140.284 9.51344 140.937 10.239C141.59 10.9565 142.046 11.9079 142.304 13.093C142.562 14.2781 142.546 15.7373 142.255 17.4707L142.062 18.68H127.744L128.131 16.213H139.547C139.732 15.1649 139.684 14.2297 139.401 13.4074C139.127 12.5851 138.648 11.9361 137.962 11.4604C137.285 10.9848 136.427 10.7469 135.387 10.7469C134.314 10.7469 133.315 11.0372 132.387 11.6176C131.46 12.19 130.686 12.9156 130.066 13.7944C129.445 14.6651 129.058 15.5519 128.905 16.4549L128.566 18.5832C128.324 20.1231 128.36 21.3485 128.675 22.2595C128.997 23.1705 129.558 23.8276 130.356 24.2307C131.154 24.6257 132.154 24.8232 133.355 24.8232C134.121 24.8232 134.826 24.7184 135.471 24.5088C136.116 24.2912 136.693 23.9687 137.201 23.5414C137.708 23.106 138.136 22.5659 138.482 21.9209L141.094 22.6949C140.651 23.6301 140.026 24.4524 139.22 25.1619C138.422 25.8633 137.487 26.4115 136.414 26.8065C135.35 27.1935 134.185 27.387 132.92 27.387ZM145.454 27L149.566 2.23341H152.42L150.92 11.3758H151.162C151.42 11.0533 151.779 10.6421 152.238 10.1423C152.698 9.63437 153.315 9.18289 154.088 8.78785C154.862 8.38475 155.854 8.1832 157.063 8.1832C158.627 8.1832 159.937 8.57421 160.994 9.35623C162.058 10.1382 162.804 11.2468 163.231 12.6818C163.666 14.1169 163.723 15.8099 163.4 17.7609C163.078 19.728 162.461 21.4332 161.55 22.8763C160.647 24.3113 159.534 25.4239 158.212 26.214C156.898 26.996 155.467 27.387 153.919 27.387C152.726 27.387 151.803 27.1895 151.15 26.7944C150.505 26.3913 150.029 25.9358 149.723 25.4279C149.425 24.9119 149.195 24.4846 149.034 24.146H148.695L148.211 27H145.454ZM149.808 17.7125C149.582 19.1153 149.586 20.3528 149.82 21.4251C150.053 22.4893 150.517 23.3237 151.21 23.9284C151.904 24.525 152.823 24.8232 153.968 24.8232C155.161 24.8232 156.209 24.5088 157.112 23.88C158.015 23.2431 158.756 22.3885 159.337 21.3163C159.917 20.2359 160.32 19.0347 160.546 17.7125C160.756 16.4065 160.748 15.2294 160.522 14.1814C160.304 13.1252 159.845 12.2908 159.143 11.6781C158.45 11.0573 157.499 10.7469 156.289 10.7469C155.128 10.7469 154.101 11.0412 153.206 11.6297C152.319 12.2102 151.585 13.0245 151.005 14.0725C150.432 15.1125 150.033 16.3259 149.808 17.7125ZM173.183 27.3386C171.555 27.3386 170.2 27.0403 169.12 26.4437C168.04 25.8471 167.27 25.0288 166.81 23.9888C166.351 22.9488 166.234 21.7597 166.46 20.4214C166.621 19.3894 166.988 18.4744 167.56 17.6763C168.133 16.87 168.866 16.1243 169.761 15.439C170.656 14.7457 171.668 14.0524 172.796 13.359L176.811 10.6986C177.585 10.239 178.226 9.74723 178.734 9.2232C179.242 8.69917 179.569 8.0139 179.714 7.16738C179.81 6.53854 179.629 5.92986 179.169 5.34133C178.718 4.7528 178.045 4.45854 177.15 4.45854C176.521 4.45854 175.941 4.61978 175.409 4.94226C174.876 5.25668 174.433 5.65978 174.078 6.15157C173.732 6.63529 173.514 7.13513 173.425 7.65111C173.329 8.23157 173.393 8.81607 173.619 9.4046C173.845 9.99313 174.159 10.5978 174.562 11.2186C174.965 11.8313 175.376 12.4641 175.796 13.1172L184.841 27H181.407L173.909 15.6809C173.216 14.6328 172.587 13.6815 172.022 12.8269C171.466 11.9724 171.047 11.1299 170.765 10.2995C170.483 9.4691 170.418 8.57018 170.571 7.60273C170.749 6.49017 171.152 5.51466 171.781 4.67621C172.418 3.8297 173.224 3.17264 174.199 2.70504C175.183 2.22938 176.279 1.99155 177.489 1.99155C178.73 1.99155 179.758 2.23342 180.572 2.71714C181.395 3.1928 181.979 3.82567 182.326 4.61575C182.68 5.39777 182.777 6.24831 182.616 7.16738C182.423 8.3525 181.955 9.38041 181.213 10.2511C180.472 11.1138 179.536 11.924 178.408 12.6818L172.893 16.3581C171.644 17.1885 170.753 17.9907 170.221 18.7646C169.697 19.5305 169.41 20.0828 169.362 20.4214C169.233 21.1953 169.314 21.9169 169.604 22.586C169.902 23.2552 170.382 23.7953 171.043 24.2065C171.712 24.6177 172.538 24.8232 173.522 24.8232C174.457 24.8232 175.4 24.6257 176.352 24.2307C177.303 23.8276 178.198 23.2471 179.036 22.4893C179.883 21.7315 180.605 20.8204 181.201 19.7563C181.798 18.6921 182.205 17.4949 182.423 16.1646H185.18C184.906 17.8093 184.503 19.1476 183.97 20.1795C183.446 21.2034 182.906 22.0096 182.35 22.5981C181.802 23.1786 181.358 23.6301 181.02 23.9525C180.899 24.0735 180.77 24.1944 180.633 24.3153C180.496 24.4363 180.367 24.5572 180.246 24.6781C179.303 25.573 178.186 26.2422 176.896 26.6856C175.606 27.1209 174.369 27.3386 173.183 27.3386ZM110.463 39.4288C110.503 38.421 110.209 37.643 109.58 37.0948C108.959 36.5466 108.02 36.2725 106.762 36.2725C105.908 36.2725 105.166 36.3934 104.537 36.6353C103.908 36.8691 103.404 37.1956 103.026 37.6148C102.655 38.026 102.425 38.5017 102.336 39.0418C102.248 39.4852 102.276 39.8722 102.421 40.2027C102.574 40.5333 102.812 40.8195 103.134 41.0613C103.465 41.2951 103.856 41.5007 104.307 41.6781C104.759 41.8474 105.239 41.9925 105.746 42.1134L107.875 42.6455C108.915 42.8874 109.85 43.2099 110.68 43.613C111.519 44.0161 112.22 44.5119 112.785 45.1004C113.357 45.689 113.76 46.3823 113.994 47.1804C114.228 47.9786 114.26 48.8936 114.091 49.9256C113.833 51.4412 113.232 52.7553 112.289 53.8679C111.346 54.9724 110.108 55.831 108.576 56.4437C107.044 57.0484 105.271 57.3507 103.255 57.3507C101.256 57.3507 99.5669 57.0443 98.1883 56.4316C96.8097 55.8189 95.806 54.9119 95.1771 53.7107C94.5564 52.5014 94.3709 51.0059 94.6209 49.2242H99.6878C99.5992 50.0546 99.7201 50.7479 100.051 51.3042C100.389 51.8524 100.893 52.2676 101.562 52.5498C102.231 52.8239 103.017 52.9609 103.92 52.9609C104.815 52.9609 105.609 52.8319 106.303 52.5739C107.004 52.316 107.573 51.9572 108.008 51.4977C108.443 51.0381 108.709 50.5101 108.806 49.9135C108.903 49.3572 108.818 48.8896 108.552 48.5107C108.286 48.1318 107.859 47.8093 107.27 47.5432C106.69 47.2691 105.968 47.0273 105.106 46.8176L102.518 46.1404C100.518 45.6325 99.0066 44.8384 97.9827 43.7581C96.9588 42.6778 96.592 41.2226 96.8823 39.3925C97.1402 37.893 97.765 36.5829 98.7567 35.4623C99.7564 34.3336 101.014 33.4588 102.53 32.8381C104.053 32.2092 105.718 31.8948 107.524 31.8948C109.362 31.8948 110.914 32.2133 112.18 32.8502C113.446 33.479 114.369 34.3578 114.949 35.4864C115.53 36.6151 115.707 37.9292 115.481 39.4288H110.463ZM123.309 46.2614L121.519 57H116.379L120.491 32.2334H125.485L123.937 41.7023H124.143C124.74 40.6058 125.558 39.7472 126.598 39.1265C127.638 38.4976 128.867 38.1832 130.286 38.1832C131.576 38.1832 132.653 38.4654 133.515 39.0297C134.386 39.586 135.003 40.3882 135.365 41.4362C135.728 42.4762 135.789 43.7218 135.547 45.173L133.564 57H128.424L130.238 46.0921C130.423 44.9473 130.274 44.0564 129.79 43.4195C129.315 42.7826 128.557 42.4641 127.517 42.4641C126.816 42.4641 126.171 42.6133 125.582 42.9116C124.994 43.2099 124.498 43.6452 124.095 44.2176C123.7 44.782 123.438 45.4632 123.309 46.2614ZM137.594 57L140.689 38.4251H145.841L142.745 57H137.594ZM143.797 36.0064C143.031 36.0064 142.399 35.7525 141.899 35.2446C141.407 34.7286 141.205 34.1159 141.294 33.4064C141.383 32.6809 141.729 32.0681 142.334 31.5683C142.939 31.0604 143.624 30.8064 144.39 30.8064C145.156 30.8064 145.781 31.0604 146.264 31.5683C146.748 32.0681 146.95 32.6809 146.869 33.4064C146.788 34.1159 146.446 34.7286 145.841 35.2446C145.244 35.7525 144.563 36.0064 143.797 36.0064ZM145.747 63.9656L150.028 38.4251H155.107L154.587 41.5451H154.817C155.123 41.0452 155.531 40.5373 156.038 40.0213C156.554 39.4973 157.195 39.062 157.961 38.7153C158.727 38.3606 159.626 38.1832 160.658 38.1832C162.021 38.1832 163.21 38.5379 164.225 39.2474C165.241 39.9488 165.975 41.0089 166.426 42.4279C166.886 43.8387 166.938 45.6083 166.584 47.7367C166.245 49.8087 165.62 51.5581 164.709 52.9851C163.806 54.404 162.722 55.4803 161.456 56.214C160.198 56.9395 158.864 57.3023 157.453 57.3023C156.454 57.3023 155.631 57.1371 154.986 56.8065C154.349 56.476 153.854 56.0608 153.499 55.5609C153.144 55.053 152.894 54.5411 152.749 54.0251H152.556L150.911 63.9656H145.747ZM153.523 47.7125C153.346 48.817 153.338 49.7804 153.499 50.6028C153.668 51.4251 154.007 52.066 154.515 52.5256C155.023 52.977 155.692 53.2028 156.522 53.2028C157.361 53.2028 158.106 52.973 158.759 52.5135C159.412 52.0459 159.957 51.4009 160.392 50.5786C160.827 49.7482 161.138 48.7928 161.323 47.7125C161.492 46.6403 161.496 45.697 161.335 44.8828C161.174 44.0685 160.843 43.4316 160.344 42.9721C159.844 42.5125 159.167 42.2827 158.312 42.2827C157.482 42.2827 156.736 42.5045 156.075 42.9479C155.422 43.3913 154.878 44.0201 154.442 44.8344C154.007 45.6486 153.7 46.608 153.523 47.7125Z" fill="white"/>
</svg>
