<svg width="25" height="24" viewBox="0 0 25 24" fill="none" xmlns="http://www.w3.org/2000/svg">
<path fill-rule="evenodd" clip-rule="evenodd" d="M7.63846 1.066C8.81146 1.012 9.18546 1 12.1735 1C15.1615 1 15.5355 1.013 16.7075 1.066C17.8795 1.119 18.6795 1.306 19.3795 1.577C20.1125 1.854 20.7775 2.287 21.3275 2.847C21.8875 3.396 22.3195 4.06 22.5955 4.794C22.8675 5.494 23.0535 6.294 23.1075 7.464C23.1615 8.639 23.1735 9.013 23.1735 12C23.1735 14.988 23.1605 15.362 23.1075 16.535C23.0545 17.705 22.8675 18.505 22.5955 19.205C22.3195 19.9391 21.8867 20.6042 21.3275 21.154C20.7775 21.714 20.1125 22.146 19.3795 22.422C18.6795 22.694 17.8795 22.88 16.7095 22.934C15.5355 22.988 15.1615 23 12.1735 23C9.18546 23 8.81146 22.987 7.63846 22.934C6.46846 22.881 5.66846 22.694 4.96846 22.422C4.23438 22.146 3.56928 21.7133 3.01946 21.154C2.45984 20.6047 2.02678 19.9399 1.75046 19.206C1.47946 18.506 1.29346 17.706 1.23946 16.536C1.18546 15.361 1.17346 14.987 1.17346 12C1.17346 9.012 1.18646 8.638 1.23946 7.466C1.29246 6.294 1.47946 5.494 1.75046 4.794C2.02718 4.06008 2.46058 3.39531 3.02046 2.846C3.5695 2.2865 4.23393 1.85344 4.96746 1.577C5.66746 1.306 6.46846 1.12 7.63846 1.066ZM16.6185 3.046C15.4585 2.993 15.1105 2.982 12.1735 2.982C9.23646 2.982 8.88846 2.993 7.72846 3.046C6.65546 3.095 6.07346 3.274 5.68546 3.425C5.17246 3.625 4.80546 3.862 4.42046 4.247C4.05551 4.60205 3.77464 5.03428 3.59846 5.512C3.44746 5.9 3.26846 6.482 3.21946 7.555C3.16646 8.715 3.15546 9.063 3.15546 12C3.15546 14.937 3.16646 15.285 3.21946 16.445C3.26846 17.518 3.44746 18.1 3.59846 18.488C3.77446 18.965 4.05546 19.398 4.42046 19.753C4.77546 20.118 5.20846 20.399 5.68546 20.575C6.07346 20.726 6.65546 20.905 7.72846 20.954C8.88846 21.007 9.23546 21.018 12.1735 21.018C15.1115 21.018 15.4585 21.007 16.6185 20.954C17.6915 20.905 18.2735 20.726 18.6615 20.575C19.1745 20.375 19.5415 20.138 19.9265 19.753C20.2915 19.398 20.5725 18.965 20.7485 18.488C20.8995 18.1 21.0785 17.518 21.1275 16.445C21.1805 15.285 21.1915 14.937 21.1915 12C21.1915 9.063 21.1805 8.715 21.1275 7.555C21.0785 6.482 20.8995 5.9 20.7485 5.512C20.5485 4.999 20.3115 4.632 19.9265 4.247C19.5714 3.88207 19.1392 3.60121 18.6615 3.425C18.2735 3.274 17.6915 3.095 16.6185 3.046ZM10.7685 15.391C11.5531 15.7176 12.4268 15.7617 13.2404 15.5157C14.0539 15.2697 14.7569 14.7489 15.2291 14.0422C15.7013 13.3356 15.9135 12.4869 15.8295 11.6411C15.7455 10.7953 15.3705 10.005 14.7685 9.405C14.3847 9.02148 13.9207 8.72781 13.4098 8.54515C12.8989 8.36248 12.3539 8.29536 11.814 8.34862C11.274 8.40187 10.7526 8.57418 10.2873 8.85313C9.82192 9.13208 9.42421 9.51074 9.12276 9.96185C8.82132 10.413 8.62365 10.9253 8.54398 11.462C8.4643 11.9986 8.50461 12.5463 8.662 13.0655C8.81939 13.5847 9.08994 14.0626 9.45418 14.4647C9.81842 14.8668 10.2673 15.1832 10.7685 15.391ZM8.17546 8.002C8.70049 7.47697 9.32378 7.0605 10.0098 6.77636C10.6957 6.49222 11.431 6.34597 12.1735 6.34597C12.916 6.34597 13.6512 6.49222 14.3372 6.77636C15.0231 7.0605 15.6464 7.47697 16.1715 8.002C16.6965 8.52702 17.113 9.15032 17.3971 9.8363C17.6812 10.5223 17.8275 11.2575 17.8275 12C17.8275 12.7425 17.6812 13.4777 17.3971 14.1637C17.113 14.8497 16.6965 15.473 16.1715 15.998C15.1111 17.0583 13.673 17.654 12.1735 17.654C10.6739 17.654 9.2358 17.0583 8.17546 15.998C7.11513 14.9377 6.51944 13.4995 6.51944 12C6.51944 10.5005 7.11513 9.06234 8.17546 8.002ZM19.0815 7.188C19.2116 7.06527 19.3157 6.91768 19.3878 6.75397C19.4598 6.59027 19.4983 6.41377 19.5009 6.23493C19.5035 6.05609 19.4702 5.87855 19.4029 5.71281C19.3357 5.54707 19.2359 5.39651 19.1094 5.27004C18.983 5.14357 18.8324 5.04376 18.6667 4.97652C18.5009 4.90928 18.3234 4.87598 18.1445 4.87858C17.9657 4.88119 17.7892 4.91965 17.6255 4.9917C17.4618 5.06374 17.3142 5.1679 17.1915 5.298C16.9528 5.55103 16.8221 5.88712 16.8272 6.23493C16.8322 6.58274 16.9727 6.91488 17.2186 7.16084C17.4646 7.40681 17.7967 7.54723 18.1445 7.5523C18.4923 7.55737 18.8284 7.42669 19.0815 7.188Z" fill="white"/>
</svg>
