<svg version="1.2" xmlns="http://www.w3.org/2000/svg" viewBox="0 0 3277 1680" width="3277" height="1680"><style>.a{fill:#fbecdb}.b{fill:#a8d29f}.c{fill:#4a75cb}.d{fill:#699dee}.e{fill:#d86713}.f{fill:#f1a34f}.g{fill:#c95c12}.h{fill:#82b378}.i{fill:#ffb973}.j{fill:#ed975d}.k{fill:#2b478b}.l{fill:#233862}.m{fill:#1e3d70}.n{fill:#ffb27d}.o{fill:#2c3a64}.p{fill:#4a82d3}.q{fill:#a9453d}.r{fill:#ee9849}.s{fill:#e58638}.t{fill:#2a4e96}.u{fill:#35488b}.v{fill:#2e3552}.w{fill:#4271bc}</style><path class="a" d="m164.5 1679.3c0 0-351.9-749.4 341.7-749.4 366.5 0 215.5-205.7 464.7-443.6 249.1-238 1120.5-428.1 1306 31.4 185.4 459.5-272.9 808.4 170 748.6 532.2-71.9 742.5 413 742.5 413z"/><path class="b" d="m3014.8 1584.2c-32.8-24-99.9-7.8-149.5 9.6-7.4-10.4-16.3-21.2-27.2-31.6 106.7-68.8 254.1-215.3 176-227.8-67.9-10.7-159.5 121.2-208.5 201.5-50.9-34.2-128.8-59.3-247.8-50.6-308.7 22.6-549.9-176.5-727.7-110.1-141.4 52.8-270.9 82.4-395.9 72.3 5.4-91.3 6.6-270.5-65.1-289.1-72.8-18.9-1.4 184.6 38.3 286.3q-14-1.8-27.9-4.3c-25.7-50.6-68-116.9-114.5-119.2-43.8-2.1 10.3 57.5 63.4 107.9-152.8-32-334 92.2-337 239h1907.5c0 0-3.3-21.4-18.3-49.7 73.7-1.4 169.9-8.1 134.2-34.2z"/><path class="c" d="m904.7 1554.6v113.6h502.8v-113.6z"/><path class="d" d="m749.7 1554.6v113.6h502.7v-113.6z"/><path class="e" d="m1605.3 1668.1h374.3v-523.2h-374.3z"/><path class="f" d="m1489.8 1668.1h374.4v-523.2h-374.4z"/><path class="g" d="m1864.2 1144.9l115.4 78.5v-78.5z"/><path class="h" d="m708.6 1260.8c0 0-70.1 52-83.7 48.9-13.7-3.2 51.2-56.2 51.2-56.2-24.4-11.8-100.2-4.4-100.2-4.4 0 0-25.3 81.4-37.8 75-12.4-6.4 26.1-70.9 26.1-70.9-27.2-1.7-60.5 18.5-60.5 18.5-45.6 36 3 92.7 3 92.7 0 0-9.4 28.1-38.2 53.6 0 0-41.1 30.4-44 84.8l7.5 0.6c0 0 11.8-50.6 33.3-74.5 0.9-0.9 2.1-2.2 3.6-3.7 3.5-3.2 6-5.7 7.6-7.5 10.7-10.2 25.5-23.4 32.6-24.6 0 0-0.3-1.3-0.3-3.6q0.2 1.7 0.3 3.6c2.5 28.6 58.1 53.7 92.3 58.8 34.2 5.2 23.6-8.9 11.8-29.7-11.7-20.9-49-30.2-57.6-39.8-8.5-9.6 9.1-9.6 29.7-0.2 20.7 9.4 23.5 34.5 56.5 50.3 33.1 15.8 82.9-39 82.9-39-26.4-1.4-64-30-62.7-38.7 1.4-8.8 63.9 15.1 74.6 16.2 10.7 1.2 35-12.1 38.8-55.2 3.7-43-66.8-55-66.8-55z"/><path class="b" d="m336.7 1293.1c0 0 77.4-43.3 41.3-102.1 0 0-28.9-36.1-59.8-45.3 0 0 16.5 87.6 0 89.7-16.5 2-11.4-99-11.4-99 0 0-81.4-39.2-113.4-36.1 0 0 50.5 85.6 34 83.5-16.4-2.1-73.2-88.7-73.2-88.7 0 0-83.5-15.4-96.9 34.1-13.4 49.5 8.3 74.2 20.7 77.3 12.3 3.1 91.7 2.1 89.7 12.4-2.1 10.3-55.7 26.8-85.6 17.5 0 0 33 81.4 76.3 77.3 43.3-4.1 56.7-30.9 83.5-33 26.8-2 46.4 5.2 33 12.4-13.4 7.2-58.8 2.4-80.4 20.8-21.7 18.4-39.2 29.7 1 38 40.2 8.2 112.4 3.1 126.8-27.9 14.4-30.9 14.4-30.9 14.4-30.9z"/><path class="h" d="m357.4 1368.4c-21.7-40.2-20.7-75.3-20.7-75.3-24.7-78.4-241.2-148.5-241.2-148.5 275.3 111.4 226.8 179.4 226.8 179.4 7.4 4.4 18.5 25 26.3 40.8 1.1 2.7 2.8 6.4 5.4 11.5 1 2.3 1.9 4.2 2.5 5.5 14.1 35.4 6.6 96.7 6.6 96.7l8.6 2.3c19-61.7-14.3-112.4-14.3-112.4z"/><path class="b" d="m459.8 1233.4c0 0-102-57.1-54.4-134.6 0 0 38.1-47.5 78.8-59.8 0 0-21.7 115.5 0 118.3 21.8 2.7 15-130.5 15-130.5 0 0 107.3-51.7 149.5-47.6 0 0-66.6 112.8-44.9 110.1 21.8-2.7 96.5-116.9 96.5-116.9 0 0 110.1-20.4 127.8 44.9 17.6 65.2-10.9 97.8-27.2 101.9-16.3 4.1-121 2.7-118.3 16.3 2.8 13.6 73.4 35.4 112.9 23.1 0 0-43.5 107.4-100.6 102-57.1-5.5-74.8-40.8-110.1-43.5-35.3-2.8-61.2 6.8-43.5 16.3 17.7 9.5 77.5 3.1 106 27.4 28.6 24.2 51.7 39.2-1.3 50-53.1 10.9-148.2 4.1-167.2-36.7-19-40.7-19-40.7-19-40.7z"/><path class="h" d="m777.8 1037.7c0 0-285.4 92.4-318 195.7 0 0 1.3 46.2-27.2 99.2 0 0-44 66.8-18.9 148.2l11.3-3.1c0 0-9.9-80.7 8.8-127.4 0.7-1.8 1.8-4.2 3.2-7.2 3.4-6.7 5.7-11.6 7.2-15.2 10.1-20.8 24.8-48 34.6-53.8 0 0-63.9-89.7 299-236.4z"/><path class="f" d="m456.3 1657.2c110.3 0 199.7-89.4 199.7-199.6h-399.3c0 110.2 89.4 199.6 199.6 199.6z"/><path class="i" d="m505.5 1655.7q-12.2 1.5-24.9 1.5c-110.2 0-199.6-89.4-199.6-199.6h49.6c0 101.8 76.3 185.9 174.9 198.1z"/><path class="f" d="m634.1 1643.5h-355.6c-13.6 0-24.6 11-24.6 24.6h404.8c0-13.6-11-24.6-24.6-24.6z"/><path class="e" d="m657.5 1457.6h-404.3c-1.7 0-3.1 1.3-3.1 3 0 1.7 1.4 3.1 3.1 3.1h404.3c1.7 0 3-1.4 3-3.1 0-1.7-1.3-3-3-3z"/><path class="j" d="m2198.2 406.1c-5.8-0.8-23.2 15.3-23.2 15.3-37.3 4.3-91.7 14.2-111.3 17.9-13.9 2.7-51.3-10-87.8-24.7-43.4-17.4-85.5-37.4-85.5-37.4-24.1-1.3-51.5 42.7-2.6 70.6 7.4 4.3 35.4 11.6 67.7 18.2q0 0 0 0c44.5 9.2 97.1 17.1 115 14.4 20.8-3.3 79.6-24.8 114.6-41.3q0 0 0.1-0.1 0.2-0.1 0.4-0.1c2.1-1 10.7-4.8 16.4-4.5 6.6 0.4 21.2-11.6 21.6-14.8 0.5-3.2-19.6-12.6-25.4-13.5z"/><path class="k" d="m2152.7 959.7l-20.5 4.2c0 0-93.8-105.4-108.3-149.8-7.7-23.7-57.2-33.9-109-47.3-45.1-11.7-91.8-25.7-114.2-53.1-47.9-58.8 30.2-131.1 30.2-131.1 0 0 83.1 49.3 154.7 100.3 50.1 35.7 94.6 72.1 101.3 93.1 16.3 50.9 50.9 147.7 65.8 183.7z"/><path class="l" d="m2125.3 994.5h11.5c3.9-0.6 6.8-1.7 10.7-2.2 6-0.8 8.8 1.6 9.3 2.2q0.2 0.1 0.2 0.1h48.9c1.3-1.7 0.1-5.8-1.1-8.8-0.7-2-2.4-3.6-4.5-4.2-5.2-1.5-15.5-2.8-24.9-11.3-5.2-4.8-25.4-17.6-25.4-17.6h-0.2c-0.4 0-2.5 0.7-11.7 8.4-4.8 4-12.8-5.6-12.8-5.6 0 0-1.6 1.2-2.7 3.6-0.9 1.8-1.6 4.4-1.1 7.5 0.8 4.4-1.6 12.6-3.5 18.2-1.1 3.3-2.1 5.7-2.1 5.7 0 0-0.5 2.8 9.4 4z"/><path class="m" d="m1985.6 682.9l-70.7 83.9c-45.1-11.7-91.8-25.7-114.2-53.1-47.9-58.8 30.2-131.1 30.2-131.1 0 0 83.1 49.3 154.7 100.3z"/><path class="k" d="m1921.3 639.1c0 0-5.7 18-14.9 45.1-11.8 34.2-29.3 82.9-48.2 128.1-4.2 9.9-8.4 19.6-12.7 29-15.8 34.8-31.9 64.6-46.1 79.7-25.6 27.3-87.7 202.3-87.7 202.3l-15.4-4.3c0 0-21.6-149.5 54.8-234.5 0.8-0.9 1.5-1.9 1.5-3.2q0.1 0 0.1 0c1-12.6 4.6-68.9 12.5-126.1 2-14 4.2-28 6.6-41.5q0.3-1.3 0.5-2.6c11.6-62.2 22.8-89.9 37.1-103.8l105.7 30.1z"/><path class="l" d="m1694.5 1144.7h11.6c3.8-0.6 6.7-1.7 10.6-2.2 6.1-0.8 8.8 1.7 9.4 2.2q0.1 0.2 0.1 0.2h49c1.2-1.8 0-5.9-1.1-8.9-0.8-2-2.5-3.6-4.6-4.2-5.2-1.5-15.5-2.8-24.8-11.3-5.3-4.8-25.5-17.5-25.5-17.5l-0.1-0.1c-0.5 0-2.6 0.7-11.8 8.5-4.7 4-12.8-5.7-12.8-5.7 0 0-1.5 1.3-2.7 3.6-0.9 1.9-1.6 4.4-1 7.5 0.7 4.4-1.7 12.6-3.5 18.2-1.2 3.4-2.1 5.7-2.1 5.7 0 0-0.6 2.8 9.3 4z"/><path class="n" d="m1717.2 435.9c0 0-17.7 43.3-38.1 85.4-17.1 35.3-36.2 69.9-48.2 77.3-17.1 10.4-64 39.7-94.4 61.6 0 0-23.8-0.1-27.5 4.4-3.6 4.5-12.2 25-9.7 27 2.5 2.1 21.4 1.1 26-3.6 4-4.1 12.9-7 15.1-7.7q0.2-0.1 0.4-0.1 0.1 0 0.1 0c37-11.4 95-35.1 112.6-46.7 15.1-10 48.6-51.3 75.3-88q0 0 0 0c19.4-26.7 35.2-50.9 37.9-59.1 17.3-53.5-32.5-67.6-49.5-50.5z"/><path class="o" d="m1809.6 266.3c-2.1-3-4.2-5.7-6.3-8.1 2.6 0 5.5-0.2 7.8-1.2 6.2-2.6 9-22.3 8.1-28.1-0.9-5.9-9.5-22.8-20.2-24.4-10.6-1.7-21.6 10.1-21.6 10.1 2-8.5 20-13.5 20-13.5-37.1 6.9-35.2 31.6-34.9 33.9-33.9-12.1-53.8 51.7-53.8 51.7l87.8 51.8c0 0 0.2-14.1 8.6-13.2 13.1 1.4 23.9-30.7 4.5-59z"/><path class="n" d="m1815.2 400.3c-20.1 9.5-46.9-4.2-46.7-4.3 1.7-1.7 1.1-6.9-0.5-13.7-1.6-7-5.3-16.7-12.2-28.2-1.5-2.4-2.9-4.9-4.6-7.5l2.3-0.8 39.1-15.7c0 0 6.4 11.3 13 21.7 5.6 8.6 11.5 16.4 14.1 16.1 0.1-0.1 26 17.7-4.5 32.4z"/><path class="j" d="m1792.6 334c-1 13.9-5.7 39.1-24.6 48.3-1.6-7-5.3-16.7-12.2-28.2z"/><path class="n" d="m1753.5 370c0 0 51-20.1 38-51.6-13-31.6-15.2-55.4-48.3-43.9-33.1 11.5-34.4 26.1-32.7 37.7 1.8 11.6 29.4 62.2 43 57.8z"/><path class="o" d="m1772.5 311.2c23.5-3.4 30.4-12.9 30.4-12.9 0 0-21.7-6.2-34.4-27.4 0 0-26.5-8.9-46.1 6-1.2 1.5-2 3.4-2.4 5.5-4.5-1.5-11.3-1.1-15.2 11.6-5.8 19.1 15 39.9 15 39.9 5-1.4-0.7-18.4-1.5-27.5-0.5-6.7 3.1-15.2 5-19.3 2.5 3.3 27.3 34.5 57.6 35.7 0 0-16-5.5-30.5-16.4 7.2 3.6 14.9 5.8 22.1 4.8z"/><path class="d" d="m1912.3 465.3q-0.7-2.3-1.4-4.7c7.6-14.5 11.3-27.5 12.9-38.5 3.4-23.4-2.5-37.8-2.5-37.8 0 0-35.3-18.7-51-21.1q-0.1 0-0.1-0.1-0.3 0-0.7 0c-15.7-2.2-49.9 4.8-49.9 4.8 0 0 6.6 17.5-11.9 29.2-18.6 11.7-38.4-3-38.4-3q-0.9 0.6-1.9 1.3 0 0 0 0c0 0-48.9 32.2-53.3 39.6-4.4 7.4-23.1 43.8-23.1 43.8 0 0 5.9 30.7 71.9 33.2 5.4 13.2 9.6 26 10.9 36.7 5.3 41.6-0.8 74.4 5.3 98.6 6.1 24.3 116.2 10.5 136.2 5.8 19.9-4.7 15.4-26 17-46.7 1.9-26-13.5-118.1-20-141.1z"/><path class="p" d="m1923.8 422.1c-1.6 11-5.4 24.1-13 38.7-1.7-7.7-8.8-35.6-20.1-48.3 0 0 19.1 1.8 33.1 9.6z"/><path class="j" d="m1475.4 694.5c0 0 20.5-24.9 24.9-27.8 4.4-3 23.8-8.1 24.9-7.1 1.1 1 1.2 2.5-1.2 4.7-2.4 2.1-11.6 7.4-10.3 8 1.3 0.6 29-13.1 33-8.5 4 4.6-2.3 23.7-12.9 32.9-10.7 9.2-42.5 13.1-44.5 14.3-17 10.9-13.9-16.5-13.9-16.5z"/><path class="n" d="m1114.2 637c0 0 29.5 35 67 20.4 0 0 8.1-19.5 8.2-33.9q0-2.7 0.1-5.2c0.2-16.2 0.7-25.3 0.7-25.3q0 0 0 0c-1.7-0.7-57.4-23.5-57.4-21.6 1 43.8-18.6 65.6-18.6 65.6z"/><path class="j" d="m1138.4 581.8c5.4 10 23.8 29.4 51.1 36.5 0.2-16.2 0.7-25.3 0.7-25.3q0 0 0 0c-1.6-0.4-53.4-14.1-51.8-11.2z"/><path class="n" d="m1201.9 591.4c0 0-62.6 14.7-71.2-24.5-8.6-39.1-22.4-63.5 17.2-74.6 39.6-11 50.7 2.2 56.7 14.6 6 12.3 13.3 79.6-2.7 84.5z"/><path class="q" d="m1132.8 577.6c-0.8 0.6-14.3 4.7-39.8-46.1-4-8-6.7-25.3 2.6-40.5 9.3-15.3 42.4-27.3 69.9-32.5 27.5-5.2 34.1 10.3 40.6 25.8 6.8 16.4 26.4 29.8 26.4 29.8-23.7 13.3-52.2-5.7-62.1-2.6-9.9 3.1-13.4 18.7-14.2 23.7-0.7 5-1.8 9.2-14.3 4.7-12.4-4.4-5.6 17.7-3.6 21.9 0 0 1.7 11.2-5.5 15.8z"/><path class="o" d="m971.6 1554.6h-37.9c-8 0-16.8-8-19-22.8-2.2-14.8-18.6-22.8-22.1-34.9-3.6-12.1 14.6-29.1 14.6-29.1l3-4 3.1-4.1 30.1 7.2c0 0 0.7 7.2 1.2 16.5 0.3 6.6 0.5 14.3 0.1 21.1-0.9 16.1 4.4 33.5 18.6 36.6 14.1 3.1 8.3 13.5 8.3 13.5z"/><path class="o" d="m1235.5 1555h-100.5q-1.5-0.3-2.2-0.6c-6.7-3.5-4.6-30-3.8-38.1 0.2-1.5 0.3-2.4 0.3-2.4 0 0 35.3-29.1 40.2-6.8q0.2 1 0.5 2c6.2 20.9 33.6 30.3 49.4 33 12.1 2 15.3 9.3 16.1 12.9z"/><path class="r" d="m1215.2 973.9c0 0-5.4 67-11.7 147.4-8.5 109.4-18.8 243.7-19.9 269.1-1.7 44.2-8.8 114.8-8.8 114.8 0 0-16.8 16.8-50.4 9.7 0 0-29.9-100.8-38.4-207.6q-0.2-2.6-0.4-5.2c-8-108.7-20.3-337.5-20.3-337.5z"/><path class="s" d="m1215.2 973.9c0 0-5.4 67-11.7 147.4l-117.5 186q-0.2-2.6-0.4-5.2c-8-108.7-20.3-337.5-20.3-337.5z"/><path class="r" d="m1190.7 981.9c0 0-96.7 242.4-160.3 356.4-63.6 113.9-83.5 145.7-83.5 145.7 0 0-36.4-14.5-39.7-24.5 0 0 24.3-220 66.9-273.6 24-30.3 52.3-121.2 53.6-153 1.4-31.8 8.6-94.8 8.6-94.8z"/><path class="j" d="m969.2 941.5c0 0-2.5 30.3-4.3 34.9-1.8 4.7-14.1 19.1-15.5 18.9-1.4-0.2-2.2-1.4-1.5-4.3 0.7-2.9 4.9-12 3.6-11.8-1.4 0.3-15.4 25.8-20.9 24.4-5.6-1.5-11.1-19.6-7.7-32.5 3.3-12.8 25.8-32.9 26.7-35 7.2-17.5 19.6 5.4 19.6 5.4z"/><path class="m" d="m958.9 949.2c10.7 3.4 12.4 2.6 12.4 2.6 0 0 52.1-94.8 57.4-103.5 5.2-8.7 110.6-106.4 110.6-106.4l-27.1-101c0 0-119.8 155.2-132.7 177.5-21.4 36.8-34 122.2-34 122.2 0 0 5 5.9 13.4 8.6z"/><path class="t" d="m1235.6 781.5c-0.4 20.8-1.6 44.1-3.2 67.7q-0.1 2.1-0.3 4.3c-1 14.6-2.1 29.3-3.4 43.7q-0.8 8.6-1.7 17l-0.1 0.7c0 2.1-0.3 4.4-0.5 6.4-5.3 53.7-10.8 96.1-11.9 96.8-1.2 0.8-2.6 1.2-4.1 1-14.1-1.7-56.1 1.5-90.5-6-29-6.1-54-17.7-80.4-33.4-3.6-2.1-11.6-7.6-10.9-11.7 0.6-4.5 1.8-11 3.3-19.2 5.2-28.6 14.2-77.7 17.3-135.2q0.9-16.1 2.6-31.7c2.9-27.1 7.7-52.8 14-75.7 11.8-42.4 29.1-75 50.9-87.7 2.8-1.6 18.1 8.2 32.1 17.2 13 8.3 26.7 10.6 39.9 9.4l11.7 12.9c14.2 16.5 29.2 38.4 33.3 69.5q0.5 3.4 0.8 7.3c1.2 12.7 1.4 28.8 1.1 46.7z"/><path class="m" d="m1235.6 781.5c-0.4 20.8-1.6 44.1-3.2 67.7q-0.1 2.1-0.3 4.3c-80.4-50.4-92.8-142.5-92.8-142.5 39.6 1.7 71 10.8 95.2 23.8 1.2 12.7 1.4 28.8 1.1 46.7z"/><path class="t" d="m1487.6 696.9c-4.1-11.2-10.6-10.4-10.6-10.4 0 0-119.6 29.8-130.3 31-10.7 1.3-128.8-46.1-128.8-46.1 0 0-46.4-20.8-68.2-1.8-18.9 16.6-19.8 37.5-15.3 55.1 5.2 21 23 36.5 44.4 39.2 48.2 6.2 144.3 17.7 164.4 14.9 44.8-6.2 146.4-64.8 146.4-64.8 0 0 1.3-8.2-2-17.1z"/><path class="o" d="m2666.7 916.1c0 0 16.6 15.4 13.4 26.4-3.3 10.9-18.2 18.2-20.3 31.6-2 13.3-10.1 20.6-17.4 20.6-7.3 0-34.8 0-34.8 0 0 0-5.3-9.4 7.6-12.2 13-2.9 17.9-18.6 17.1-33.2-0.8-14.5 1.2-34 1.2-34l27.5-6.5z"/><path class="o" d="m2459.7 992.9c-1.7 0.9-7.6 1.4-15.8 1.8h-78.6c0.3-2.3 2.1-10.6 14.9-12.7 14.6-2.4 39.7-10.8 45.3-29.4q0.3-0.9 0.5-1.8c4.5-19.9 36.9 6 36.9 6 0 0 0.1 0.8 0.2 2.2 0.8 7.3 2.7 30.8-3.4 33.9z"/><path class="u" d="m2384.1 461.9c0 0 4.9 61.4 10.7 135.2 7.9 100.3 17.3 223.5 18.3 246.9 1.6 40.5 8.1 105.3 8.1 105.3 0 0 15.4 15.4 46.2 8.9 0 0 27.4-92.5 35.3-190.4q0.1-2.4 0.3-4.9c7.3-99.7 18.7-309.6 18.7-309.6z"/><path class="o" d="m2384.1 461.9c0 0 4.9 61.4 10.7 135.2l107.9 170.7q0.1-2.4 0.3-4.9c7.3-99.7 18.7-309.6 18.7-309.6z"/><path class="u" d="m2406.6 469.1c0 0 88.7 222.5 147.1 327 58.3 104.6 76.5 133.8 76.5 133.8 0 0 33.5-13.4 36.5-22.5 0 0-22.3-201.9-61.4-251-22.1-27.8-48-111.3-49.2-140.5-1.2-29.1-7.9-86.9-7.9-86.9z"/><path class="n" d="m2132.9 348.5c0 0-24.1-5.5-28.2-5.2-4 0.2-18.2 6.2-18.4 7.3-0.2 1.2 0.5 2.1 3 2.3 2.4 0.1 10.5-0.9 10 0.1-0.5 1-23.8 5.5-24 10.2-0.3 4.7 12.4 13.3 23.2 13.9 10.7 0.6 31.9-11.9 33.7-12 15.3-1.4 0.7-16.6 0.7-16.6z"/><path class="s" d="m2122.6 354.6c-3.5-11-2.7-12.7-2.7-12.7 0 0 97.6-52.8 106.5-58.1 9-5.4 109.8-112.7 109.8-112.7l103.3 28.4c0 0-159.9 121.8-182.8 134.9-37.8 21.6-125.5 33.9-125.5 33.9 0 0-5.9-5.1-8.6-13.7z"/><path class="n" d="m2367.5 118.9c0 0-36.2 63.7-71.6 72.1 0 0 1.5-21.4 10.1-36.1-3.5-4.1-6.6-8-9.3-11.4-8.9-11.4-13.2-18.4-13.2-18.4l12-32.3 8.2-21.9c3.9 7.1 8.2 13.2 12.7 18.4 23.2 26.6 51.1 29.6 51.1 29.6z"/><path class="j" d="m2316.4 89.3c0 0 4.3 31.9-19.7 54.2-8.9-11.4-13.2-18.4-13.2-18.4l12-32.3c12.9-3.9 20.9-3.5 20.9-3.5z"/><path class="n" d="m2274 129.8c0 0 54.1-21.1 40.4-54.6-13.6-33.4-15.8-58.7-51-46.7-35.1 12.1-36.5 27.6-34.7 39.9 1.8 12.2 30.9 66 45.3 61.4z"/><path class="r" d="m2553.4 445.8c-21.8 31.4-184.9 73.3-183 51.6 0.7-8.3 1.7-22.9 0-42.8q-0.6-7-1.8-14.8c-4.1-28.5-14-65.2-35.9-107.7q-2.5-4.8-5.2-9.6c-9-16.5-16.7-33.9-22.6-50.9-11.3-32.6-15.8-63.9-10.1-84.3q0-0.2 0.1-0.3c34.1-15.8 47.3-77 47.3-77 0 0 116.3 20.9 181.5 176 0 0 48.7 132.5 29.7 159.8z"/><path class="s" d="m2370.4 454.6q-0.6-7-1.8-14.8c-4.1-28.5-14-65.2-35.9-107.7 3.7-22.9 9-41.9 14.7-50.4 23.2-34.8 36.7-40.2 36.7-40.2 0 0 34.8 146.7-13.7 213.1z"/><path class="n" d="m2186.9 419.7c0 0-32.1 1.7-37.1 3.5-5 1.8-20.7 14.3-20.5 15.8 0.2 1.5 1.3 2.4 4.5 1.7 3.1-0.6 12.8-4.8 12.6-3.4-0.3 1.4-27.9 15.4-26.5 21.4 1.3 6 20.4 12.3 34.1 9.2 13.7-3.1 35.8-26.3 38-27.2 18.8-7.2-5.1-21-5.1-21z"/><path class="r" d="m2180.9 431.9c-6.5-10.4-1.8-15.2-1.8-15.2 0 0 99.4-77.9 107.2-85.7 7.8-7.9 43.9-133.1 43.9-133.1 0 0 12.4-50.7 41.5-56.3 25.3-4.9 42.8 7.7 54.2 22.3 13.7 17.5 15 41.6 3.7 60.7-25.4 42.8-76.6 127.7-91.6 142.2-33.3 32.3-144.6 77.4-144.6 77.4 0 0-7.5-4.1-12.5-12.3z"/><path class="k" d="m2322.2 13c0.4-0.7 1.5-1.5 4.2-2.3 0 0-2.6-0.9-5.5-0.2-1.5-3.7-5.2-10.1-12.1-10.1 0 0 3.9 1 5.4 5-9.5-6-27.1-7.8-71 6.9-57.8 19.2-28.9 52.8-20.2 55.5 8.8 2.7 25-14.6 39.5-16.9 14.5-2.4 22.4 17.8 27.9 19.5 5.5 1.7 2.4-2.9 8.2-7.5 5.8-4.6 9.1 6.2 9 13.8-0.1 7.7 11.2 14.9 11.2 14.9 0 0 0 0 6.6-12.2 6.6-12.1 4.8-56.3-1.5-64.2q-0.9-1.1-1.7-2.2z"/><path class="v" d="m3273.5 1679.8h-3269.2c-1.9 0-3.4-1.5-3.4-3.4v-4.8c0-1.9 1.5-3.5 3.4-3.5h3269.2c1.9 0 3.5 1.6 3.5 3.5v4.8c0 1.9-1.6 3.4-3.5 3.4z"/><path class="w" d="m1407.5 1553.3v65.5l-155.1-65.5z"/><path class="c" d="m2221.5 994.7v673.4h512.7v-673.4z"/><path class="d" d="m2063.4 994.7v673.4h512.7v-673.4z"/><path class="w" d="m2734.2 994.7v100.7l-158.1-100.7z"/></svg>