<svg width="25" height="24" viewBox="0 0 25 24" fill="none" xmlns="http://www.w3.org/2000/svg">
<path d="M23.8165 4.93708C22.9815 5.30708 22.0845 5.55708 21.1415 5.67008C22.1145 5.08787 22.8424 4.17154 23.1895 3.09208C22.2753 3.63507 21.2748 4.01727 20.2315 4.22208C19.5299 3.47294 18.6005 2.9764 17.5878 2.80955C16.5751 2.6427 15.5356 2.81487 14.6307 3.29933C13.7259 3.78379 13.0062 4.55344 12.5836 5.48878C12.161 6.42412 12.059 7.47283 12.2935 8.47208C10.4412 8.37907 8.6291 7.89763 6.9749 7.05898C5.32069 6.22034 3.86131 5.04324 2.69147 3.60408C2.29147 4.29408 2.06147 5.09408 2.06147 5.94608C2.06103 6.71307 2.24991 7.46832 2.61135 8.14481C2.9728 8.8213 3.49564 9.39812 4.13347 9.82408C3.39375 9.80054 2.67035 9.60066 2.02347 9.24108V9.30108C2.0234 10.3768 2.39551 11.4195 3.07666 12.2521C3.75781 13.0847 4.70605 13.656 5.76047 13.8691C5.07426 14.0548 4.35481 14.0821 3.65647 13.9491C3.95397 14.8747 4.53347 15.6841 5.31384 16.264C6.09421 16.8439 7.03639 17.1653 8.00847 17.1831C6.35831 18.4785 4.32036 19.1812 2.22247 19.1781C1.85085 19.1782 1.47955 19.1565 1.11047 19.1131C3.23995 20.4823 5.71881 21.2089 8.25047 21.2061C16.8205 21.2061 21.5055 14.1081 21.5055 7.95208C21.5055 7.75208 21.5005 7.55008 21.4915 7.35008C22.4028 6.69105 23.1894 5.87497 23.8145 4.94008L23.8165 4.93708Z" fill="white"/>
</svg>
