<svg width="50" height="50" viewBox="0 0 50 50" fill="none" xmlns="http://www.w3.org/2000/svg">
<g clip-path="url(#clip0_2975_903)">
<path d="M46.4844 15.5515H3.59375C2.26562 18.4421 1.5625 21.6452 1.5625 25.0046C1.5625 28.364 2.26562 31.5671 3.59375 34.4577H46.4063C47.7344 31.5671 48.4375 28.364 48.4375 25.0046C48.4375 21.6452 47.7344 18.4421 46.4844 15.5515Z" fill="#6AB0E5"/>
<path d="M8.04688 29.3796L5.3125 20.6296H7.57812L9.21875 26.4108L10.7031 20.6296H12.9688L14.4531 26.4108L16.1719 20.6296H18.4375L15.625 29.4577H13.3594L11.875 23.8327L10.3906 29.4577C10.3125 29.3796 8.04688 29.3796 8.04688 29.3796ZM21.25 29.3796L18.4375 20.5515H20.7031L22.3437 26.3327L23.8281 20.5515H26.0938L27.5781 26.3327L29.2969 20.5515H31.5625L28.75 29.3796H26.5625L25 23.7546L23.5156 29.3796H21.25ZM34.4531 29.3796L31.6406 20.5515H33.9063L35.5469 26.3327L37.0313 20.5515H39.2969L40.7813 26.3327L42.5 20.5515H44.7656L41.9531 29.3796H39.6875L38.2031 23.7546L36.7188 29.3796H34.4531Z" fill="#043070"/>
<path d="M50 25.0046C50 11.1765 38.8281 0.00457764 25 0.00457764C11.1719 0.00457764 0 11.1765 0 25.0046C0 37.1921 8.75 47.3483 20.3125 49.5358L20.3141 49.5374C20.9672 49.6624 21.9 49.8194 22.9031 49.914C23.4578 49.9585 24.0164 49.985 24.5766 49.9952C24.6516 49.9952 24.7266 49.996 24.8008 49.9944C26.6945 49.9561 29.168 49.5429 29.9453 49.4054C41.3789 47.1921 50 37.1007 50 25.0046ZM45.7031 13.989H41.875C39.5312 8.91083 36.0938 5.31708 33.3594 3.12958C38.6719 5.16083 43.0469 9.06708 45.7031 13.989ZM28.9844 1.87958C29.6875 2.2702 36.4063 6.25458 40.1563 13.989H31.3281C29.9219 8.12958 27.8125 3.67645 26.7188 1.6452C27.5 1.72333 28.2812 1.80145 28.9844 1.87958ZM29.7656 13.989H20.3125C21.875 7.66083 24.2188 3.12958 25 1.72333C25.7812 3.12958 28.125 7.66083 29.7656 13.989ZM23.2812 1.6452C22.1875 3.67645 20.0781 8.12958 18.6719 13.989H9.84375C13.5938 6.25458 20.3906 2.2702 21.0156 1.87958C21.7187 1.80145 22.5 1.72333 23.2812 1.6452ZM16.6406 3.12958C13.9844 5.31708 10.4688 8.91083 8.20312 13.989H4.29688C6.95313 9.06708 11.3281 5.16083 16.6406 3.12958ZM1.5625 25.0046C1.5625 21.6452 2.26562 18.4421 3.59375 15.5515H46.4844C47.7344 18.4421 48.4375 21.6452 48.4375 25.0046C48.4375 28.364 47.7344 31.5671 46.4063 34.4577H3.59375C2.26562 31.5671 1.5625 28.364 1.5625 25.0046ZM4.29688 36.0202H8.04688C10.3125 41.0202 13.6719 44.614 16.4062 46.8015C11.25 44.7702 6.95313 40.864 4.29688 36.0202ZM20.7813 48.0515C19.375 47.1921 13.2812 43.2858 9.76562 36.0202H18.3594C19.2969 40.0827 20.8594 44.2233 23.2812 48.364C22.5 48.2858 21.6406 48.2077 20.7813 48.0515ZM20 36.0202H30C29.0625 40.0046 27.4219 44.0671 25 48.1296C22.5781 43.989 20.9375 39.9265 20 36.0202ZM26.6406 48.364C29.0625 44.2233 30.625 40.0046 31.5625 36.0202H40.1563C36.7188 43.2858 30.5469 47.2702 29.2188 48.0515C28.3594 48.2077 27.5 48.2858 26.6406 48.364ZM33.5938 46.8015C36.25 44.5358 39.6875 41.0202 41.9531 36.0202H45.7031C43.0469 40.864 38.75 44.7702 33.5938 46.8015Z" fill="#043070"/>
</g>
<defs>
<clipPath id="clip0_2975_903">
<rect width="50" height="50" fill="white"/>
</clipPath>
</defs>
</svg>
