<svg width="50" height="50" viewBox="0 0 50 50" fill="none" xmlns="http://www.w3.org/2000/svg">
<path d="M39.4226 14.4186C41.4083 13.9426 42.6322 11.947 42.1562 9.9613C41.6802 7.97561 39.6846 6.75176 37.6989 7.22774C35.7132 7.70373 34.4894 9.69932 34.9654 11.685C35.4414 13.6707 37.4369 14.8946 39.4226 14.4186Z" fill="white"/>
<path fill-rule="evenodd" clip-rule="evenodd" d="M38.5613 14.5215C39.7298 14.5215 40.8869 14.7516 41.9666 15.1988C43.0462 15.646 44.0271 16.3014 44.8534 17.1277C45.6797 17.954 46.3352 18.935 46.7824 20.0146C47.2296 21.0942 47.4597 22.2513 47.4597 23.4198H29.6628C29.6628 22.2513 29.893 21.0942 30.3402 20.0146C30.7874 18.935 31.4428 17.954 32.2691 17.1277C33.0954 16.3014 34.0764 15.646 35.156 15.1988C36.2356 14.7516 37.3927 14.5215 38.5613 14.5215ZM20.7644 14.5215C19.5958 14.5215 18.4387 14.7516 17.3591 15.1988C16.2795 15.646 15.2986 16.3014 14.4723 17.1277C13.646 17.954 12.9905 18.935 12.5433 20.0146C12.0961 21.0942 11.866 22.2513 11.866 23.4198H29.6628C29.6628 22.2513 29.4327 21.0942 28.9855 20.0146C28.5383 18.935 27.8828 17.954 27.0565 17.1277C26.2302 16.3014 25.2493 15.646 24.1697 15.1988C23.0901 14.7516 21.933 14.5215 20.7644 14.5215Z" fill="#6AB0E5"/>
<path d="M21.626 14.4191C23.6117 13.9431 24.8355 11.9475 24.3596 9.96179C23.8836 7.9761 21.888 6.75224 19.9023 7.22823C17.9166 7.70422 16.6928 9.69981 17.1687 11.6855C17.6447 13.6712 19.6403 14.895 21.626 14.4191Z" fill="white"/>
<path fill-rule="evenodd" clip-rule="evenodd" d="M29.6628 11.4387C30.3941 11.4387 31.1089 11.6556 31.7169 12.0618C32.3249 12.4681 32.7988 13.0455 33.0787 13.7211C33.3585 14.3967 33.4317 15.1401 33.2891 15.8573C33.1464 16.5745 32.7943 17.2333 32.2772 17.7503C31.7601 18.2674 31.1013 18.6195 30.3841 18.7622C29.6669 18.9049 28.9235 18.8317 28.248 18.5518C27.5724 18.272 26.9949 17.7981 26.5887 17.1901C26.1824 16.5821 25.9656 15.8672 25.9656 15.136C25.9656 14.1554 26.3551 13.215 27.0485 12.5216C27.7419 11.8283 28.6823 11.4387 29.6628 11.4387Z" fill="white"/>
<path fill-rule="evenodd" clip-rule="evenodd" d="M29.6628 18.8333C30.8314 18.8333 31.9885 19.0634 33.0681 19.5106C34.1477 19.9578 35.1287 20.6132 35.955 21.4395C36.7813 22.2658 37.4367 23.2468 37.8839 24.3264C38.3311 25.406 38.5613 26.5631 38.5613 27.7317H20.7644C20.7644 25.3717 21.7019 23.1083 23.3707 21.4395C25.0395 19.7708 27.3028 18.8333 29.6628 18.8333Z" fill="white"/>
<path d="M29.6627 9.23735C31.5121 9.23735 33.0113 7.73816 33.0113 5.88882C33.0113 4.03947 31.5121 2.54028 29.6627 2.54028C27.8134 2.54028 26.3142 4.03947 26.3142 5.88882C26.3142 7.73816 27.8134 9.23735 29.6627 9.23735Z" fill="white"/>
<path fill-rule="evenodd" clip-rule="evenodd" d="M3.6034 33.2463L6.25751 31.9578C6.70952 31.74 7.22935 31.7099 7.70346 31.8741C8.17757 32.0384 8.56743 32.3835 8.78788 32.8342L13.9434 43.4543C14.1613 43.9063 14.1914 44.4261 14.0271 44.9002C13.8629 45.3744 13.5177 45.7642 13.067 45.9846L10.4129 47.2731C9.96085 47.491 9.44097 47.5211 8.96683 47.3568C8.49269 47.1926 8.10282 46.8473 7.88241 46.3966L2.72684 35.7766C2.50902 35.3246 2.47895 34.8048 2.64319 34.3306C2.80744 33.8565 3.15265 33.4667 3.6034 33.2463Z" fill="#6AB0E5"/>
<path fill-rule="evenodd" clip-rule="evenodd" d="M28.0825 35.3006C33.2511 36.5034 38.3237 30.5398 42.8383 28.0522C45.7905 26.7087 49.2446 29.6921 46.396 32.5411C46.396 32.5411 42.561 35.8935 33.8636 41.1289C30.8282 42.956 29.5765 43.7986 26.1253 43.3205C23.3309 42.9334 18.0454 40.9859 15.956 41.9325C15.2693 42.2436 14.4335 42.6191 13.7234 43.0009L8.90073 33.0665L8.90015 33.0655L16.4249 28.8951C18.5421 27.6873 20.2304 27.5323 21.9016 27.8502L27.2792 29.2787C32.4027 30.8448 30.7767 35.2844 28.0825 35.3006Z" fill="white"/>
<path d="M6.562 37.1106C7.29456 37.0703 7.85573 36.4437 7.81542 35.7112C7.7751 34.9786 7.14857 34.4174 6.41601 34.4578C5.68345 34.4981 5.12228 35.1246 5.1626 35.8572C5.20291 36.5897 5.82945 37.1509 6.562 37.1106Z" fill="white"/>
<path fill-rule="evenodd" clip-rule="evenodd" d="M30.8571 34.5157C34.7888 33.6362 38.8082 29.3799 42.4629 27.3686C42.4802 27.3591 42.4977 27.3503 42.5154 27.3423L42.5148 27.3412C45.0625 26.1817 48.0833 27.6883 48.2337 30.1604C48.2905 31.0943 47.9238 32.118 46.9484 33.0934C46.6237 33.418 42.3278 36.9422 34.2664 41.7969C31.1393 43.6802 29.7862 44.6141 26.0186 44.0918C25.1188 43.9671 23.9892 43.6915 22.7885 43.3979C20.2959 42.789 17.4748 42.0999 16.2764 42.6428L14.7469 43.3529C14.9748 43.976 14.9638 44.6614 14.7161 45.2769C14.4685 45.8924 14.0016 46.3943 13.4056 46.6859L10.7501 47.975C10.1119 48.2811 9.37848 48.3226 8.70981 48.0902C8.04113 47.8579 7.49142 47.3707 7.1805 46.7347L2.02493 36.1154C1.71834 35.477 1.67661 34.7434 1.90884 34.0744C2.14107 33.4054 2.62841 32.8554 3.26458 32.5443L5.91868 31.2558C6.46895 30.9916 7.09282 30.9229 7.68741 31.0609C8.282 31.1989 8.81179 31.5355 9.18939 32.0151L16.0402 28.2181C17.3982 27.4435 18.6908 27.0169 20.0148 26.9405C20.0903 26.0014 20.3033 25.0786 20.6469 24.2014H11.8659C11.6587 24.2014 11.46 24.1191 11.3135 23.9726C11.167 23.8261 11.0847 23.6274 11.0847 23.4202C11.0849 21.3677 11.7371 19.3684 12.9474 17.7107C14.1576 16.053 15.8632 14.8227 17.8181 14.1973C17.1316 13.5976 16.6444 12.8027 16.4217 11.9188C16.1989 11.0348 16.2512 10.104 16.5716 9.25055C16.8919 8.39713 17.4651 7.66179 18.2145 7.14276C18.9638 6.62374 19.8537 6.34575 20.7653 6.34593C21.6769 6.34611 22.5667 6.62445 23.3159 7.14378C24.065 7.6631 24.6379 8.39867 24.9579 9.25222C25.2779 10.1058 25.3298 11.0366 25.1067 11.9205C24.8837 12.8043 24.3962 13.5991 23.7094 14.1985C24.2212 14.3616 24.7184 14.5674 25.1957 14.8137C25.2771 13.6845 25.783 12.6281 26.6118 11.8568C27.4406 11.0856 28.5307 10.6569 29.6628 10.6569C30.7949 10.6569 31.885 11.0856 32.7138 11.8568C33.5425 12.6281 34.0485 13.6845 34.1298 14.8137C34.6072 14.5675 35.1044 14.3617 35.6162 14.1985C34.9295 13.5991 34.442 12.8043 34.2189 11.9205C33.9958 11.0366 34.0477 10.1058 34.3677 9.25222C34.6878 8.39867 35.2606 7.6631 36.0098 7.14378C36.759 6.62445 37.6488 6.34611 38.5603 6.34593C39.4719 6.34575 40.3618 6.62374 41.1112 7.14276C41.8606 7.66179 42.4337 8.39713 42.7541 9.25055C43.0744 10.104 43.1267 11.0348 42.904 11.9188C42.6812 12.8027 42.1941 13.5976 41.5075 14.1973C43.4624 14.8227 45.168 16.053 46.3782 17.7107C47.5885 19.3684 48.2408 21.3677 48.2409 23.4202C48.2409 23.6274 48.1586 23.8261 48.0121 23.9726C47.8656 24.1191 47.6669 24.2014 47.4597 24.2014H38.6783C39.1185 25.3263 39.3438 26.5239 39.3423 27.7319C39.3423 27.9391 39.26 28.1378 39.1135 28.2843C38.967 28.4308 38.7683 28.5131 38.5611 28.5131H27.4298L27.555 28.5505C29.5126 29.1601 30.615 30.1814 31.0989 31.269C31.3316 31.7877 31.4314 32.3562 31.3891 32.9231C31.3469 33.49 31.164 34.0375 30.8571 34.516V34.5157ZM13.0308 43.3594L8.08587 33.173C7.95597 32.9078 7.72626 32.7048 7.44704 32.6086C7.16782 32.5124 6.86184 32.5307 6.59612 32.6596L3.94212 33.9481C3.67685 34.078 3.47387 34.3077 3.37764 34.5869C3.28141 34.8661 3.29979 35.1721 3.42874 35.4378L8.55921 46.0059C8.71927 46.3073 8.8803 46.5033 9.22015 46.6211C9.55999 46.739 9.8097 46.6857 10.1233 46.5472L12.7282 45.2833C12.9934 45.1534 13.1964 44.9236 13.2926 44.6444C13.3888 44.3651 13.3705 44.0591 13.2415 43.7934L13.0308 43.3594ZM32.6091 18.5087C34.8063 19.2131 36.6805 20.6773 37.8956 22.6387H46.6411C46.1451 17.4449 40.9008 14.0547 35.9575 15.7278C35.189 15.9881 34.4639 16.3624 33.8066 16.8383C33.542 17.48 33.1322 18.0517 32.6094 18.5083L32.6091 18.5087ZM21.0211 28.5128L20.5698 28.4884C20.1977 28.4811 19.8257 28.5084 19.4587 28.5699C18.6501 28.7052 17.7834 29.0172 16.8094 29.5729L9.92366 33.3893L14.0773 41.9455L15.6358 41.2218C18.0479 40.129 23.2908 42.1413 26.2324 42.5488C29.4476 42.9942 30.6676 42.1432 33.461 40.461C41.5833 35.5717 45.4003 32.3689 45.8426 31.9904C46.4635 31.4032 46.707 30.7358 46.6776 30.2521C46.6363 29.5738 46.1277 29.0402 45.514 28.7542C45.1465 28.5869 44.7474 28.5005 44.3436 28.5012C43.9398 28.5018 43.5409 28.5894 43.174 28.758C41.8849 29.4739 40.5348 30.489 39.1492 31.5309C35.6292 34.178 31.8923 36.9882 27.9058 36.0605V36.0592C25.0054 35.5353 23.3672 34.9086 20.9462 34.2371C20.7484 34.1809 20.5809 34.0487 20.4802 33.8695C20.3794 33.6903 20.3536 33.4785 20.4084 33.2803C20.4632 33.0821 20.5941 32.9136 20.7726 32.8116C20.9511 32.7096 21.1627 32.6822 21.3613 32.7356C22.0575 32.9294 22.617 33.0969 23.1715 33.2629C24.695 33.719 26.1818 34.1639 28.1442 34.5208C28.4057 34.505 28.6603 34.4309 28.8894 34.3038C29.1185 34.1767 29.3163 34 29.4681 33.7865C29.6686 33.5202 29.7937 33.2049 29.8304 32.8737C29.8671 32.5424 29.814 32.2073 29.6767 31.9037C29.3579 31.187 28.562 30.493 27.0913 30.036L21.7275 28.6113C21.4937 28.5672 21.2579 28.5344 21.021 28.513L21.0211 28.5128ZM21.4299 22.6387C22.645 20.6773 24.5193 19.2131 26.7164 18.5088C26.1937 18.052 25.7839 17.4802 25.5193 16.8383C24.862 16.3625 24.1369 15.9881 23.3684 15.7278C18.4248 14.0547 13.1805 17.445 12.6848 22.6387H21.4299ZM35.4026 21.9919C34.3144 20.9039 32.9393 20.1475 31.4377 19.811C29.9361 19.4746 28.3697 19.5718 26.9213 20.0915C25.4728 20.6112 24.202 21.5319 23.2568 22.7463C22.3116 23.9607 21.7311 25.4187 21.5828 26.9504H37.7427C37.5634 25.0757 36.7358 23.3223 35.4026 21.9922V21.9919ZM29.6628 12.22C29.0861 12.22 28.5223 12.391 28.0428 12.7114C27.5632 13.0318 27.1895 13.4872 26.9688 14.0201C26.7481 14.5529 26.6903 15.1392 26.8028 15.7049C26.9154 16.2705 27.1931 16.7901 27.6009 17.1979C28.0087 17.6057 28.5283 17.8835 29.0939 17.996C29.6596 18.1085 30.2459 18.0507 30.7787 17.83C31.3116 17.6093 31.767 17.2356 32.0874 16.756C32.4078 16.2765 32.5788 15.7127 32.5788 15.136C32.5789 14.753 32.5035 14.3738 32.3569 14.02C32.2104 13.6662 31.9956 13.3448 31.7248 13.074C31.454 12.8032 31.1326 12.5884 30.7788 12.4419C30.425 12.2954 30.0458 12.2199 29.6628 12.22ZM38.5613 7.90825C37.9845 7.90823 37.4207 8.07925 36.9411 8.39967C36.4616 8.72009 36.0878 9.17552 35.867 9.70837C35.6463 10.2412 35.5886 10.8276 35.7011 11.3932C35.8136 11.9589 36.0913 12.4785 36.4992 12.8864C36.907 13.2942 37.4266 13.5719 37.9923 13.6845C38.558 13.797 39.1443 13.7392 39.6772 13.5185C40.21 13.2978 40.6654 12.924 40.9859 12.4444C41.3063 11.9648 41.4773 11.401 41.4773 10.8243C41.4773 10.4413 41.4019 10.0621 41.2554 9.70833C41.1088 9.35453 40.894 9.03306 40.6233 8.76228C40.3525 8.4915 40.031 8.2767 39.6772 8.13017C39.3234 7.98364 38.9442 7.90823 38.5613 7.90825ZM6.49974 33.6719C5.9403 33.6719 5.40377 33.8942 5.00818 34.2897C4.6126 34.6853 4.39036 35.2219 4.39036 35.7813C4.39036 37.6542 6.66575 38.599 7.99173 37.273C9.31771 35.947 8.37278 33.6719 6.49974 33.6719ZM6.88675 35.3946C6.81024 35.3182 6.71279 35.2662 6.60673 35.2451C6.50067 35.2241 6.39075 35.235 6.29086 35.2764C6.19098 35.3178 6.10561 35.3879 6.04555 35.4778C5.98549 35.5677 5.95344 35.6734 5.95344 35.7815C5.95344 35.8897 5.98549 35.9954 6.04555 36.0853C6.10561 36.1752 6.19098 36.2453 6.29086 36.2867C6.39075 36.3281 6.50067 36.339 6.60673 36.318C6.71279 36.2969 6.81024 36.2449 6.88675 36.1685C6.98923 36.0658 7.04678 35.9266 7.04678 35.7815C7.04678 35.6365 6.98923 35.4973 6.88675 35.3946ZM29.6628 8.45611C30.1706 8.45611 30.6669 8.30554 31.0891 8.02345C31.5113 7.74135 31.8404 7.3404 32.0347 6.8713C32.229 6.4022 32.2798 5.88601 32.1808 5.388C32.0817 4.89 31.8372 4.43256 31.4782 4.07351C31.1192 3.71446 30.6617 3.46995 30.1637 3.37088C29.6657 3.27181 29.1495 3.32263 28.6804 3.51693C28.2113 3.71123 27.8104 4.04027 27.5283 4.46244C27.2461 4.88462 27.0956 5.38097 27.0955 5.88872C27.0955 6.22587 27.1619 6.55973 27.2909 6.87122C27.4199 7.18272 27.609 7.46575 27.8474 7.70416C28.0858 7.94257 28.3688 8.13168 28.6803 8.2607C28.9918 8.38972 29.3257 8.45612 29.6628 8.45611ZM29.6628 10.0186C30.4796 10.0186 31.2781 9.7764 31.9572 9.32262C32.6363 8.86884 33.1657 8.22386 33.4782 7.46924C33.7908 6.71463 33.8726 5.88427 33.7133 5.08317C33.5539 4.28208 33.1606 3.54622 32.5831 2.96866C32.0055 2.39109 31.2697 1.99776 30.4686 1.8384C29.6675 1.67904 28.8371 1.76081 28.0825 2.07337C27.3279 2.38593 26.6829 2.91524 26.2291 3.59436C25.7753 4.27349 25.5331 5.07193 25.533 5.88872C25.5331 6.98399 25.9682 8.03439 26.7427 8.80886C27.5172 9.58334 28.5675 10.0186 29.6628 10.0186ZM20.7644 7.90825C20.1876 7.90823 19.6238 8.07925 19.1442 8.39967C18.6647 8.72009 18.2909 9.17552 18.0702 9.70837C17.8494 10.2412 17.7917 10.8276 17.9042 11.3932C18.0167 11.9589 18.2945 12.4785 18.7023 12.8864C19.1101 13.2942 19.6297 13.5719 20.1954 13.6845C20.7611 13.797 21.3474 13.7392 21.8803 13.5185C22.4131 13.2978 22.8686 12.924 23.189 12.4444C23.5094 11.9648 23.6804 11.401 23.6804 10.8243C23.6804 10.4413 23.605 10.0621 23.4585 9.70833C23.3119 9.35453 23.0972 9.03306 22.8264 8.76228C22.5556 8.4915 22.2341 8.2767 21.8803 8.13017C21.5265 7.98364 21.1473 7.90823 20.7644 7.90825Z" fill="#043070"/>
</svg>
