<svg width="50" height="50" viewBox="0 0 50 50" fill="none" xmlns="http://www.w3.org/2000/svg">
<g clip-path="url(#clip0_3708_1214)">
<path d="M0 32.8836V7.03281C0 6.58672 0.382813 6.20312 0.829688 6.20312H40.0203C40.4672 6.20312 40.85 6.58594 40.85 7.03281V32.8836H0Z" fill="#043070"/>
<path d="M40.85 32.8828V36.2016C40.85 36.6484 40.4672 37.0313 40.0203 37.0313H0.829688C0.382813 37.0313 0 36.6484 0 36.2016V32.8828H40.85Z" fill="#CCCCCC"/>
<path d="M26.2344 42.9039H14.6172L15.4469 37.0312H25.4047L26.2344 42.9039Z" fill="#043070"/>
<path d="M1.66016 7.85938H39.1914V31.2203H1.66016V7.85938Z" fill="white"/>
<path d="M25.4047 37.0312H15.4469L14.9844 40.3094L25.5531 38.0867L25.4047 37.0312Z" fill="#043070"/>
<path d="M11.6797 42.8438H29.1688V43.8008H11.6797V42.8438Z" fill="#CCCCCC"/>
<path d="M44.8238 31.0078H43.5754V28.2109C43.5751 28.1293 43.5587 28.0485 43.5272 27.9731C43.4956 27.8978 43.4496 27.8294 43.3916 27.7719C43.3336 27.7144 43.2649 27.6688 43.1893 27.6379C43.1138 27.6069 43.0328 27.5911 42.9512 27.5914H37.0738C36.909 27.591 36.7507 27.656 36.6336 27.7721C36.5166 27.8883 36.4504 28.0461 36.4496 28.2109V31.0078H35.2012V28.2109C35.2034 27.7162 35.4019 27.2426 35.753 26.894C36.1041 26.5454 36.5791 26.3503 37.0738 26.3516H42.9512C43.446 26.3501 43.9211 26.5451 44.2723 26.8938C44.6234 27.2424 44.8218 27.7161 44.8238 28.2109V31.0078Z" fill="#043070"/>
<path d="M32.8309 30.2812L30.0254 43.7328H50.0004L47.1949 30.2812H32.8309Z" fill="#6AB0E5"/>
<path d="M36.9961 35.0328C36.3945 35.0328 35.9062 34.5477 35.9062 33.95C35.9062 33.3516 36.3945 32.8672 36.9961 32.8672C37.5977 32.8672 38.0859 33.3523 38.0859 33.95C38.0855 34.0927 38.057 34.2339 38.002 34.3655C37.947 34.4972 37.8666 34.6167 37.7654 34.7172C37.6642 34.8178 37.5441 34.8974 37.4121 34.9516C37.2801 35.0057 37.1388 35.0333 36.9961 35.0328ZM43.0305 35.0328C42.4289 35.0328 41.9406 34.5477 41.9406 33.95C41.9406 33.3516 42.4289 32.8672 43.0305 32.8672C43.632 32.8672 44.1203 33.3523 44.1203 33.95C44.1199 34.0927 44.0914 34.2339 44.0364 34.3655C43.9814 34.4972 43.901 34.6167 43.7998 34.7172C43.6986 34.8178 43.5785 34.8974 43.4465 34.9516C43.3145 35.0057 43.1731 35.0333 43.0305 35.0328Z" fill="white"/>
<path d="M28.1164 16.5703V26.6758L14.1133 26.6867V16.5703" fill="#E2E2E2"/>
<path d="M16.7844 17.2273C16.7844 18.418 15.8148 19.3836 14.6188 19.3836C13.4227 19.3836 12.4531 18.418 12.4531 17.2273V14.6094H29.7758V17.2273C29.7758 18.418 28.8063 19.3836 27.6102 19.3836C26.4141 19.3836 25.4445 18.418 25.4445 17.2273" fill="#6AB0E5"/>
<path d="M16.7832 17.2266C16.7832 18.4172 17.7527 19.3828 18.9488 19.3828C20.1449 19.3828 21.1145 18.4172 21.1145 17.2266" fill="#6AB0E5"/>
<path d="M21.1133 17.2266C21.1133 18.4172 22.0828 19.3828 23.2789 19.3828C24.475 19.3828 25.4445 18.4172 25.4445 17.2266" fill="#6AB0E5"/>
<path d="M12.4609 26.1484H29.7719V27.2312H12.4609V26.1484ZM18.9313 21.1406H23.2961V26.1477H18.9313V21.1406Z" fill="#043070"/>
<path d="M15.2203 11.8594L12.4531 14.6086H29.7734L27.0063 11.8594H15.2203Z" fill="#6AB0E5"/>
</g>
<defs>
<clipPath id="clip0_3708_1214">
<rect width="50" height="50" fill="white"/>
</clipPath>
</defs>
</svg>
