<svg width="51" height="50" viewBox="0 0 51 50" fill="none" xmlns="http://www.w3.org/2000/svg">
<g clip-path="url(#clip0_1110_383)">
<path d="M42.5578 15.8974L40.7094 17.7237L40.7085 17.7245L40.7077 17.7253L37.7789 20.6192C37.7756 20.6223 37.772 20.625 37.7688 20.6281C37.7656 20.6313 37.7628 20.6348 37.7597 20.638L35.732 22.6415C35.732 22.6276 35.7325 22.6138 35.7325 22.6C35.7325 15.2489 29.7519 9.26831 22.4007 9.26831C15.0496 9.26831 9.06909 15.2489 9.06909 22.6C9.06909 26.2584 10.5208 29.6702 13.156 32.2057C13.4806 32.5191 13.7619 32.8 14.0088 33.0577C13.5083 33.6029 13.2021 34.3293 13.2021 35.1261C13.2021 36.3536 13.9286 37.414 14.9739 37.9018V42.4591C14.9739 43.7596 16.0306 44.8176 17.3295 44.8176H18.0772C18.5055 46.8898 20.3434 48.4523 22.5393 48.4523C24.7352 48.4523 26.5745 46.8908 27.0038 44.8176H27.7491C29.0496 44.8176 30.1076 43.7596 30.1076 42.4591V39.3167L31.991 38.5777L31.9922 38.5771C32.0454 38.556 32.0966 38.53 32.145 38.4995C32.1494 38.4966 32.1542 38.4944 32.1586 38.4915C32.1623 38.4891 32.1657 38.4862 32.1693 38.4837C32.2181 38.451 32.2631 38.4144 32.3041 38.374L46.8525 24.0021C46.863 23.9925 46.8741 23.9838 46.8842 23.9737C46.8943 23.9637 46.9031 23.953 46.9125 23.9427L48.7297 22.1475C49.5649 21.3244 50.0272 20.2174 50.0315 19.0307C50.0357 17.8539 49.5863 16.7538 48.7663 15.9329C47.0643 14.2159 44.2802 14.1994 42.5578 15.8972V15.8974ZM14.443 30.8703C12.1737 28.6866 10.9239 25.7495 10.9239 22.6C10.9239 16.2715 16.0725 11.123 22.4008 11.123C28.7292 11.123 33.8778 16.2715 33.8778 22.6C33.8778 23.2879 33.816 23.9778 33.6943 24.6547L26.1948 32.0645H16.2637C16.0618 32.0645 15.8644 32.0847 15.6733 32.1222C15.3339 31.7514 14.9336 31.3439 14.443 30.8704V30.8703ZM16.2638 36.3331C15.5983 36.3331 15.0569 35.7917 15.0569 35.1261C15.0569 34.4606 15.5983 33.9192 16.2638 33.9192H25.3215L24.3401 36.3331H16.2638ZM25.1481 39.2702L27.1123 34.4394L30.0034 37.3651L25.148 39.2701L25.1481 39.2702ZM31.6603 36.4031L28.0946 32.7948L35.1863 25.788C35.196 25.7788 35.2056 25.7693 35.215 25.7596L38.413 22.5999L41.9786 26.21L31.6603 36.4031ZM43.298 24.9066L39.7324 21.2963L41.3527 19.6955L44.9195 23.3048L43.298 24.9066Z" fill="#043070"/>
<path d="M35.0345 11.9282L37.6754 9.2874C38.0375 8.92529 38.0375 8.33809 37.6754 7.97588C37.3133 7.61377 36.7262 7.61377 36.3639 7.97588L33.723 10.6167C33.3609 10.9788 33.3609 11.566 33.723 11.9282C33.9041 12.1093 34.1414 12.1998 34.3788 12.1998C34.6162 12.1998 34.8534 12.1093 35.0345 11.9282ZM2.22886 24.4243H5.80542C5.9272 24.4243 6.04779 24.4003 6.1603 24.3537C6.27281 24.3071 6.37504 24.2388 6.46115 24.1527C6.54726 24.0666 6.61557 23.9644 6.66217 23.8519C6.70878 23.7393 6.73276 23.6188 6.73276 23.497C6.73276 23.3752 6.70878 23.2546 6.66217 23.1421C6.61557 23.0296 6.54726 22.9274 6.46115 22.8412C6.37504 22.7551 6.27281 22.6868 6.1603 22.6402C6.04779 22.5936 5.9272 22.5696 5.80542 22.5696H2.22886C2.10708 22.5696 1.98649 22.5936 1.87398 22.6402C1.76147 22.6868 1.65924 22.7551 1.57313 22.8412C1.48701 22.9274 1.41871 23.0296 1.3721 23.1421C1.3255 23.2546 1.30151 23.3752 1.30151 23.497C1.30151 23.6188 1.3255 23.7393 1.3721 23.8519C1.41871 23.9644 1.48701 24.0666 1.57313 24.1527C1.65924 24.2388 1.76147 24.3071 1.87398 24.3537C1.98649 24.4003 2.10708 24.4243 2.22886 24.4243ZM23.0818 6.20947V2.4752C23.0818 2.22925 22.9841 1.99337 22.8102 1.81946C22.6363 1.64555 22.4004 1.54785 22.1544 1.54785C21.9085 1.54785 21.6726 1.64555 21.4987 1.81946C21.3248 1.99337 21.2271 2.22925 21.2271 2.4752V6.20947C21.2271 6.45542 21.3248 6.69129 21.4987 6.8652C21.6726 7.03911 21.9085 7.13682 22.1544 7.13682C22.4004 7.13682 22.6363 7.03911 22.8102 6.8652C22.9841 6.69129 23.0818 6.45542 23.0818 6.20947ZM9.93276 12.1999C10.0547 12.2 10.1754 12.1761 10.288 12.1294C10.4006 12.0827 10.5029 12.0143 10.5889 11.9279C10.9508 11.5656 10.9505 10.9784 10.5881 10.6165L7.96108 7.99228C7.59897 7.63037 7.01167 7.63066 6.64956 7.99297C6.28765 8.35527 6.28794 8.94248 6.65034 9.30439L9.27739 11.9286C9.36339 12.0148 9.46555 12.0831 9.57802 12.1296C9.69049 12.1762 9.81104 12.2001 9.93276 12.1999ZM15.7269 27.8926L16.6431 28.8088C17.172 29.3377 17.9748 29.3882 18.6866 28.9384L19.4682 28.4472C19.6464 28.5303 19.8276 28.6054 20.0109 28.6725L20.215 29.5715C20.4025 30.3948 21.0051 30.9269 21.7503 30.9269H23.0487C23.7939 30.9269 24.3965 30.3948 24.5842 29.5708L24.788 28.6728C24.9728 28.6054 25.1545 28.5301 25.3328 28.4472L26.1137 28.9391C26.8279 29.3863 27.6294 29.3351 28.1547 28.8098L29.0785 27.8888C29.5985 27.3627 29.6487 26.5635 29.2034 25.848L28.7106 25.0668C28.7932 24.8895 28.8683 24.7087 28.9356 24.525L29.8343 24.321C30.6579 24.1337 31.1899 23.531 31.1899 22.7856V21.4874C31.1899 20.7421 30.6579 20.1394 29.8357 19.9523L28.9356 19.7462C28.8683 19.5624 28.7933 19.3816 28.7108 19.2042L29.2029 18.4257L29.2084 18.4169C29.6493 17.7019 29.5968 16.9025 29.0748 16.3804L28.1519 15.4576C27.6244 14.9359 26.8242 14.8862 26.1112 15.3327L25.3305 15.8251C25.1531 15.7424 24.9722 15.6674 24.7883 15.6003L24.5836 14.6972C24.3953 13.8765 23.7927 13.3461 23.0487 13.3461H21.7503C21.0063 13.3461 20.4038 13.8765 20.2147 14.6997L20.0106 15.6006C19.827 15.6678 19.6464 15.7428 19.4692 15.8254L18.6887 15.3332C17.9787 14.8844 17.1772 14.9332 16.6423 15.4623L15.7306 16.3768C15.1999 16.9017 15.1473 17.7047 15.5981 18.4245L16.0885 19.2033C16.0058 19.381 15.9307 19.5622 15.8633 19.7463L14.9646 19.9521C14.1411 20.1394 13.6089 20.7421 13.6089 21.4874V22.7856C13.6089 23.531 14.1411 24.1337 14.965 24.3211L15.8629 24.5249C15.9302 24.7092 16.0054 24.8905 16.0883 25.0684L15.5988 25.8473C15.1478 26.5607 15.198 27.3636 15.7269 27.8926ZM22.4013 19.6295C23.7828 19.6295 24.9069 20.7534 24.9069 22.135C24.9069 23.5165 23.7829 24.6405 22.4013 24.6405C21.0198 24.6405 19.8918 23.5165 19.8918 22.135C19.8918 20.7534 21.0176 19.6295 22.4013 19.6295Z" fill="#6AB0E5"/>
</g>
<defs>
<clipPath id="clip0_1110_383">
<rect width="50" height="50" fill="white" transform="translate(0.666504)"/>
</clipPath>
</defs>
</svg>
