<svg width="50" height="50" viewBox="0 0 50 50" fill="none" xmlns="http://www.w3.org/2000/svg">
<g clip-path="url(#clip0_3708_1249)">
<path d="M24.9996 46.7023C36.9857 46.7023 46.7023 36.9857 46.7023 24.9996C46.7023 13.0135 36.9857 3.29688 24.9996 3.29688C13.0135 3.29688 3.29688 13.0135 3.29688 24.9996C3.29688 36.9857 13.0135 46.7023 24.9996 46.7023Z" fill="#6AB0E5"/>
<path d="M37.2812 7.10156C39.6832 10.5942 41.0902 14.8243 41.0902 19.3836C41.0902 31.3696 31.3736 41.0863 19.3875 41.0863C14.8282 41.0863 10.5981 39.6793 7.10547 37.2773C11.0181 42.9667 17.5725 46.698 24.9992 46.698C36.9853 46.698 46.7019 36.9814 46.7019 24.9953C46.7019 17.5686 42.9706 11.0142 37.2812 7.10156Z" fill="#6AB0E5"/>
<path d="M24.9991 43.5451C35.2418 43.5451 43.5451 35.2418 43.5451 24.9991C43.5451 14.7565 35.2418 6.45312 24.9991 6.45312C14.7565 6.45312 6.45312 14.7565 6.45312 24.9991C6.45312 35.2418 14.7565 43.5451 24.9991 43.5451Z" fill="white"/>
<path d="M35.8609 9.97656C38.0756 13.0314 39.3835 16.7843 39.3835 20.8375C39.3835 31.0638 31.0638 39.3835 20.8375 39.3835C16.7843 39.3835 13.0314 38.0756 9.97656 35.8609C13.3495 40.5136 18.8269 43.546 24.9999 43.546C35.2262 43.546 43.5459 35.2263 43.5459 25C43.546 18.8269 40.5136 13.3495 35.8609 9.97656Z" fill="white"/>
<path d="M47.8865 31.9045H2.11348C1.35068 31.9045 0.732422 31.2861 0.732422 30.5234V19.4748C0.732422 18.712 1.35078 18.0938 2.11348 18.0938H47.8864C48.6492 18.0938 49.2675 18.7121 49.2675 19.4748V30.5234C49.2676 31.2862 48.6492 31.9045 47.8865 31.9045Z" fill="#6AB0E5"/>
<path d="M47.8872 18.0938H44.7305C45.4933 18.0938 46.1115 18.7121 46.1115 19.4748V30.5234C46.1115 31.2862 45.4932 31.9045 44.7305 31.9045H47.8872C48.65 31.9045 49.2683 31.2861 49.2683 30.5234V19.4748C49.2683 18.712 48.6499 18.0938 47.8872 18.0938Z" fill="#6AB0E5"/>
<path d="M47.8867 17.3604H46.1007C42.8923 8.48721 34.4796 2.5625 25 2.5625C19.8659 2.5625 15.0344 4.25078 11.0278 7.44492C10.8759 7.56602 10.7784 7.74249 10.7566 7.93552C10.7348 8.12855 10.7906 8.32233 10.9117 8.47422C11.0328 8.62611 11.2093 8.72367 11.4023 8.74545C11.5953 8.76723 11.7891 8.71143 11.941 8.59033C15.6854 5.60518 20.2011 4.02734 25 4.02734C33.6821 4.02734 41.4063 9.34414 44.5355 17.3604H42.6992C41.2584 14.0301 38.9205 11.1857 35.9124 9.11299C32.6908 6.89307 28.9173 5.71963 25 5.71963C21.0827 5.71963 17.3093 6.89307 14.0876 9.11299C11.0795 11.1857 8.7416 14.03 7.30078 17.3604H5.46416C6.40234 14.9566 7.76582 12.7683 9.52744 10.8442C9.65685 10.7007 9.72428 10.5118 9.71502 10.3188C9.70577 10.1257 9.62058 9.94414 9.47803 9.81362C9.33549 9.68311 9.14713 9.61423 8.95401 9.622C8.7609 9.62976 8.57868 9.71354 8.44707 9.85508C6.43301 12.0548 4.90518 14.5777 3.89922 17.3604H2.11328C0.948047 17.3604 0 18.3084 0 19.4736V30.5225C0 31.6877 0.948047 32.6357 2.11328 32.6357H3.89922C7.10742 41.5087 15.52 47.4332 25 47.4332C34.48 47.4332 42.8926 41.5087 46.1008 32.6357H47.8868C49.0521 32.6357 50.0001 31.6877 50.0001 30.5225V19.4736C50 18.3084 49.052 17.3604 47.8867 17.3604ZM14.9188 10.3192C17.8949 8.26846 21.3809 7.18447 25 7.18447C28.6191 7.18447 32.1052 8.26846 35.0812 10.3192C37.685 12.1134 39.7437 14.5333 41.0887 17.3604H8.91133C10.2563 14.5333 12.315 12.1134 14.9188 10.3192ZM48.5352 30.5225C48.5349 30.6944 48.4666 30.8592 48.345 30.9807C48.2234 31.1023 48.0586 31.1707 47.8867 31.1709H16.9609C16.7667 31.1709 16.5804 31.2481 16.443 31.3854C16.3057 31.5228 16.2285 31.7091 16.2285 31.9033C16.2285 32.0976 16.3057 32.2839 16.443 32.4212C16.5804 32.5586 16.7667 32.6357 16.9609 32.6357H41.0885C40.1614 34.5753 38.8723 36.3634 37.3165 37.854C37.1762 37.9884 37.0951 38.173 37.0909 38.3672C37.0867 38.5614 37.1599 38.7493 37.2943 38.8896C37.4287 39.0299 37.6133 39.111 37.8075 39.1152C38.0017 39.1194 38.1896 39.0462 38.3299 38.9118C40.1801 37.1392 41.6836 34.9776 42.6993 32.6358H44.5356C41.4065 40.6518 33.6824 45.9684 25 45.9684C16.3176 45.9684 8.59336 40.6518 5.46445 32.6357H7.30107C8.74189 35.9659 11.0797 38.8101 14.0877 40.8829C17.3094 43.1029 21.0827 44.2765 25 44.2765C28.7649 44.2765 32.4154 43.1854 35.5566 41.121C35.637 41.0682 35.7062 41 35.7602 40.9205C35.8143 40.8409 35.8521 40.7515 35.8716 40.6573C35.8911 40.5631 35.8918 40.466 35.8738 40.3716C35.8557 40.2771 35.8192 40.1871 35.7664 40.1067C35.7136 40.0264 35.6454 39.9572 35.5659 39.9031C35.4863 39.8491 35.3969 39.8112 35.3027 39.7917C35.2085 39.7722 35.1114 39.7715 35.0169 39.7895C34.9224 39.8076 34.8324 39.844 34.7521 39.8969C31.8504 41.8038 28.4782 42.8117 25 42.8117C21.381 42.8117 17.895 41.7277 14.9189 39.6769C12.3152 37.8827 10.2566 35.4628 8.91172 32.6359H13.5431C13.7373 32.6359 13.9236 32.5588 14.061 32.4214C14.1983 32.2841 14.2755 32.0978 14.2755 31.9035C14.2755 31.7093 14.1983 31.523 14.061 31.3856C13.9236 31.2483 13.7373 31.1711 13.5431 31.1711H2.11328C1.94136 31.1709 1.77653 31.1025 1.65497 30.981C1.5334 30.8594 1.46502 30.6946 1.46484 30.5227V19.4738C1.46505 19.3019 1.53343 19.1371 1.655 19.0155C1.77656 18.894 1.94137 18.8256 2.11328 18.8254H47.8867C48.0586 18.8256 48.2234 18.894 48.345 19.0155C48.4666 19.1371 48.5349 19.3019 48.5352 19.4738V30.5225Z" fill="#043070"/>
<path d="M13.1839 21.1095C12.9896 21.1095 12.8033 21.1867 12.666 21.324C12.5286 21.4614 12.4515 21.6477 12.4515 21.8419V25.8118L9.4127 21.4248C9.32383 21.2965 9.19629 21.1999 9.04868 21.1492C8.90107 21.0984 8.7411 21.0962 8.59211 21.1427C8.44312 21.1893 8.3129 21.2822 8.22044 21.408C8.12798 21.5337 8.07812 21.6857 8.07813 21.8418V28.1553C8.07813 28.3496 8.15529 28.5358 8.29265 28.6732C8.43 28.8106 8.6163 28.8877 8.81055 28.8877C9.0048 28.8877 9.19109 28.8106 9.32845 28.6732C9.4658 28.5358 9.54297 28.3496 9.54297 28.1553V24.1854L12.5817 28.5724C12.6706 28.7007 12.7982 28.7972 12.9458 28.848C13.0934 28.8987 13.2534 28.901 13.4023 28.8544C13.5513 28.8079 13.6815 28.7149 13.774 28.5892C13.8664 28.4635 13.9163 28.3115 13.9163 28.1554V21.8419C13.9163 21.6477 13.8391 21.4614 13.7018 21.324C13.5644 21.1867 13.3781 21.1095 13.1839 21.1095ZM29.9482 22.5743C30.3528 22.5743 30.6807 22.2464 30.6807 21.8419C30.6807 21.4374 30.3528 21.1095 29.9482 21.1095H27.3894C27.1951 21.1095 27.0088 21.1867 26.8715 21.324C26.7341 21.4614 26.6569 21.6477 26.6569 21.8419V28.1554C26.6569 28.5599 26.9848 28.8878 27.3894 28.8878C27.7939 28.8878 28.1218 28.5599 28.1218 28.1554V25.6713H29.745C30.1496 25.6713 30.4774 25.3434 30.4774 24.9389C30.4774 24.5344 30.1496 24.2065 29.745 24.2065H28.1218V22.5743H29.9482ZM35.568 22.5743C35.9726 22.5743 36.3004 22.2464 36.3004 21.8419C36.3004 21.4374 35.9726 21.1095 35.568 21.1095H32.9077C32.7135 21.1095 32.5272 21.1867 32.3898 21.324C32.2525 21.4614 32.1753 21.6477 32.1753 21.8419V28.1554C32.1753 28.3496 32.2525 28.5359 32.3898 28.6733C32.5272 28.8107 32.7135 28.8878 32.9077 28.8878H35.568C35.9726 28.8878 36.3004 28.5599 36.3004 28.1554C36.3004 27.7509 35.9726 27.423 35.568 27.423H33.6401V25.7311H35.3718C35.7764 25.7311 36.1042 25.4032 36.1042 24.9987C36.1042 24.5942 35.7764 24.2662 35.3718 24.2662H33.6401V22.5743H35.568ZM41.1877 22.5743C41.5923 22.5743 41.9201 22.2464 41.9201 21.8419C41.9201 21.4374 41.5923 21.1095 41.1877 21.1095H38.5274C38.3332 21.1095 38.1469 21.1867 38.0095 21.324C37.8722 21.4614 37.795 21.6477 37.795 21.8419V28.1554C37.795 28.3496 37.8722 28.5359 38.0095 28.6733C38.1469 28.8107 38.3332 28.8878 38.5274 28.8878H41.1877C41.5923 28.8878 41.9201 28.5599 41.9201 28.1554C41.9201 27.7509 41.5923 27.423 41.1877 27.423H39.2599V25.7311H40.9915C41.3961 25.7311 41.7239 25.4032 41.7239 24.9987C41.7239 24.5942 41.3961 24.2662 40.9915 24.2662H39.2599V22.5743H41.1877ZM19.3002 21.1095C17.1558 21.1095 15.411 22.8541 15.411 24.9987C15.411 27.1432 17.1558 28.8878 19.3002 28.8878C21.4446 28.8878 23.1894 27.1432 23.1894 24.9987C23.1894 22.8541 21.4446 21.1095 19.3002 21.1095ZM19.3002 27.423C17.9635 27.423 16.8759 26.3355 16.8759 24.9987C16.8759 23.6618 17.9635 22.5743 19.3002 22.5743C20.6369 22.5743 21.7245 23.6618 21.7245 24.9987C21.7245 26.3355 20.6369 27.423 19.3002 27.423Z" fill="#043070"/>
</g>
<defs>
<clipPath id="clip0_3708_1249">
<rect width="50" height="50" fill="white"/>
</clipPath>
</defs>
</svg>
