<svg width="51" height="50" viewBox="0 0 51 50" fill="none" xmlns="http://www.w3.org/2000/svg">
<path d="M5.69362 43.647L12.7924 39.5484C13.1297 39.3537 13.3714 39.0372 13.4733 38.657C13.5752 38.2769 13.5241 37.8817 13.3294 37.5445C13.1346 37.2073 12.8181 36.9655 12.4379 36.8636C12.312 36.8297 12.1822 36.8125 12.0518 36.8124C11.7983 36.8124 11.5492 36.8783 11.3255 37.0075L4.22662 41.1061C3.52614 41.5105 3.28522 42.4096 3.68961 43.1101C4.0941 43.8106 4.99313 44.0516 5.69362 43.6471V43.647ZM25.7814 40.5967C31.4286 40.5967 36.0229 36.0024 36.0229 30.3552C36.0229 24.7079 31.4287 20.1137 25.7814 20.1137C20.1341 20.1137 15.5399 24.7079 15.5399 30.3552C15.5399 36.0024 20.1341 40.5967 25.7814 40.5967ZM16.9407 30.8107C16.7454 30.5385 16.7454 30.172 16.9407 29.8998C18.9812 27.056 22.2862 25.3582 25.7813 25.3582C29.2764 25.3582 32.5814 27.0561 34.6219 29.8998C34.8172 30.1721 34.8172 30.5386 34.6219 30.8107C32.5814 33.6546 29.2765 35.3523 25.7813 35.3523C22.2861 35.3523 18.9811 33.6546 16.9406 30.8108L16.9407 30.8107ZM40.3703 8.65791H44.4115L40.3703 4.6167V8.65791Z" fill="#6AB0E5"/>
<path d="M27.0489 30.3552C27.0489 29.6562 26.4803 29.0876 25.7813 29.0876C25.0824 29.0876 24.5137 29.6562 24.5137 30.3552C24.5137 31.0541 25.0823 31.6228 25.7813 31.6228C26.4804 31.6228 27.0489 31.0541 27.0489 30.3552ZM34.7212 11.3408V15.382H38.7624L34.7212 11.3408Z" fill="#6AB0E5"/>
<path d="M2.3363 43.8912C2.89684 44.862 3.91715 45.4054 4.96501 45.4054C5.49513 45.4055 6.01589 45.2657 6.47467 45.0001L13.5735 40.9016C14.2721 40.4982 14.7725 39.8446 14.9824 39.0613L14.9856 39.0479L16.7968 38.0022C18.9636 40.5441 22.1872 42.1593 25.7812 42.1593C32.2899 42.1593 37.5852 36.8641 37.5852 30.3553C37.5852 23.8465 32.29 18.5513 25.7812 18.5513C19.2724 18.5513 13.9772 23.8465 13.9772 30.3553C13.9772 31.7439 14.219 33.077 14.6614 34.3155L12.8553 35.3583C12.8508 35.3571 12.8465 35.3556 12.8421 35.3544C12.0588 35.1445 11.2425 35.251 10.5439 35.6544L3.44508 39.7529C1.9984 40.5882 1.50094 42.4446 2.3362 43.8913L2.3363 43.8912ZM25.7813 20.1138C31.4285 20.1138 36.0228 24.708 36.0228 30.3553C36.0228 36.0025 31.4286 40.5968 25.7813 40.5968C20.134 40.5968 15.5398 36.0025 15.5398 30.3553C15.5398 24.708 20.134 20.1138 25.7813 20.1138ZM15.2883 35.7578C15.4622 36.0942 15.6522 36.4221 15.8577 36.7402L14.9198 37.2817C14.8571 37.1019 14.7777 36.9283 14.6825 36.7633C14.5872 36.5983 14.4765 36.4427 14.3521 36.2984L15.2883 35.7578ZM4.22653 41.106L11.3254 37.0074C11.5461 36.8795 11.7966 36.8122 12.0517 36.8123C12.1802 36.8123 12.3098 36.8292 12.4378 36.8635C12.818 36.9653 13.1345 37.2072 13.3293 37.5444C13.524 37.8816 13.5752 38.2768 13.4732 38.6569C13.3714 39.0371 13.1296 39.3537 12.7923 39.5483L5.69352 43.6469C4.99303 44.0515 4.09401 43.8104 3.68952 43.1099C3.28503 42.4094 3.52594 41.5104 4.22653 41.1059V41.106Z" fill="#043070"/>
<path d="M9.54092 7.2458C9.46837 7.31835 9.41083 7.40448 9.37157 7.49926C9.33231 7.59405 9.31211 7.69565 9.31211 7.79824V33.8383C9.31211 34.2697 9.66182 34.6195 10.0934 34.6195C10.5249 34.6195 10.8746 34.2697 10.8746 33.8383V8.57939H31.2873C31.7527 8.57939 32.154 8.76055 32.5141 9.1334L32.5236 9.14316L32.5856 9.20518C32.9552 9.58828 33.1587 10.0903 33.1587 10.6191V16.1632C33.1587 16.3704 33.241 16.5691 33.3875 16.7156C33.534 16.8621 33.7327 16.9444 33.9399 16.9444H39.484C40.0127 16.9444 40.5146 17.1479 40.8976 17.5171L40.96 17.5795L40.9698 17.5892C41.3426 17.9489 41.5238 18.3502 41.5238 18.8158V48.1441H10.8745V44.9383C10.8745 44.7311 10.7922 44.5324 10.6457 44.3859C10.4992 44.2393 10.3005 44.157 10.0933 44.157C9.88606 44.157 9.68735 44.2393 9.54083 44.3859C9.39432 44.5324 9.31201 44.7311 9.31201 44.9383V48.9254C9.31201 49.1326 9.39432 49.3313 9.54083 49.4778C9.68735 49.6243 9.88606 49.7066 10.0933 49.7066H42.305C42.5122 49.7066 42.7109 49.6243 42.8574 49.4778C43.0039 49.3313 43.0862 49.1326 43.0862 48.9254V18.816C43.0862 17.9316 42.7314 17.1208 42.0603 16.4704L33.6326 8.04277C32.9821 7.37168 32.1713 7.01709 31.2872 7.01709H10.0934C9.88617 7.01706 9.68745 7.09933 9.54092 7.2458ZM34.7211 11.3409L38.7623 15.3821H34.7211V11.3409Z" fill="#043070"/>
<path d="M28.2908 11.7598H14.8516C14.6444 11.7598 14.4456 11.8421 14.2991 11.9886C14.1526 12.1351 14.0703 12.3338 14.0703 12.541C14.0703 12.7482 14.1526 12.9469 14.2991 13.0934C14.4456 13.24 14.6444 13.3223 14.8516 13.3223H28.2908C28.498 13.3223 28.6967 13.24 28.8432 13.0934C28.9898 12.9469 29.0721 12.7482 29.0721 12.541C29.0721 12.3338 28.9898 12.1351 28.8432 11.9886C28.6967 11.8421 28.498 11.7598 28.2908 11.7598Z" fill="#043070"/>
<path d="M44.9426 41.4203C44.7354 41.4203 44.5367 41.5026 44.3902 41.6491C44.2437 41.7956 44.1614 41.9944 44.1614 42.2016C44.1614 42.4088 44.2437 42.6075 44.3902 42.754C44.5367 42.9005 44.7354 42.9828 44.9426 42.9828H47.9541C48.1613 42.9828 48.36 42.9005 48.5065 42.754C48.653 42.6075 48.7353 42.4088 48.7353 42.2016V12.0919C48.7353 11.2075 48.3805 10.3965 47.7091 9.74609L39.2817 1.31875C38.6312 0.647559 37.8204 0.292969 36.9363 0.292969H15.7424C15.6398 0.292918 15.5382 0.31309 15.4434 0.352333C15.3486 0.391577 15.2624 0.449121 15.1899 0.521677C15.1173 0.594233 15.0598 0.680378 15.0205 0.775187C14.9813 0.869995 14.9611 0.971609 14.9612 1.07422V5.07324C14.9612 5.28044 15.0435 5.47916 15.19 5.62567C15.3365 5.77218 15.5352 5.85449 15.7424 5.85449C15.9496 5.85449 16.1483 5.77218 16.2949 5.62567C16.4414 5.47916 16.5237 5.28044 16.5237 5.07324V1.85537H36.9363C37.4017 1.85537 37.803 2.03662 38.1629 2.40947L38.1726 2.41924L38.2346 2.48125C38.6042 2.86426 38.8077 3.36631 38.8077 3.89512V9.43916C38.8077 9.64636 38.89 9.84507 39.0365 9.99159C39.183 10.1381 39.3817 10.2204 39.5889 10.2204H45.133C45.6619 10.2204 46.1641 10.4241 46.5473 10.7938L46.609 10.8556L46.6188 10.8652C46.9916 11.2251 47.1728 11.6264 47.1728 12.092V41.4203H44.9426ZM40.3702 8.65801V4.6168L44.4115 8.65801H40.3702Z" fill="#043070"/>
<path d="M28.2908 15.6116H14.8516C14.6444 15.6116 14.4456 15.6939 14.2991 15.8404C14.1526 15.9869 14.0703 16.1856 14.0703 16.3928C14.0703 16.6 14.1526 16.7987 14.2991 16.9452C14.4456 17.0918 14.6444 17.1741 14.8516 17.1741H28.2908C28.498 17.1741 28.6967 17.0918 28.8432 16.9452C28.9898 16.7987 29.0721 16.6 29.0721 16.3928C29.0721 16.1856 28.9898 15.9869 28.8432 15.8404C28.6967 15.6939 28.498 15.6116 28.2908 15.6116ZM37.5469 45.0993C37.7541 45.0993 37.9528 45.017 38.0993 44.8704C38.2458 44.7239 38.3281 44.5252 38.3281 44.318C38.3281 44.1108 38.2458 43.9121 38.0993 43.7656C37.9528 43.6191 37.7541 43.5368 37.5469 43.5368H14.8516C14.6444 43.5368 14.4456 43.6191 14.2991 43.7656C14.1526 43.9121 14.0703 44.1108 14.0703 44.318C14.0703 44.5252 14.1526 44.7239 14.2991 44.8704C14.4456 45.017 14.6444 45.0993 14.8516 45.0993H37.5469ZM28.6114 30.3553C28.6114 28.7948 27.3419 27.5252 25.7813 27.5252C24.2208 27.5252 22.9512 28.7948 22.9512 30.3553C22.9512 31.9159 24.2208 33.1854 25.7813 33.1854C27.3419 33.1854 28.6114 31.9159 28.6114 30.3553ZM24.5137 30.3553C24.5137 29.6563 25.0823 29.0877 25.7813 29.0877C26.4804 29.0877 27.0489 29.6564 27.0489 30.3553C27.0489 31.0542 26.4803 31.6229 25.7813 31.6229C25.0824 31.6229 24.5137 31.0542 24.5137 30.3553Z" fill="#043070"/>
<path d="M34.6219 30.8107C34.8172 30.5385 34.8172 30.172 34.6219 29.8998C32.5814 27.056 29.2765 25.3582 25.7813 25.3582C22.2861 25.3582 18.9812 27.0559 16.9407 29.8998C16.7454 30.172 16.7454 30.5385 16.9407 30.8107C18.9812 33.6544 22.2862 35.3522 25.7814 35.3522C29.2766 35.3522 32.5816 33.6544 34.622 30.8106L34.6219 30.8107ZM18.5587 30.3552C20.3208 28.1946 22.9797 26.9207 25.7813 26.9207C28.5829 26.9207 31.2417 28.1946 33.0039 30.3552C31.2418 32.5159 28.583 33.7897 25.7813 33.7897C22.9796 33.7897 20.3208 32.5156 18.5587 30.3552Z" fill="#043070"/>
</svg>
