<svg width="50" height="50" viewBox="0 0 50 50" fill="none" xmlns="http://www.w3.org/2000/svg">
<g clip-path="url(#clip0_1111_417)">
<path d="M11.2355 6.63364C12.6612 6.63364 13.817 5.47788 13.817 4.05217C13.817 2.62647 12.6612 1.4707 11.2355 1.4707C9.80982 1.4707 8.65405 2.62647 8.65405 4.05217C8.65405 5.47788 9.80982 6.63364 11.2355 6.63364Z" fill="#6AB0E5"/>
<path d="M11.2355 48.5296C12.6612 48.5296 13.817 47.3739 13.817 45.9482C13.817 44.5225 12.6612 43.3667 11.2355 43.3667C9.80982 43.3667 8.65405 44.5225 8.65405 45.9482C8.65405 47.3739 9.80982 48.5296 11.2355 48.5296Z" fill="#6AB0E5"/>
<path d="M38.7648 6.63364C40.1905 6.63364 41.3463 5.47788 41.3463 4.05217C41.3463 2.62647 40.1905 1.4707 38.7648 1.4707C37.3391 1.4707 36.1833 2.62647 36.1833 4.05217C36.1833 5.47788 37.3391 6.63364 38.7648 6.63364Z" fill="#6AB0E5"/>
<path d="M38.7648 48.5296C40.1905 48.5296 41.3463 47.3739 41.3463 45.9482C41.3463 44.5225 40.1905 43.3667 38.7648 43.3667C37.3391 43.3667 36.1833 44.5225 36.1833 45.9482C36.1833 47.3739 37.3391 48.5296 38.7648 48.5296Z" fill="#6AB0E5"/>
<path fill-rule="evenodd" clip-rule="evenodd" d="M43.3666 13.0612C43.3666 11.6364 44.5233 10.4797 45.9481 10.4797C47.3728 10.4797 48.5295 11.6364 48.5295 13.0612C48.5295 14.4859 47.3728 15.6427 45.9481 15.6427C44.5233 15.6427 43.3666 14.4859 43.3666 13.0612ZM1.4707 13.0612C1.4707 11.6364 2.62747 10.4797 4.05217 10.4797C5.47698 10.4797 6.63365 11.6364 6.63365 13.0612C6.63365 14.4859 5.47698 15.6427 4.05217 15.6427C2.62747 15.6427 1.4707 14.4859 1.4707 13.0612ZM43.3666 36.9392C43.3666 35.5145 44.5233 34.3578 45.9481 34.3578C47.3728 34.3578 48.5295 35.5145 48.5295 36.9392C48.5295 38.364 47.3728 39.5207 45.9481 39.5207C44.5233 39.5207 43.3666 38.364 43.3666 36.9392ZM1.4707 36.9392C1.4707 35.5145 2.62747 34.3578 4.05217 34.3578C5.47698 34.3578 6.63365 35.5145 6.63365 36.9392C6.63365 38.364 5.47698 39.5207 4.05217 39.5207C2.62747 39.5207 1.4707 38.364 1.4707 36.9392ZM40.4325 27.7363C37.1804 27.7363 35.5475 31.6771 37.8476 33.9772C38.2709 34.4005 38.2709 35.0891 37.8476 35.5125L35.5124 37.8477C35.089 38.271 34.4004 38.271 33.9771 37.8477C31.677 35.5476 27.7362 37.1805 27.7362 40.4326C27.7363 40.5751 27.7084 40.7162 27.6539 40.8478C27.5995 40.9795 27.5196 41.0991 27.4188 41.1999C27.3181 41.3006 27.1984 41.3805 27.0668 41.435C26.9351 41.4895 26.794 41.5174 26.6515 41.5173H23.3487C23.2063 41.5174 23.0651 41.4895 22.9335 41.435C22.8018 41.3805 22.6822 41.3006 22.5814 41.1999C22.4807 41.0991 22.4008 40.9795 22.3463 40.8478C22.2919 40.7162 22.2639 40.5751 22.264 40.4326C22.264 37.1766 18.3252 35.5456 16.0232 37.8477C15.5998 38.271 14.9132 38.271 14.4898 37.8477L12.1527 35.5125C11.7293 35.0891 11.7293 34.4005 12.1527 33.9772C14.4528 31.6771 12.8218 27.7363 9.56776 27.7363C8.96884 27.7363 8.48306 27.2505 8.48306 26.6516V23.3488C8.48306 22.7499 8.96884 22.2641 9.56776 22.2641C12.8218 22.2641 14.4528 18.3234 12.1527 16.0233C11.7293 15.5999 11.7293 14.9133 12.1527 14.4899L14.4898 12.1528C14.9132 11.7294 15.5998 11.7294 16.0232 12.1528C18.3233 14.4529 22.264 12.8219 22.264 9.56786C22.264 8.96894 22.7498 8.48315 23.3487 8.48315H26.6515C27.2504 8.48315 27.7362 8.96894 27.7362 9.56786C27.7362 12.8219 31.677 14.4529 33.9771 12.1528C34.4004 11.7294 35.089 11.7294 35.5124 12.1528L37.8476 14.4899C38.2709 14.9133 38.2709 15.5999 37.8476 16.0233C35.5475 18.3234 37.1804 22.2641 40.4325 22.2641C40.575 22.264 40.7161 22.292 40.8477 22.3464C40.9794 22.4009 41.099 22.4808 41.1998 22.5815C41.3005 22.6823 41.3804 22.8019 41.4349 22.9336C41.4894 23.0652 41.5173 23.2064 41.5172 23.3488V26.6516C41.5173 26.7941 41.4894 26.9352 41.4349 27.0669C41.3804 27.1985 41.3005 27.3182 41.1998 27.4189C41.099 27.5197 40.9794 27.5996 40.8477 27.654C40.7161 27.7085 40.575 27.7364 40.4325 27.7363ZM25.0011 32.9374C29.371 32.9374 32.9373 29.3711 32.9373 25.0012C32.9373 20.6293 29.371 17.065 25.0011 17.065C20.6292 17.065 17.0649 20.6293 17.0649 25.0012C17.0649 29.3711 20.6292 32.9374 25.0011 32.9374Z" fill="#6AB0E5"/>
<path fill-rule="evenodd" clip-rule="evenodd" d="M3.36589 16.2565C1.89138 15.9409 0.784424 14.6292 0.784424 13.0611C0.784424 11.2576 2.24864 9.79335 4.05217 9.79335C5.8557 9.79335 7.31991 11.2576 7.31991 13.0611C7.31991 14.6292 6.21295 15.9409 4.73844 16.2565V19.1658H12.4844C12.6626 18.2642 12.4333 17.2743 11.6674 16.5084C10.9761 15.8172 10.9761 14.6958 11.6674 14.0045L14.0045 11.6674C14.6958 10.9761 15.8172 10.9761 16.5084 11.6674C17.0555 12.2144 17.7167 12.4877 18.3784 12.5343V4.73844H14.4308C14.1152 6.21295 12.8035 7.31991 11.2354 7.31991C9.43188 7.31991 7.96756 5.8557 7.96756 4.05217C7.96756 2.24864 9.43188 0.784424 11.2354 0.784424C12.8035 0.784424 14.1152 1.89138 14.4308 3.36589H19.0647C19.2467 3.36589 19.4213 3.4382 19.55 3.5669C19.6787 3.6956 19.751 3.87016 19.751 4.05217V12.3064C20.7812 11.8767 21.5778 10.8863 21.5778 9.56776C21.5778 8.58991 22.3709 7.79678 23.3487 7.79678H26.6515C27.6293 7.79678 28.4225 8.58991 28.4225 9.56776C28.4225 10.8863 29.219 11.8767 30.2492 12.3064V4.05217C30.2492 3.87016 30.3215 3.6956 30.4502 3.5669C30.5789 3.4382 30.7535 3.36589 30.9355 3.36589H35.5694C35.885 1.89138 37.1967 0.784424 38.7648 0.784424C40.5683 0.784424 42.0327 2.24864 42.0327 4.05217C42.0327 5.8557 40.5683 7.31991 38.7648 7.31991C37.1967 7.31991 35.885 6.21295 35.5694 4.73844H31.6218V12.5343C32.2835 12.4877 32.9447 12.2144 33.4918 11.6674C34.1828 10.9765 35.3067 10.9765 35.9977 11.6674L38.3329 14.0045C39.0241 14.6958 39.0241 15.8172 38.3329 16.5084C37.567 17.2743 37.338 18.2641 37.5163 19.1657H45.2618V16.2565C43.7873 15.9409 42.6803 14.6292 42.6803 13.0611C42.6803 11.2576 44.1445 9.79335 45.9481 9.79335C47.7516 9.79335 49.2158 11.2576 49.2158 13.0611C49.2158 14.6292 48.1088 15.9409 46.6343 16.2565V19.852C46.6343 20.034 46.562 20.2085 46.4333 20.3372C46.3046 20.4659 46.1301 20.5382 45.9481 20.5382H38.1732C38.6955 21.16 39.4782 21.5778 40.4325 21.5778C41.4135 21.5778 42.2034 22.3709 42.2034 23.3487V26.6515C42.2034 27.6293 41.4135 28.4225 40.4325 28.4225C39.4782 28.4225 38.6955 28.8402 38.1732 29.462H45.9481C46.1301 29.462 46.3046 29.5343 46.4333 29.663C46.562 29.7917 46.6343 29.9662 46.6343 30.1482V33.7437C48.1088 34.0593 49.2158 35.371 49.2158 36.9391C49.2158 38.7427 47.7516 40.2069 45.9481 40.2069C44.1445 40.2069 42.6803 38.7427 42.6803 36.9391C42.6803 35.371 43.7873 34.0593 45.2618 33.7437V30.8345H37.5163C37.338 31.7361 37.567 32.7259 38.3329 33.4918C39.0237 34.1828 39.0237 35.3067 38.3329 35.9977L35.9977 38.3329C35.3067 39.0237 34.1828 39.0237 33.4918 38.3329C32.9447 37.7858 32.2835 37.5127 31.6218 37.4662V45.2618H35.5694C35.885 43.7873 37.1967 42.6803 38.7648 42.6803C40.5683 42.6803 42.0327 44.1445 42.0327 45.9481C42.0327 47.7516 40.5683 49.2158 38.7648 49.2158C37.1967 49.2158 35.885 48.1088 35.5694 46.6343H30.9355C30.7535 46.6343 30.5789 46.562 30.4502 46.4333C30.3215 46.3046 30.2492 46.1301 30.2492 45.9481V37.6944C29.219 38.1243 28.4225 39.1147 28.4225 40.4325C28.4225 41.4135 27.6293 42.2034 26.6515 42.2034H23.3487C22.3709 42.2034 21.5778 41.4135 21.5778 40.4325C21.5778 39.113 20.7813 38.122 19.751 37.6925V45.9481C19.751 46.1301 19.6787 46.3046 19.55 46.4333C19.4213 46.562 19.2467 46.6343 19.0647 46.6343H14.4308C14.1152 48.1088 12.8035 49.2158 11.2354 49.2158C9.43188 49.2158 7.96756 47.7516 7.96756 45.9481C7.96756 44.1445 9.43188 42.6803 11.2354 42.6803C12.8035 42.6803 14.1152 43.7873 14.4308 45.2618H18.3784V37.465C17.7169 37.512 17.0557 37.7856 16.5084 38.3329C15.8172 39.0241 14.6958 39.0241 14.0047 38.3331L11.6674 35.9977C10.9765 35.3067 10.9765 34.1828 11.6674 33.4918C12.4333 32.7259 12.6626 31.736 12.4844 30.8344H4.73844V33.7437C6.21295 34.0593 7.31991 35.371 7.31991 36.9391C7.31991 38.7427 5.8557 40.2069 4.05217 40.2069C2.24864 40.2069 0.784424 38.7427 0.784424 36.9391C0.784424 35.371 1.89138 34.0593 3.36589 33.7437V30.1482C3.36589 29.9661 3.4382 29.7916 3.5669 29.6629C3.6956 29.5342 3.87016 29.4619 4.05217 29.4619H11.8277C11.3053 28.8402 10.5226 28.4225 9.56776 28.4225C8.58991 28.4225 7.79678 27.6293 7.79678 26.6515V23.3487C7.79678 22.3709 8.58991 21.5778 9.56776 21.5778C10.5226 21.5778 11.3053 21.16 11.8277 20.5383H4.05217C3.87016 20.5383 3.6956 20.466 3.5669 20.3373C3.4382 20.2086 3.36589 20.0341 3.36589 19.8521V16.2565ZM36.8696 45.9481C36.8696 46.994 37.7188 47.8433 38.7648 47.8433C39.8109 47.8433 40.6601 46.994 40.6601 45.9481C40.6601 44.9021 39.8109 44.0529 38.7648 44.0529C37.7188 44.0529 36.8696 44.9021 36.8696 45.9481ZM13.1306 45.9481C13.1306 44.9021 12.2814 44.0529 11.2354 44.0529C10.1893 44.0529 9.34011 44.9021 9.34011 45.9481C9.34011 46.994 10.1893 47.8433 11.2354 47.8433C12.2814 47.8433 13.1306 46.994 13.1306 45.9481ZM4.05217 35.0439C3.00619 35.0439 2.15697 35.8932 2.15697 36.9391C2.15697 37.9851 3.00619 38.8343 4.05217 38.8343C5.09815 38.8343 5.94737 37.9851 5.94737 36.9391C5.94737 35.8932 5.09815 35.0439 4.05217 35.0439ZM44.0529 13.0611C44.0529 14.1071 44.9021 14.9563 45.9481 14.9563C46.994 14.9563 47.8433 14.1071 47.8433 13.0611C47.8433 12.0151 46.994 11.1659 45.9481 11.1659C44.9021 11.1659 44.0529 12.0151 44.0529 13.0611ZM2.15697 13.0611C2.15697 14.1071 3.00619 14.9563 4.05217 14.9563C5.09815 14.9563 5.94737 14.1071 5.94737 13.0611C5.94737 12.0151 5.09815 11.1659 4.05217 11.1659C3.00619 11.1659 2.15697 12.0151 2.15697 13.0611ZM44.0529 36.9391C44.0529 37.9851 44.9021 38.8343 45.9481 38.8343C46.994 38.8343 47.8433 37.9851 47.8433 36.9391C47.8433 35.8932 46.994 35.0439 45.9481 35.0439C44.9021 35.0439 44.0529 35.8932 44.0529 36.9391ZM40.4325 27.0499C40.4848 27.05 40.5366 27.0397 40.585 27.0197C40.6334 26.9997 40.6773 26.9703 40.7143 26.9333C40.7513 26.8963 40.7807 26.8524 40.8007 26.804C40.8207 26.7557 40.8309 26.7038 40.8309 26.6515V23.3487C40.8309 23.2964 40.8207 23.2446 40.8007 23.1962C40.7807 23.1478 40.7513 23.1039 40.7143 23.0669C40.6773 23.0299 40.6334 23.0005 40.585 22.9805C40.5366 22.9605 40.4848 22.9503 40.4325 22.9503C36.5699 22.9503 34.6304 18.2697 37.3623 15.538C37.4369 15.4633 37.4788 15.3621 37.4788 15.2565C37.4788 15.151 37.4369 15.0498 37.3623 14.9751L35.0271 12.638C34.9521 12.5631 34.8506 12.5211 34.7447 12.5211C34.6388 12.5211 34.5372 12.5631 34.4623 12.638C31.7305 15.3698 27.0499 13.4327 27.0499 9.56776C27.0499 9.4621 27.0079 9.36077 26.9332 9.28605C26.8585 9.21134 26.7571 9.16935 26.6515 9.16933H23.3487C23.2431 9.16935 23.1417 9.21134 23.067 9.28605C22.9923 9.36077 22.9503 9.4621 22.9503 9.56776C22.9503 13.4327 18.2697 15.3698 15.538 12.638C15.4633 12.5633 15.3621 12.5214 15.2565 12.5214C15.151 12.5214 15.0498 12.5633 14.9751 12.638L12.638 14.9751C12.5633 15.0498 12.5214 15.151 12.5214 15.2565C12.5214 15.3621 12.5633 15.4633 12.638 15.538C15.3698 18.2697 13.4327 22.9503 9.56776 22.9503C9.4621 22.9503 9.36077 22.9923 9.28605 23.067C9.21134 23.1417 9.16935 23.2431 9.16933 23.3487V26.6515C9.16935 26.7571 9.21134 26.8585 9.28605 26.9332C9.36077 27.0079 9.4621 27.0499 9.56776 27.0499C13.4327 27.0499 15.3698 31.7305 12.638 34.4623C12.5631 34.5372 12.5211 34.6388 12.5211 34.7447C12.5211 34.8506 12.5631 34.9521 12.638 35.0271L14.9751 37.3623C15.0498 37.4369 15.151 37.4788 15.2565 37.4788C15.3621 37.4788 15.4633 37.4369 15.538 37.3623C18.2721 34.6282 22.9503 36.5652 22.9503 40.4325C22.9503 40.4848 22.9605 40.5366 22.9805 40.585C23.0005 40.6334 23.0299 40.6773 23.0669 40.7143C23.1039 40.7513 23.1478 40.7807 23.1962 40.8007C23.2446 40.8207 23.2964 40.8309 23.3487 40.8309H26.6515C26.7038 40.8309 26.7557 40.8207 26.804 40.8007C26.8524 40.7807 26.8963 40.7513 26.9333 40.7143C26.9703 40.6773 26.9997 40.6334 27.0197 40.585C27.0397 40.5366 27.05 40.4848 27.0499 40.4325C27.0499 36.5699 31.7305 34.6304 34.4623 37.3623C34.5372 37.4371 34.6388 37.4791 34.7447 37.4791C34.8506 37.4791 34.9521 37.4371 35.0271 37.3623L37.3623 35.0271C37.4371 34.9521 37.4791 34.8506 37.4791 34.7447C37.4791 34.6388 37.4371 34.5372 37.3623 34.4623C34.6304 31.7305 36.5699 27.0499 40.4325 27.0499ZM25.0011 33.6235C20.2511 33.6235 16.3786 29.7489 16.3786 25.0011C16.3786 20.2511 20.2511 16.3786 25.0011 16.3786C29.7489 16.3786 33.6235 20.2511 33.6235 25.0011C33.6235 29.7489 29.7489 33.6235 25.0011 33.6235ZM25.0011 32.251C28.9932 32.251 32.251 28.9932 32.251 25.0011C32.251 21.0073 28.9932 17.7512 25.0011 17.7512C21.0073 17.7512 17.7512 21.0073 17.7512 25.0011C17.7512 28.9932 21.0073 32.251 25.0011 32.251ZM27.9329 22.4786C28.0642 22.3527 28.2402 22.284 28.4221 22.2877C28.604 22.2914 28.777 22.3672 28.9032 22.4983C29.0291 22.6297 29.0978 22.8057 29.0941 22.9876C29.0904 23.1696 29.0147 23.3426 28.8834 23.4687L24.6627 27.5216C24.5356 27.6435 24.3666 27.712 24.1905 27.7128C24.0144 27.7136 23.8447 27.6467 23.7166 27.5259L21.1213 25.0791C20.9889 24.9542 20.9115 24.7819 20.9062 24.6C20.9008 24.4181 20.968 24.2415 21.0928 24.109C21.2176 23.9767 21.39 23.8993 21.5719 23.8939C21.7538 23.8886 21.9304 23.9556 22.0629 24.0804L24.183 26.0792L27.9329 22.4786ZM11.2354 2.15697C10.1893 2.15697 9.34011 3.00619 9.34011 4.05217C9.34011 5.09815 10.1893 5.94737 11.2354 5.94737C12.2814 5.94737 13.1306 5.09815 13.1306 4.05217C13.1306 3.00619 12.2814 2.15697 11.2354 2.15697ZM38.7648 2.15697C37.7188 2.15697 36.8696 3.00619 36.8696 4.05217C36.8696 5.09815 37.7188 5.94737 38.7648 5.94737C39.8109 5.94737 40.6601 5.09815 40.6601 4.05217C40.6601 3.00619 39.8109 2.15697 38.7648 2.15697Z" fill="#043070"/>
</g>
<defs>
<clipPath id="clip0_1111_417">
<rect width="50" height="50" fill="white"/>
</clipPath>
</defs>
</svg>
