<svg width="50" height="50" viewBox="0 0 50 50" fill="none" xmlns="http://www.w3.org/2000/svg">
<path fill-rule="evenodd" clip-rule="evenodd" d="M32.0808 35.4567H31.9043V26.6303L31.9044 12.5292C31.9046 12.3993 31.9563 12.2747 32.0482 12.1829C32.1401 12.091 32.2646 12.0393 32.3945 12.0391H42.3899C43.3898 12.0391 44.2425 12.572 44.6041 13.4233L48.3678 22.2854C48.4791 22.5475 48.5285 22.7881 48.5285 23.0693V27.1382H46.1206C45.7593 27.1382 45.4646 27.4329 45.4646 27.7943V30.5497C45.4646 30.9109 45.7593 31.2056 46.1206 31.2056H48.5285V34.0335C48.5285 34.3547 48.4212 34.6516 48.2405 34.8902V33.2498H43.3042C42.6158 32.2882 41.4893 31.6616 40.2165 31.6616C38.9436 31.6616 37.8171 32.2882 37.1286 33.2498H32.0808V35.4567ZM44.8255 21.4062L42.2635 15.3739C42.1535 15.1148 41.9131 14.9558 41.6317 14.9558H35.5073C35.1295 14.9558 34.8212 15.2641 34.8212 15.6421V21.6746C34.8212 22.0525 35.1295 22.3608 35.5073 22.3608H44.1938C44.4311 22.3608 44.6353 22.2511 44.7661 22.0533C44.8971 21.8553 44.9181 21.6247 44.8255 21.4062Z" fill="#6AB0E5"/>
<path fill-rule="evenodd" clip-rule="evenodd" d="M40.2164 31.6588C42.3124 31.6588 44.0114 33.3578 44.0114 35.4539C44.0114 37.5499 42.3124 39.2489 40.2164 39.2489C38.1205 39.2489 36.4213 37.5499 36.4213 35.4539C36.4213 33.3578 38.1205 31.6588 40.2164 31.6588ZM40.2164 34.1608C39.5017 34.1608 38.9235 34.7392 38.9235 35.4539C38.9235 36.1684 39.5017 36.7468 40.2164 36.7468C40.931 36.7468 41.5095 36.1685 41.5095 35.4539C41.5095 34.7392 40.931 34.1608 40.2164 34.1608ZM12.9188 31.6588C15.0149 31.6588 16.7138 33.3578 16.7138 35.4539C16.7138 37.5499 15.0149 39.2489 12.9188 39.2489C10.8228 39.2489 9.1237 37.5499 9.1237 35.4539C9.1237 33.3578 10.8228 31.6588 12.9188 31.6588ZM12.9188 34.1608C12.2042 34.1608 11.6259 34.7392 11.6259 35.4539C11.6259 36.1684 12.2042 36.7468 12.9188 36.7468C13.6334 36.7468 14.2118 36.1685 14.2118 35.4539C14.2118 34.7392 13.6334 34.1608 12.9188 34.1608ZM10.8645 22.3989C10.8645 22.3165 10.8317 22.2376 10.7735 22.1794C10.7153 22.1211 10.6363 22.0884 10.554 22.0884H5.84174C5.80096 22.0884 5.76056 22.0964 5.72288 22.1119C5.68519 22.1275 5.65094 22.1504 5.6221 22.1792C5.59326 22.2081 5.5704 22.2423 5.55481 22.28C5.53922 22.3177 5.53121 22.3581 5.53125 22.3989V24.637C5.53125 24.6778 5.53928 24.7182 5.55489 24.7558C5.57049 24.7935 5.59336 24.8277 5.6222 24.8565C5.65103 24.8854 5.68526 24.9082 5.72293 24.9238C5.7606 24.9394 5.80097 24.9474 5.84174 24.9474H10.554C10.6363 24.9474 10.7153 24.9147 10.7735 24.8565C10.8317 24.7983 10.8644 24.7193 10.8645 24.637V22.3989ZM19.3537 14.6464C19.3537 14.6057 19.3457 14.5653 19.3301 14.5276C19.3145 14.4899 19.2916 14.4557 19.2628 14.4268C19.234 14.398 19.1997 14.3751 19.162 14.3595C19.1244 14.3439 19.084 14.3359 19.0432 14.3359H14.331C14.2486 14.336 14.1697 14.3687 14.1114 14.4269C14.0532 14.4851 14.0205 14.5641 14.0205 14.6464V16.8846C14.0204 16.9253 14.0285 16.9657 14.044 17.0034C14.0596 17.0411 14.0825 17.0753 14.1113 17.1042C14.1402 17.133 14.1744 17.1559 14.2121 17.1715C14.2498 17.1871 14.2902 17.1951 14.331 17.1951H19.0432C19.084 17.1951 19.1244 17.187 19.162 17.1714C19.1997 17.1558 19.234 17.133 19.2628 17.1041C19.2916 17.0753 19.3145 17.0411 19.3301 17.0034C19.3457 16.9657 19.3537 16.9253 19.3537 16.8846V14.6464ZM27.8428 19.5398C27.8428 19.4574 27.8101 19.3785 27.7519 19.3203C27.6937 19.2621 27.6147 19.2294 27.5324 19.2294H22.8201C22.7793 19.2293 22.7389 19.2374 22.7012 19.2529C22.6636 19.2685 22.6293 19.2914 22.6005 19.3202C22.5717 19.349 22.5488 19.3833 22.5332 19.4209C22.5176 19.4586 22.5096 19.499 22.5096 19.5398V21.7779C22.5096 21.8602 22.5423 21.9392 22.6006 21.9974C22.6588 22.0556 22.7377 22.0884 22.8201 22.0884H27.5324C27.6148 22.0883 27.6937 22.0556 27.7519 21.9974C27.8101 21.9392 27.8428 21.8602 27.8428 21.7779V19.5398Z" fill="#6AB0E5"/>
<path fill-rule="evenodd" clip-rule="evenodd" d="M0.685547 21.1371L0.685645 5.94838C0.685645 5.74036 0.768278 5.54087 0.915365 5.39378C1.06245 5.2467 1.26195 5.16406 1.46996 5.16406H30.007C31.484 5.16406 32.6888 6.36887 32.6888 7.84583V11.2534H42.3902C43.7214 11.2534 44.845 11.9822 45.3262 13.1154L49.09 21.9776C49.2448 22.3424 49.313 22.6769 49.313 23.068V34.0321C49.313 35.248 48.3214 36.2397 47.1055 36.2397H44.7292C44.3572 38.3951 42.4785 40.0347 40.2166 40.0347C37.9549 40.0347 36.0762 38.3951 35.7043 36.2397H17.4315C17.0596 38.3951 15.1807 40.0347 12.919 40.0347C10.6572 40.0347 8.77849 38.3951 8.40653 36.2397H3.36741C1.89035 36.2397 0.685547 35.0349 0.685547 33.5579V21.1371ZM30.007 6.73269H2.25427L2.25417 21.1371V32.7736H9.20663C10.0385 31.6239 11.3914 30.8759 12.919 30.8759C14.4466 30.8759 15.7995 31.6239 16.6314 32.7736H31.1202V7.84583C31.1202 7.23279 30.6201 6.73269 30.007 6.73269ZM47.7444 26.3116V23.068C47.7444 22.8967 47.7139 22.7503 47.646 22.5905L43.8825 13.7287C43.6407 13.1596 43.0588 12.822 42.3902 12.822H32.6888V32.7736H36.5043C37.3362 31.6239 38.6891 30.8759 40.2166 30.8759C41.7443 30.8759 43.0971 31.6239 43.9291 32.7736H47.7444V31.9475H46.1209C45.3275 31.9475 44.6805 31.3004 44.6805 30.5072V27.7519C44.6805 26.9587 45.3275 26.3116 46.1209 26.3116H47.7444ZM47.7444 30.3789V27.8801H46.2492V30.3789H47.7444ZM44.7292 34.671H47.1055C47.2194 34.6709 47.3312 34.6403 47.4294 34.5825C47.5275 34.5247 47.6084 34.4417 47.6638 34.3422H44.6599C44.687 34.4509 44.7101 34.5606 44.7292 34.671ZM35.7043 34.671C35.7234 34.56 35.7466 34.4503 35.7736 34.3422H32.6888V34.671H35.7043ZM17.4315 34.671H31.1202V34.3422H17.3622C17.3893 34.4509 17.4124 34.5606 17.4315 34.671ZM8.40653 34.671C8.42564 34.56 8.44888 34.4503 8.47584 34.3422H2.57868C2.6819 34.4464 2.80475 34.5291 2.94013 34.5856C3.07551 34.642 3.22074 34.671 3.36741 34.671H8.40653ZM40.2166 32.4446C38.5538 32.4446 37.2059 33.7926 37.2059 35.4553C37.2059 37.1182 38.5539 38.466 40.2166 38.466C41.8796 38.466 43.2274 37.1182 43.2274 35.4553C43.2274 33.7925 41.8796 32.4446 40.2166 32.4446ZM40.2166 34.1623C40.9312 34.1623 41.5097 34.7406 41.5097 35.4553C41.5097 36.1699 40.9312 36.7483 40.2166 36.7483C39.502 36.7483 38.9237 36.1699 38.9237 35.4553C38.9237 34.7407 39.502 34.1623 40.2166 34.1623ZM12.919 32.4446C11.2561 32.4446 9.90819 33.7925 9.90819 35.4553C9.90819 37.1182 11.2561 38.466 12.919 38.466C14.5818 38.466 15.9298 37.1182 15.9298 35.4553C15.9298 33.7925 14.5818 32.4446 12.919 32.4446ZM12.919 34.1623C13.6337 34.1623 14.212 34.7406 14.212 35.4553C14.212 36.1699 13.6337 36.7483 12.919 36.7483C12.2044 36.7483 11.626 36.1699 11.626 35.4553C11.626 34.7407 12.2044 34.1623 12.919 34.1623ZM15.9029 17.9809H14.0206C13.8126 17.9809 13.6131 17.8983 13.4661 17.7512C13.319 17.6041 13.2363 17.4046 13.2363 17.1966V14.3375C13.2363 14.1295 13.319 13.93 13.4661 13.7829C13.6131 13.6358 13.8126 13.5532 14.0206 13.5532H15.9029V12.1501C15.9029 11.7173 16.2544 11.3658 16.6872 11.3658C17.1201 11.3658 17.4715 11.7173 17.4715 12.1501V13.5532H19.3539C19.5619 13.5532 19.7614 13.6358 19.9085 13.7829C20.0556 13.93 20.1382 14.1295 20.1382 14.3375V17.1966C20.1382 17.4046 20.0556 17.6041 19.9085 17.7512C19.7614 17.8983 19.5619 17.9809 19.3539 17.9809H17.4715V27.356C17.4715 27.789 17.1201 28.1403 16.6872 28.1403C16.2544 28.1403 15.9029 27.789 15.9029 27.356V17.9809ZM18.5696 15.1218H14.805V16.4123H18.5696V15.1218ZM7.41368 25.7333H5.53143C5.32342 25.7333 5.12392 25.6506 4.97684 25.5036C4.82975 25.3565 4.74712 25.157 4.74712 24.949V22.0899C4.74712 21.8819 4.82975 21.6824 4.97684 21.5354C5.12392 21.3883 5.32342 21.3056 5.53143 21.3056H7.41368V12.1501C7.41368 11.7173 7.76515 11.3658 8.198 11.3658C8.63094 11.3658 8.98231 11.7173 8.98231 12.1501V21.3056H10.8647C11.0727 21.3056 11.2722 21.3883 11.4193 21.5354C11.5663 21.6824 11.649 21.8819 11.649 22.0899V24.949C11.649 25.157 11.5663 25.3565 11.4193 25.5036C11.2722 25.6506 11.0727 25.7333 10.8647 25.7333H8.98231V27.356C8.98231 27.789 8.63094 28.1403 8.198 28.1403C7.76515 28.1403 7.41368 27.789 7.41368 27.356V25.7333ZM10.0804 22.8743H6.31574V24.1647H10.0804V22.8743ZM24.3921 22.8743H22.5098C22.3017 22.8743 22.1023 22.7916 21.9552 22.6445C21.8081 22.4975 21.7254 22.298 21.7254 22.0899V19.2309C21.7254 19.0229 21.8081 18.8234 21.9552 18.6763C22.1023 18.5292 22.3017 18.4466 22.5098 18.4466H24.3921V12.1501C24.3921 11.7173 24.7435 11.3658 25.1764 11.3658C25.6093 11.3658 25.9607 11.7173 25.9607 12.1501V18.4466H27.843C28.051 18.4466 28.2505 18.5292 28.3976 18.6763C28.5447 18.8234 28.6273 19.0229 28.6273 19.2309V22.0899C28.6273 22.298 28.5447 22.4975 28.3976 22.6445C28.2505 22.7916 28.051 22.8743 27.843 22.8743H25.9607V27.356C25.9607 27.789 25.6093 28.1403 25.1764 28.1403C24.7435 28.1403 24.3921 27.789 24.3921 27.356V22.8743ZM27.0587 20.0152H23.2941V21.3056H27.0587V20.0152ZM45.231 23.1439H34.8213C34.6133 23.1439 34.4138 23.0612 34.2667 22.9141C34.1196 22.7671 34.037 22.5676 34.037 22.3596V14.9546C34.037 14.7465 34.1196 14.547 34.2667 14.4C34.4138 14.2529 34.6133 14.1702 34.8213 14.1702H42.0861C42.2401 14.1703 42.3906 14.2156 42.519 14.3005C42.6474 14.3855 42.7479 14.5063 42.8081 14.648L45.953 22.053C46.0036 22.1723 46.0239 22.3022 46.012 22.4312C46.0001 22.5602 45.9565 22.6843 45.885 22.7923C45.8135 22.9004 45.7164 22.989 45.6022 23.0504C45.4881 23.1117 45.3606 23.1438 45.231 23.1439ZM44.0458 21.5752L41.5671 15.7389H35.6056V21.5752H44.0458ZM30.8998 40.5674C31.3326 40.5674 31.6841 40.9188 31.6841 41.3517C31.6841 41.7846 31.3326 42.136 30.8998 42.136H9.44065C9.0078 42.136 8.65633 41.7846 8.65633 41.3517C8.65633 40.9188 9.0078 40.5674 9.44065 40.5674H30.8998ZM46.2454 40.5674C46.6783 40.5674 47.0297 40.9188 47.0297 41.3517C47.0297 41.7846 46.6783 42.136 46.2454 42.136H33.7166C33.2837 42.136 32.9323 41.7846 32.9323 41.3517C32.9323 40.9188 33.2837 40.5674 33.7166 40.5674H46.2454ZM11.3764 43.2625C11.8093 43.2625 12.1607 43.614 12.1607 44.0468C12.1607 44.4797 11.8093 44.8311 11.3764 44.8311H4.4177C3.98476 44.8311 3.63339 44.4797 3.63339 44.0468C3.63339 43.614 3.98476 43.2625 4.4177 43.2625H11.3764ZM41.2224 43.2625C41.6553 43.2625 42.0067 43.614 42.0067 44.0468C42.0067 44.4797 41.6553 44.8311 41.2224 44.8311H16.6872C16.2544 44.8311 15.9029 44.4797 15.9029 44.0468C15.9029 43.614 16.2544 43.2625 16.6872 43.2625H41.2224Z" fill="#043070"/>
</svg>
