<svg width="50" height="50" viewBox="0 0 50 50" fill="none" xmlns="http://www.w3.org/2000/svg">
<path d="M18.6222 4.69517L18.1931 5.86079C20.3214 5.10376 22.6126 4.69028 25.0007 4.69028C28.8866 4.69028 32.517 5.78228 35.6034 7.67505L35.3849 4.24321L36.652 4.32388C33.2102 2.38022 29.2354 1.26978 25.0007 1.26978C22.2544 1.26978 19.6178 1.73784 17.1644 2.59595L18.4415 3.873C18.547 3.97849 18.62 4.11199 18.6521 4.2577C18.6841 4.40341 18.6737 4.55515 18.6222 4.69517ZM39.3604 10.6391C43.0362 14.3145 45.3107 19.3914 45.3107 25.0001C45.3107 27.3888 44.897 29.6805 44.1396 31.8092L45.3038 31.38C45.4438 31.3284 45.5957 31.3179 45.7415 31.3499C45.8873 31.3819 46.0209 31.455 46.1264 31.5606L47.4043 32.8384C48.2629 30.3844 48.7313 27.7471 48.7313 25C48.7313 18.4466 46.0726 12.5161 41.7777 8.22183L41.78 8.21948L43.6664 6.33608L37.0572 5.91528L37.478 12.5245L39.3605 10.6391H39.3604ZM31.3793 45.3051L31.8084 44.1396C29.68 44.8966 27.3888 45.3101 25.0007 45.3101C21.1139 45.3101 17.4826 44.2175 14.3958 42.3239L14.6128 45.7564L13.3494 45.6765C16.7913 47.6203 20.766 48.7307 25.0006 48.7307C27.7469 48.7307 30.3835 48.2626 32.837 47.4045L31.5599 46.1275C31.4544 46.022 31.3813 45.8885 31.3493 45.7428C31.3173 45.5971 31.3276 45.4452 31.3792 45.3052L31.3793 45.3051ZM10.6405 39.359C6.96548 35.6838 4.69087 30.6083 4.69087 25.0001C4.69087 22.612 5.10435 20.3207 5.86147 18.1923L4.69546 18.6234C4.55523 18.6752 4.40307 18.6857 4.25704 18.6537C4.11101 18.6216 3.97725 18.5483 3.87163 18.4425L2.59614 17.1648C1.73823 19.618 1.27026 22.2542 1.27026 25.0002C1.27026 31.5537 3.92759 37.4855 8.22251 41.7798L8.22153 41.7808L6.33521 43.6671L12.9416 44.085L12.5237 37.4787L10.6405 39.359Z" fill="#043070"/>
<path d="M39.9909 35.8584C37.7117 35.8584 35.8574 37.7126 35.8574 39.9918C35.8574 42.271 37.7117 44.1253 39.9909 44.1253C42.2701 44.1253 44.1243 42.271 44.1243 39.9918C44.1243 37.7126 42.2701 35.8584 39.9909 35.8584ZM39.9909 42.5021C38.6026 42.5021 37.4807 41.3801 37.4807 39.9919C37.4807 38.6037 38.6027 37.4816 39.9909 37.4816C41.3791 37.4816 42.5041 38.6037 42.5041 39.9919C42.5041 41.3801 41.3792 42.5021 39.9909 42.5021Z" fill="#6AB0E5"/>
<path d="M46.2968 36.4166L46.9637 34.6076L45.3751 33.019L43.5662 33.6859L41.9232 33.0047L41.116 31.2529H38.869L38.0589 33.0047L36.4188 33.6859L34.6069 33.019L33.0183 34.6076L33.6852 36.4166L33.004 38.0596L31.2522 38.8668V41.1138L33.004 41.9238L33.6852 43.564L33.0183 45.3759L34.6069 46.9645L36.4188 46.2976L38.0589 46.9788L38.869 48.7306H41.116L41.9232 46.9788L43.5662 46.2976L45.3751 46.9645L46.9637 45.3759L46.2968 43.564L46.9781 41.9238L48.7298 41.1138V38.8668L46.9781 38.0596L46.2968 36.4166ZM39.991 45.6876C36.8501 45.6876 34.295 43.1324 34.295 39.9916C34.295 36.8508 36.8501 34.2957 39.991 34.2957C43.1318 34.2957 45.6869 36.8509 45.6869 39.9916C45.6869 43.1323 43.1317 45.6876 39.991 45.6876Z" fill="#6AB0E5"/>
<path d="M35.62 18.149V15.2695C35.62 14.1 34.6686 13.1487 33.4992 13.1487H18.1864L17.9936 13.6158L18.795 15.7894L18.6566 15.928H26.02C26.2272 15.928 26.4259 16.0103 26.5724 16.1568C26.7189 16.3033 26.8012 16.502 26.8012 16.7092C26.8012 16.9164 26.7189 17.1151 26.5724 17.2617C26.4259 17.4082 26.2272 17.4905 26.02 17.4905H18.6463C18.4411 17.4904 18.2442 17.4096 18.0981 17.2655C17.952 17.1214 17.8685 16.9256 17.8657 16.7204L15.7927 18.797L14.3858 18.2769C14.4359 19.1151 14.9752 19.8231 15.7211 20.12V21.5907C14.9374 21.9025 14.3816 22.6682 14.3816 23.5618V26.4384C14.3816 27.332 14.9374 28.0977 15.7211 28.4095V29.8803C14.9374 30.1925 14.3816 30.9592 14.3816 31.8541V34.7307C14.3816 35.9001 15.333 36.8516 16.5024 36.8516H31.8134L32.0076 36.3833L31.2063 34.2099L31.344 34.0722H30.9083C30.7011 34.0722 30.5023 33.9899 30.3558 33.8434C30.2093 33.6969 30.127 33.4982 30.127 33.291C30.127 33.0838 30.2093 32.8851 30.3558 32.7385C30.5023 32.592 30.7011 32.5097 30.9083 32.5097H31.3553C31.5606 32.5097 31.7576 32.5906 31.9037 32.7348C32.0498 32.879 32.1333 33.075 32.136 33.2802L34.2087 31.2075L35.6158 31.7253C35.5654 30.8863 35.0262 30.1776 34.2804 29.8804V28.4095C35.0642 28.0977 35.62 27.3321 35.62 26.4384V23.5618C35.62 22.6682 35.0642 21.9025 34.2804 21.5907V20.1201C35.0642 19.8083 35.62 19.0426 35.62 18.149ZM30.9082 15.928H31.3552C31.5624 15.928 31.7611 16.0103 31.9077 16.1568C32.0542 16.3033 32.1365 16.502 32.1365 16.7092C32.1365 16.9164 32.0542 17.1151 31.9077 17.2617C31.7611 17.4082 31.5624 17.4905 31.3552 17.4905H30.9082C30.701 17.4905 30.5022 17.4082 30.3557 17.2617C30.2092 17.1151 30.1269 16.9164 30.1269 16.7092C30.1269 16.502 30.2092 16.3033 30.3557 16.1568C30.5022 16.0103 30.701 15.928 30.9082 15.928ZM28.2418 15.928H28.6862C28.8934 15.928 29.0921 16.0103 29.2386 16.1568C29.3851 16.3033 29.4674 16.502 29.4674 16.7092C29.4674 16.9164 29.3851 17.1151 29.2386 17.2617C29.0921 17.4082 28.8934 17.4905 28.6862 17.4905H28.2418C28.0346 17.4905 27.8359 17.4082 27.6894 17.2617C27.5429 17.1151 27.4606 16.9164 27.4606 16.7092C27.4606 16.502 27.5429 16.3033 27.6894 16.1568C27.8359 16.0103 28.0346 15.928 28.2418 15.928ZM32.7179 20.2698V21.4409H17.2836V20.2698H32.7179ZM32.1365 25.0015C32.1365 25.2087 32.0542 25.4074 31.9077 25.5539C31.7611 25.7005 31.5624 25.7828 31.3552 25.7828H30.9082C30.701 25.7828 30.5022 25.7005 30.3557 25.5539C30.2092 25.4074 30.1269 25.2087 30.1269 25.0015C30.1269 24.7943 30.2092 24.5956 30.3557 24.4491C30.5022 24.3026 30.701 24.2203 30.9082 24.2203H31.3552C31.5624 24.2203 31.7611 24.3026 31.9077 24.4491C32.0542 24.5956 32.1365 24.7943 32.1365 25.0015ZM29.4675 25.0015C29.4675 25.2087 29.3852 25.4074 29.2387 25.5539C29.0922 25.7005 28.8935 25.7828 28.6863 25.7828H28.2419C28.0347 25.7828 27.836 25.7005 27.6895 25.5539C27.543 25.4074 27.4607 25.2087 27.4607 25.0015C27.4607 24.7943 27.543 24.5956 27.6895 24.4491C27.836 24.3026 28.0347 24.2203 28.2419 24.2203H28.6863C28.8935 24.2203 29.0922 24.3026 29.2387 24.4491C29.3852 24.5956 29.4675 24.7943 29.4675 25.0015ZM26.8011 25.0015C26.8011 25.2087 26.7188 25.4074 26.5723 25.5539C26.4258 25.7005 26.2271 25.7828 26.0199 25.7828H18.6462C18.439 25.7828 18.2403 25.7005 18.0938 25.5539C17.9473 25.4074 17.865 25.2087 17.865 25.0015C17.865 24.7943 17.9473 24.5956 18.0938 24.4491C18.2403 24.3026 18.439 24.2203 18.6462 24.2203H26.0199C26.2271 24.2203 26.4258 24.3026 26.5723 24.4491C26.7188 24.5956 26.8011 24.7943 26.8011 25.0015ZM26.0199 34.0721H18.6462C18.439 34.0721 18.2403 33.9898 18.0938 33.8433C17.9473 33.6968 17.865 33.4981 17.865 33.2909C17.865 33.0837 17.9473 32.885 18.0938 32.7384C18.2403 32.5919 18.439 32.5096 18.6462 32.5096H26.0199C26.2271 32.5096 26.4258 32.5919 26.5723 32.7384C26.7188 32.885 26.8011 33.0837 26.8011 33.2909C26.8011 33.4981 26.7188 33.6968 26.5723 33.8433C26.4258 33.9898 26.2271 34.0721 26.0199 34.0721ZM28.6863 34.0721H28.2419C28.0347 34.0721 27.836 33.9898 27.6895 33.8433C27.543 33.6968 27.4607 33.4981 27.4607 33.2909C27.4607 33.0837 27.543 32.885 27.6895 32.7384C27.836 32.5919 28.0347 32.5096 28.2419 32.5096H28.6863C28.8935 32.5096 29.0922 32.5919 29.2387 32.7384C29.3852 32.885 29.4675 33.0837 29.4675 33.2909C29.4675 33.4981 29.3852 33.6968 29.2387 33.8433C29.0922 33.9898 28.8935 34.0721 28.6863 34.0721ZM17.2836 29.7303V28.5592H32.7179V29.7303H17.2836Z" fill="#043070"/>
<path d="M3.70181 13.5835L3.03491 15.3925L4.62349 16.984L6.4354 16.3142L8.07554 16.9954L8.8856 18.7472H11.1326L11.9398 16.9954L13.5828 16.3142L15.3947 16.984L16.9833 15.3925L16.3164 13.5835L16.9948 11.9405L18.7465 11.1333V8.88633L16.9948 8.07627L16.3164 6.43613L16.9833 4.62422L15.3947 3.03564L13.5828 3.70254L11.9398 3.02412L11.1326 1.26953H8.8856L8.07554 3.02412L6.4354 3.70254L4.62349 3.03564L3.03491 4.62422L3.70181 6.43613L3.02339 8.07627L1.2688 8.88633V11.1333L3.02339 11.9405L3.70181 13.5835ZM10.0076 4.3125C13.15 4.3125 15.7064 6.86768 15.7064 10.0085C15.7064 13.1493 13.15 15.7044 10.0076 15.7044C6.86519 15.7044 4.31167 13.1492 4.31167 10.0085C4.31167 6.86777 6.86685 4.3125 10.0076 4.3125Z" fill="#6AB0E5"/>
<path d="M10.0077 14.1419C12.2884 14.1419 14.144 12.2877 14.144 10.0085C14.144 7.7293 12.2884 5.875 10.0077 5.875C7.7269 5.875 5.87427 7.7293 5.87427 10.0085C5.87427 12.2877 7.72847 14.1419 10.0077 14.1419ZM10.0077 7.49814C11.3959 7.49814 12.5208 8.62305 12.5208 10.0085C12.5208 11.3939 11.3959 12.5217 10.0077 12.5217C8.61938 12.5217 7.49731 11.3968 7.49731 10.0085C7.49731 8.62021 8.62222 7.49814 10.0077 7.49814Z" fill="#6AB0E5"/>
</svg>
