<svg width="50" height="50" viewBox="0 0 50 50" fill="none" xmlns="http://www.w3.org/2000/svg">
<path d="M25 44.5312C11.6461 44.5312 0.78125 37.8727 0.78125 29.6875C0.78125 21.5023 11.6461 14.8438 25 14.8438C38.3539 14.8438 49.2188 21.5023 49.2188 29.6875C49.2188 37.8727 38.3539 44.5312 25 44.5312ZM25 16.4062C12.507 16.4062 2.34375 22.3641 2.34375 29.6875C2.34375 37.0109 12.507 42.9688 25 42.9688C37.493 42.9688 47.6562 37.0109 47.6562 29.6875C47.6562 22.3641 37.493 16.4062 25 16.4062Z" fill="#043070"/>
<path d="M25 39.0625C14.4859 39.0625 6.25 34.9445 6.25 29.6875C6.25 24.4305 14.4859 20.3125 25 20.3125C35.5141 20.3125 43.75 24.4305 43.75 29.6875C43.75 34.9445 35.5141 39.0625 25 39.0625ZM25 21.875C15.6836 21.875 7.8125 25.4523 7.8125 29.6875C7.8125 33.9227 15.6836 37.5 25 37.5C34.3164 37.5 42.1875 33.9227 42.1875 29.6875C42.1875 25.4523 34.3164 21.875 25 21.875Z" fill="#043070"/>
<path d="M25 33.5938C18.9797 33.5938 12.5 32.3719 12.5 29.6875C12.5 27.0031 18.9797 25.7812 25 25.7812C31.0203 25.7812 37.5 27.0031 37.5 29.6875C37.5 32.3719 31.0203 33.5938 25 33.5938ZM25 27.3438C17.7836 27.3438 14.0625 28.9844 14.0625 29.6875C14.0625 30.3906 17.7836 32.0312 25 32.0312C32.2164 32.0312 35.9375 30.3906 35.9375 29.6875C35.9375 28.9844 32.2164 27.3438 25 27.3438Z" fill="#043070"/>
<path d="M40.2344 21.0938C41.3131 21.0938 42.1875 20.2193 42.1875 19.1406C42.1875 18.0619 41.3131 17.1875 40.2344 17.1875C39.1557 17.1875 38.2812 18.0619 38.2812 19.1406C38.2812 20.2193 39.1557 21.0938 40.2344 21.0938Z" fill="#6AB0E5"/>
<path d="M6.64062 40.625C7.71931 40.625 8.59375 39.7506 8.59375 38.6719C8.59375 37.5932 7.71931 36.7188 6.64062 36.7188C5.56194 36.7188 4.6875 37.5932 4.6875 38.6719C4.6875 39.7506 5.56194 40.625 6.64062 40.625Z" fill="#6AB0E5"/>
<path d="M20.7031 34.375C21.7818 34.375 22.6562 33.5006 22.6562 32.4219C22.6562 31.3432 21.7818 30.4688 20.7031 30.4688C19.6244 30.4688 18.75 31.3432 18.75 32.4219C18.75 33.5006 19.6244 34.375 20.7031 34.375Z" fill="#6AB0E5"/>
<path d="M13.6719 25C14.7506 25 15.625 24.1256 15.625 23.0469C15.625 21.9682 14.7506 21.0938 13.6719 21.0938C12.5932 21.0938 11.7188 21.9682 11.7188 23.0469C11.7188 24.1256 12.5932 25 13.6719 25Z" fill="#6AB0E5"/>
<path d="M33.9844 39.0625C35.0631 39.0625 35.9375 38.1881 35.9375 37.1094C35.9375 36.0307 35.0631 35.1562 33.9844 35.1562C32.9057 35.1562 32.0312 36.0307 32.0312 37.1094C32.0312 38.1881 32.9057 39.0625 33.9844 39.0625Z" fill="#6AB0E5"/>
<path d="M24.9994 6.25C26.4085 6.2499 27.7923 6.62373 29.0096 7.33334C30.2269 8.04294 31.2341 9.06289 31.9283 10.289C32.6225 11.5152 32.9789 12.9036 32.9611 14.3125C32.9432 15.7215 32.5518 17.1004 31.8268 18.3086L24.9994 29.6875L18.1721 18.3086C17.447 17.1004 17.0556 15.7215 17.0377 14.3125C17.0199 12.9036 17.3763 11.5152 18.0705 10.289C18.7647 9.06289 19.7719 8.04294 20.9892 7.33334C22.2066 6.62373 23.5904 6.2499 24.9994 6.25Z" fill="#6AB0E5"/>
<path d="M31.8272 18.3086C32.3879 17.3732 32.7505 16.3327 32.8925 15.2514C33.0344 14.1701 32.9527 13.0712 32.6523 12.0228C32.352 10.9744 31.8395 9.99888 31.1465 9.15677C30.4536 8.31466 29.595 7.6239 28.624 7.12734C28.2 7.06518 27.7721 7.03307 27.3436 7.03125C21.1545 7.03125 17.3318 13.0016 20.5162 18.3086L26.1717 27.7344L31.8272 18.3086Z" fill="#6AB0E5"/>
<path d="M25 18.1328C27.1574 18.1328 28.9062 16.3839 28.9062 14.2266C28.9062 12.0692 27.1574 10.3203 25 10.3203C22.8426 10.3203 21.0938 12.0692 21.0938 14.2266C21.0938 16.3839 22.8426 18.1328 25 18.1328Z" fill="#043070"/>
</svg>
