<svg width="50" height="50" viewBox="0 0 50 50" fill="none" xmlns="http://www.w3.org/2000/svg">
<path fill-rule="evenodd" clip-rule="evenodd" d="M18.1729 49.2187C26.2979 49.2187 32.9238 46.8145 32.9238 43.8633C32.9238 40.9121 26.2979 38.5078 18.1729 38.5078C10.0479 38.5078 3.42188 40.9131 3.42188 43.8633C3.42188 46.8135 10.0469 49.2187 18.1729 49.2187Z" fill="white"/>
<path fill-rule="evenodd" clip-rule="evenodd" d="M18.1735 43.8633C12.5787 37.2373 2.18029 25.1572 2.27209 16.5137C2.31506 12.4883 3.86291 8.47949 6.91467 5.42773C10.0133 2.3291 14.0914 0.78125 18.1735 0.78125C22.2555 0.78125 26.3365 2.3291 29.4313 5.42676C32.484 8.47949 34.0309 12.4883 34.0738 16.5127C34.1656 25.1572 23.7701 37.2373 18.1735 43.8633Z" fill="#6AB0E5"/>
<path fill-rule="evenodd" clip-rule="evenodd" d="M18.1729 25.8457C23.2217 25.8457 27.3379 21.7295 27.3379 16.6807C27.3379 11.6348 23.2217 7.51562 18.1729 7.51562C13.124 7.51562 9.00781 11.6348 9.00781 16.6807C9.00781 21.7295 13.124 25.8457 18.1729 25.8457ZM39.6865 26.9072L36.25 27.8291L38.6387 36.7383L42.0723 35.8164L39.6865 26.9072Z" fill="white"/>
<path fill-rule="evenodd" clip-rule="evenodd" d="M35.1064 4.0625C28.1338 4.0625 22.4805 9.71289 22.4805 16.6855C22.4805 23.6582 28.1338 29.3115 35.1064 29.3115C42.0791 29.3115 47.7324 23.6582 47.7324 16.6855C47.7324 9.71289 42.0791 4.0625 35.1064 4.0625Z" fill="#6AB0E5"/>
<path fill-rule="evenodd" clip-rule="evenodd" d="M42.1886 33.2216L37.2394 34.5488C36.8311 34.6591 36.586 35.081 36.6964 35.4892L39.2569 45.0468C39.7296 46.8173 41.5675 47.8759 43.336 47.4033C45.1065 46.9277 46.1651 45.0927 45.6925 43.3222L43.1319 33.7675C43.0206 33.3584 42.5968 33.1113 42.1886 33.2216Z" fill="#6AB0E5"/>
<path fill-rule="evenodd" clip-rule="evenodd" d="M28.2148 9.79321C24.4102 13.5979 24.4102 19.7698 28.2148 23.5745C32.0225 27.3792 38.1914 27.3792 41.999 23.5745C45.8037 19.7698 45.8037 13.5979 41.999 9.79321C38.1914 5.9856 32.0215 5.9856 28.2148 9.79321Z" fill="#6AB0E5"/>
<path fill-rule="evenodd" clip-rule="evenodd" d="M19.752 25.7109C15.4424 24.9609 12.167 21.2051 12.167 16.6807C12.167 12.1582 15.4424 8.39941 19.752 7.65234C19.2383 7.56348 18.7119 7.51562 18.1719 7.51562C13.1094 7.51562 9.00684 11.6182 9.00684 16.6807C9.00684 21.7432 13.1094 25.8457 18.1719 25.8457C18.7129 25.8447 19.2393 25.7988 19.752 25.7109ZM13.9004 38.7334C7.83594 39.3975 3.42188 41.4414 3.42188 43.8604C3.42188 46.8184 10.0264 49.2158 18.1729 49.2158C18.708 49.2158 19.2344 49.2051 19.7529 49.1865C12.3477 48.8994 6.58203 46.626 6.58203 43.8613C6.58203 41.835 9.67969 40.0732 14.25 39.165C14.1338 39.0215 14.0156 38.8789 13.9004 38.7334Z" fill="white"/>
<path fill-rule="evenodd" clip-rule="evenodd" d="M27.158 18.5033C26.9294 17.3021 26.9294 16.0638 27.158 14.8597C27.5095 13.0033 28.405 11.2299 29.8396 9.79236C30.4038 9.22709 31.0355 8.73347 31.7205 8.32264C32.998 7.55606 34.4348 7.09362 35.9197 6.97107C34.3611 6.84217 32.7791 7.08435 31.3171 7.69959C30.1912 8.17517 29.1326 8.87342 28.2136 9.79236C27.4128 10.5931 26.7791 11.5013 26.3142 12.4681C25.0437 15.1254 25.0437 18.2396 26.3142 20.8939C26.7791 21.8637 27.4128 22.7689 28.2136 23.5726C29.1511 24.5072 30.2292 25.2142 31.3816 25.6898C32.824 26.2865 34.3826 26.5199 35.9197 26.3939C34.4529 26.2699 33.0095 25.8187 31.7097 25.0345C31.029 24.6254 30.401 24.1344 29.8396 23.5726C28.405 22.1351 27.5105 20.3617 27.158 18.5033Z" fill="#6AB0E5"/>
<path fill-rule="evenodd" clip-rule="evenodd" d="M37.9454 35.4873C37.878 35.2324 37.9483 34.9688 38.1124 34.7803C38.2123 34.6661 38.3444 34.5848 38.4913 34.5469L39.2462 34.3428L39.1632 34.0312L37.9972 34.3428L37.2394 34.5469C36.8311 34.6572 36.586 35.0791 36.6964 35.4873L39.2569 45.0449C39.711 46.7373 41.4093 47.7803 43.1046 47.4551C41.8897 47.2217 40.8477 46.3154 40.506 45.0449L37.9454 35.4873Z" fill="#6AB0E5"/>
<path fill-rule="evenodd" clip-rule="evenodd" d="M36.623 29.2168L37.9961 34.3438L39.1621 34.0322L37.8184 29.0156C37.4268 29.1016 37.0264 29.1689 36.623 29.2168Z" fill="white"/>
<path d="M43.8844 33.5635C43.6667 32.7412 42.8161 32.248 41.9899 32.4658C41.9889 32.4658 41.988 32.4658 41.987 32.4668H41.985L40.984 28.7295C45.4372 26.5469 48.5114 21.9678 48.5114 16.6826C48.5114 9.29004 42.4977 3.27637 35.1051 3.27637C33.1325 3.27637 31.2585 3.70508 29.57 4.47363C26.4753 1.58496 22.4499 0 18.1715 0C13.7008 0 9.50748 1.73047 6.36393 4.87305C3.27018 7.96777 1.53873 12.0977 1.49088 16.5039C1.42057 23.1309 7.10123 31.4639 12.4186 38.1426C6.43131 39.0352 2.63932 41.2227 2.63932 43.8652C2.63932 45.6475 4.35611 47.2529 7.47428 48.3848C10.3434 49.4258 14.1432 50 18.1715 50C22.2008 50 26.0006 49.4268 28.8698 48.3848C31.987 47.2529 33.7038 45.6484 33.7038 43.8652C33.7038 41.2236 29.9128 39.0352 23.9255 38.1426C26.1276 35.375 28.3903 32.3223 30.2975 29.1992C31.7907 29.7744 33.4108 30.0908 35.1042 30.0908C35.4176 30.0908 35.7292 30.0791 36.0378 30.0576L37.0397 33.792L37.0338 33.7939C36.6335 33.9023 36.2995 34.1602 36.0934 34.5205C35.8874 34.8799 35.8337 35.2959 35.9411 35.6914L38.5016 45.25C38.9928 47.085 40.6589 48.2979 42.4762 48.2979C42.8278 48.2979 43.1842 48.2529 43.5387 48.1572C45.7272 47.5684 47.0309 45.3096 46.446 43.1211L43.8844 33.5635ZM32.1432 43.8652C32.1432 44.9111 30.7204 46.0518 28.3376 46.917C25.6344 47.8975 22.0241 48.4375 18.1715 48.4375C14.32 48.4375 10.7096 47.8975 8.00651 46.916C5.62272 46.0508 4.19986 44.9102 4.19986 43.8643C4.19986 42.3105 7.47818 40.3027 13.5622 39.5635C14.8346 41.126 16.0602 42.5762 17.1491 43.8652L17.5739 44.3682C17.6471 44.4551 17.7385 44.525 17.8415 44.5729C17.9446 44.6208 18.0569 44.6456 18.1706 44.6456C18.2842 44.6456 18.3965 44.6208 18.4996 44.5729C18.6027 44.525 18.694 44.4551 18.7672 44.3682L19.1784 43.8809C20.276 42.582 21.5055 41.1279 22.7799 39.5635C28.8649 40.3037 32.1432 42.3105 32.1432 43.8652ZM21.8503 38.2344C20.5544 39.834 19.2975 41.3232 18.1725 42.6553C17.0641 41.3438 15.8053 39.8496 14.4977 38.2354C14.4977 38.2344 14.4967 38.2344 14.4967 38.2334C12.488 35.752 10.3649 32.9844 8.49869 30.1475C4.8483 24.5977 3.01529 20.0127 3.0524 16.5205C3.09635 12.5254 4.66471 8.78125 7.46842 5.97754C10.3161 3.12988 14.1178 1.56152 18.1715 1.56152C21.8688 1.56152 25.3571 2.86621 28.1042 5.25488C26.6018 6.17965 25.2948 7.38918 24.2565 8.81543C22.5202 7.4707 20.3913 6.7373 18.1715 6.7373C12.6872 6.7373 8.22526 11.1992 8.22526 16.6836C8.22526 22.168 12.6872 26.6299 18.1715 26.6299C20.3913 26.6299 22.5202 25.8965 24.2565 24.5508C25.4635 26.21 27.0407 27.583 28.8659 28.5469C26.7731 31.9492 24.2448 35.2783 21.8503 38.2344ZM23.4098 10.1367C22.321 12.0742 21.6989 14.3076 21.6989 16.6836C21.6989 19.0596 22.321 21.292 23.4088 23.2285C21.9264 24.418 20.0895 25.0684 18.1715 25.0684C13.5485 25.0684 9.78678 21.3066 9.78678 16.6836C9.78678 12.0605 13.5485 8.29883 18.1715 8.29883C20.0895 8.29883 21.9255 8.94824 23.4098 10.1367ZM23.2594 16.6836C23.2594 10.1523 28.5729 4.83887 35.1042 4.83887C41.6354 4.83887 46.9489 10.1523 46.9489 16.6836C46.9489 23.2148 41.6354 28.5283 35.1042 28.5283C28.5729 28.5283 23.2594 23.2148 23.2594 16.6836ZM37.6012 29.8564C38.2624 29.7314 38.9069 29.5576 39.5299 29.3389L40.4762 32.8721L38.5485 33.3887L37.6012 29.8564ZM43.1364 46.6484C41.777 47.0117 40.3747 46.2031 40.0114 44.8447L37.4538 35.2979L38.1833 35.1025C38.1891 35.1016 38.195 35.1006 38.1999 35.0996C38.2067 35.0977 38.2135 35.0947 38.2213 35.0928L42.3796 33.9785L44.9391 43.5244C45.3024 44.8818 44.4928 46.2832 43.1364 46.6484ZM42.5495 9.23828C38.445 5.13672 31.7672 5.13672 27.6628 9.23828C23.5583 13.3428 23.5583 20.0205 27.6628 24.125C29.7145 26.1768 32.4108 27.2031 35.1061 27.2031C37.8014 27.2031 40.4977 26.1768 42.5495 24.125C46.651 20.0215 46.651 13.3437 42.5495 9.23828ZM41.446 23.0215C39.6979 24.7695 37.403 25.6436 35.1061 25.6436C32.8102 25.6436 30.5143 24.7695 28.7663 23.0215C25.2712 19.5264 25.2712 13.8379 28.7663 10.3428C32.2624 6.84961 37.9499 6.84961 41.445 10.3428C44.9391 13.8379 44.9391 19.5264 41.446 23.0215ZM40.3258 16.6836C40.3258 17.1152 39.9762 17.4639 39.5456 17.4639H35.1051C34.6745 17.4639 34.3249 17.1143 34.3249 16.6836V12.2432C34.3249 11.8115 34.6745 11.4629 35.1051 11.4629C35.5368 11.4629 35.8854 11.8125 35.8854 12.2432V15.9023H39.5446C39.9762 15.9033 40.3258 16.2529 40.3258 16.6836Z" fill="#043070"/>
</svg>
