<svg width="50" height="50" viewBox="0 0 50 50" fill="none" xmlns="http://www.w3.org/2000/svg">
<path d="M15.625 42.1875C17.3509 42.1875 18.75 40.7884 18.75 39.0625C18.75 37.3366 17.3509 35.9375 15.625 35.9375C13.8991 35.9375 12.5 37.3366 12.5 39.0625C12.5 40.7884 13.8991 42.1875 15.625 42.1875Z" fill="#6AB0E5"/>
<path d="M8.59375 42.1875C10.3196 42.1875 11.7188 40.7884 11.7188 39.0625C11.7188 37.3366 10.3196 35.9375 8.59375 35.9375C6.86786 35.9375 5.46875 37.3366 5.46875 39.0625C5.46875 40.7884 6.86786 42.1875 8.59375 42.1875Z" fill="#6AB0E5"/>
<path d="M15.625 35.9375C14.7962 35.9375 14.0013 36.2667 13.4153 36.8528C12.8292 37.4388 12.5 38.2337 12.5 39.0625H11.7188C11.7187 38.2337 11.3895 37.4388 10.8035 36.8528C10.2174 36.2667 9.42255 35.9375 8.59375 35.9375C7.76495 35.9375 6.97009 36.2667 6.38404 36.8528C5.79799 37.4388 5.46875 38.2337 5.46875 39.0625H2.34375V32.8125H33.5938V39.0625H18.75C18.75 38.2337 18.4208 37.4388 17.8347 36.8528C17.2487 36.2667 16.4538 35.9375 15.625 35.9375ZM47.6562 35.1562V39.0625H44.5312C44.5312 38.2337 44.202 37.4388 43.616 36.8528C43.0299 36.2667 42.2351 35.9375 41.4062 35.9375C40.5774 35.9375 39.7826 36.2667 39.1965 36.8528C38.6105 37.4388 38.2812 38.2337 38.2812 39.0625H33.5938V20.3125H39.0625V28.125H43.75V28.2344L47.6562 30.4688V32.0312H44.5312V35.1562H47.6562Z" fill="#6AB0E5"/>
<path d="M41.4062 42.1875C43.1321 42.1875 44.5312 40.7884 44.5312 39.0625C44.5312 37.3366 43.1321 35.9375 41.4062 35.9375C39.6804 35.9375 38.2812 37.3366 38.2812 39.0625C38.2812 40.7884 39.6804 42.1875 41.4062 42.1875Z" fill="#6AB0E5"/>
<path d="M48.0469 29.7891L44.5312 27.7813V21.875C44.5294 21.254 44.2819 20.6589 43.8427 20.2198C43.4036 19.7806 42.8085 19.5331 42.1875 19.5312H34.375V12.5C34.375 12.2928 34.2927 12.0941 34.1462 11.9476C33.9997 11.8011 33.801 11.7188 33.5938 11.7188H2.34375C2.13655 11.7188 1.93784 11.8011 1.79132 11.9476C1.64481 12.0941 1.5625 12.2928 1.5625 12.5V39.0625C1.5625 39.2697 1.64481 39.4684 1.79132 39.6149C1.93784 39.7614 2.13655 39.8438 2.34375 39.8438H4.76562C4.92794 40.6464 5.339 41.3775 5.94042 41.9333C6.54185 42.4891 7.30307 42.8413 8.11602 42.9399C8.92897 43.0385 9.75231 42.8784 10.4692 42.4825C11.186 42.0866 11.7599 41.475 12.1094 40.7344C12.4589 41.475 13.0328 42.0866 13.7496 42.4825C14.4664 42.8784 15.2898 43.0385 16.1027 42.9399C16.9157 42.8413 17.6769 42.4891 18.2783 41.9333C18.8798 41.3775 19.2908 40.6464 19.4531 39.8438H37.5781C37.7574 40.7268 38.2365 41.5207 38.9342 42.0909C39.6318 42.6612 40.5052 42.9727 41.4062 42.9727C42.3073 42.9727 43.1807 42.6612 43.8783 42.0909C44.576 41.5207 45.0551 40.7268 45.2344 39.8438H47.6562C47.8635 39.8438 48.0622 39.7614 48.2087 39.6149C48.3552 39.4684 48.4375 39.2697 48.4375 39.0625V30.4688C48.438 30.3311 48.4022 30.1957 48.3336 30.0764C48.265 29.957 48.1661 29.8579 48.0469 29.7891ZM8.59375 41.4062C8.1302 41.4062 7.67706 41.2688 7.29163 41.0113C6.9062 40.7537 6.6058 40.3877 6.42841 39.9594C6.25101 39.5311 6.2046 39.0599 6.29503 38.6053C6.38547 38.1506 6.60869 37.733 6.93647 37.4052C7.26425 37.0774 7.68186 36.8542 8.13651 36.7638C8.59115 36.6734 9.0624 36.7198 9.49066 36.8972C9.91893 37.0746 10.285 37.375 10.5425 37.7604C10.8 38.1458 10.9375 38.599 10.9375 39.0625C10.9356 39.6835 10.6881 40.2786 10.249 40.7177C9.80985 41.1569 9.21478 41.4044 8.59375 41.4062ZM15.625 41.4062C15.1615 41.4062 14.7083 41.2688 14.3229 41.0113C13.9375 40.7537 13.6371 40.3877 13.4597 39.9594C13.2823 39.5311 13.2359 39.0599 13.3263 38.6053C13.4167 38.1506 13.6399 37.733 13.9677 37.4052C14.2955 37.0774 14.7131 36.8542 15.1678 36.7638C15.6224 36.6734 16.0936 36.7198 16.5219 36.8972C16.9502 37.0746 17.3162 37.375 17.5738 37.7604C17.8313 38.1458 17.9688 38.599 17.9688 39.0625C17.9669 39.6835 17.7194 40.2786 17.2802 40.7177C16.8411 41.1569 16.246 41.4044 15.625 41.4062ZM32.8125 38.2812H19.4531C19.2908 37.4786 18.8798 36.7475 18.2783 36.1917C17.6769 35.6359 16.9157 35.2837 16.1027 35.1851C15.2898 35.0865 14.4664 35.2466 13.7496 35.6425C13.0328 36.0384 12.4589 36.65 12.1094 37.3906C11.7599 36.65 11.186 36.0384 10.4692 35.6425C9.75231 35.2466 8.92897 35.0865 8.11602 35.1851C7.30307 35.2837 6.54185 35.6359 5.94042 36.1917C5.339 36.7475 4.92794 37.4786 4.76562 38.2812H3.125V33.5938H32.8125V38.2812ZM32.8125 32.0312H3.125V13.2812H32.8125V32.0312ZM39.8438 21.0938H42.1875C42.3947 21.0938 42.5934 21.1761 42.7399 21.3226C42.8864 21.4691 42.9688 21.6678 42.9688 21.875V27.3438H39.8438V21.0938ZM41.4062 41.4062C40.9427 41.4062 40.4896 41.2688 40.1041 41.0113C39.7187 40.7537 39.4183 40.3877 39.2409 39.9594C39.0635 39.5311 39.0171 39.0599 39.1075 38.6053C39.198 38.1506 39.4212 37.733 39.749 37.4052C40.0767 37.0774 40.4944 36.8542 40.949 36.7638C41.4037 36.6734 41.8749 36.7198 42.3032 36.8972C42.7314 37.0746 43.0975 37.375 43.355 37.7604C43.6125 38.1458 43.75 38.599 43.75 39.0625C43.7481 39.6835 43.5006 40.2786 43.0615 40.7177C42.6223 41.1569 42.0273 41.4044 41.4062 41.4062ZM46.875 34.375H45.3125V32.8125H46.875V34.375ZM46.875 31.25H44.5312C44.324 31.25 44.1253 31.3323 43.9788 31.4788C43.8323 31.6253 43.75 31.824 43.75 32.0312V35.1562C43.75 35.3635 43.8323 35.5622 43.9788 35.7087C44.1253 35.8552 44.324 35.9375 44.5312 35.9375H46.875V38.2812H45.2344C45.0551 37.3982 44.576 36.6043 43.8783 36.0341C43.1807 35.4638 42.3073 35.1523 41.4062 35.1523C40.5052 35.1523 39.6318 35.4638 38.9342 36.0341C38.2365 36.6043 37.7574 37.3982 37.5781 38.2812H34.375V21.0938H38.2812V28.125C38.2812 28.3322 38.3636 28.5309 38.5101 28.6774C38.6566 28.8239 38.8553 28.9062 39.0625 28.9062H43.3516C43.3536 28.9062 43.3556 28.9071 43.3571 28.9085C43.3586 28.91 43.3594 28.912 43.3594 28.9141L46.875 30.9219V31.25Z" fill="#043070"/>
<path d="M39.0625 30.4688H42.1875V32.0312H39.0625V30.4688ZM1.5625 42.9688H48.4375V44.5312H1.5625V42.9688ZM15.625 8.59375H25V10.1562H15.625V8.59375ZM12.5 5.46875H21.875V7.03125H12.5V5.46875ZM9.375 5.46875H10.9375V7.03125H9.375V5.46875ZM17.9688 18.75H17.1875C16.5665 18.7519 15.9714 18.9994 15.5323 19.4385C15.0931 19.8777 14.8456 20.4727 14.8438 21.0938V24.2188C14.8456 24.8398 15.0931 25.4348 15.5323 25.874C15.9714 26.3131 16.5665 26.5606 17.1875 26.5625H17.9688C18.5898 26.5606 19.1848 26.3131 19.624 25.874C20.0631 25.4348 20.3106 24.8398 20.3125 24.2188V21.0938C20.3106 20.4727 20.0631 19.8777 19.624 19.4385C19.1848 18.9994 18.5898 18.7519 17.9688 18.75ZM18.75 24.2188C18.75 24.426 18.6677 24.6247 18.5212 24.7712C18.3747 24.9177 18.176 25 17.9688 25H17.1875C16.9803 25 16.7816 24.9177 16.6351 24.7712C16.4886 24.6247 16.4062 24.426 16.4062 24.2188V21.0938C16.4062 20.8865 16.4886 20.6878 16.6351 20.5413C16.7816 20.3948 16.9803 20.3125 17.1875 20.3125H17.9688C18.176 20.3125 18.3747 20.3948 18.5212 20.5413C18.6677 20.6878 18.75 20.8865 18.75 21.0938V24.2188ZM25 18.75H22.6562C22.449 18.75 22.2503 18.8323 22.1038 18.9788C21.9573 19.1253 21.875 19.324 21.875 19.5312V25.7812C21.875 25.9885 21.9573 26.1872 22.1038 26.3337C22.2503 26.4802 22.449 26.5625 22.6562 26.5625H25C25.621 26.5606 26.2161 26.3131 26.6552 25.874C27.0944 25.4348 27.3419 24.8398 27.3438 24.2188V21.0938C27.3419 20.4727 27.0944 19.8777 26.6552 19.4385C26.2161 18.9994 25.621 18.7519 25 18.75ZM25.7812 24.2188C25.7812 24.426 25.6989 24.6247 25.5524 24.7712C25.4059 24.9177 25.2072 25 25 25H23.4375V20.3125H25C25.2072 20.3125 25.4059 20.3948 25.5524 20.5413C25.6989 20.6878 25.7812 20.8865 25.7812 21.0938V24.2188ZM11.7188 24.2188H13.2812C13.2794 24.8398 13.0319 25.4348 12.5927 25.874C12.1536 26.3131 11.5585 26.5606 10.9375 26.5625H10.1562C9.53522 26.5606 8.94015 26.3131 8.50102 25.874C8.06188 25.4348 7.81435 24.8398 7.8125 24.2188V21.0938C7.81435 20.4727 8.06188 19.8777 8.50102 19.4385C8.94015 18.9994 9.53522 18.7519 10.1562 18.75H10.9375C11.5585 18.7519 12.1536 18.9994 12.5927 19.4385C13.0319 19.8777 13.2794 20.4727 13.2812 21.0938H11.7188C11.7188 20.8865 11.6364 20.6878 11.4899 20.5413C11.3434 20.3948 11.1447 20.3125 10.9375 20.3125H10.1562C9.94905 20.3125 9.75034 20.3948 9.60382 20.5413C9.45731 20.6878 9.375 20.8865 9.375 21.0938V24.2188C9.375 24.426 9.45731 24.6247 9.60382 24.7712C9.75034 24.9177 9.94905 25 10.1562 25H10.9375C11.1447 25 11.3434 24.9177 11.4899 24.7712C11.6364 24.6247 11.7188 24.426 11.7188 24.2188ZM7.8125 38.2812H9.375V39.8438H7.8125V38.2812ZM14.8438 38.2812H16.4062V39.8438H14.8438V38.2812ZM40.625 38.2812H42.1875V39.8438H40.625V38.2812Z" fill="#043070"/>
</svg>