<svg width="50" height="50" viewBox="0 0 50 50" fill="none" xmlns="http://www.w3.org/2000/svg">
<path d="M24.9998 11.4629C22.6089 11.4629 20.2699 12.1606 18.2697 13.4704C16.2695 14.7801 14.6948 16.6451 13.7389 18.8366C12.7829 21.028 12.4872 23.4508 12.8879 25.8079C13.2886 28.165 14.3684 30.354 15.9948 32.1064L14.724 36.8475C14.6489 37.1273 14.6584 37.4232 14.7515 37.6977C14.8445 37.9721 15.0169 38.2128 15.2468 38.3892C15.4767 38.5657 15.7537 38.67 16.0429 38.689C16.332 38.7079 16.6203 38.6407 16.8713 38.4958L21.843 35.6247C23.5324 36.0738 25.298 36.1572 27.0222 35.8695C28.7463 35.5818 30.3892 34.9295 31.8412 33.9562C33.2931 32.9829 34.5207 31.7111 35.4419 30.2255C36.3632 28.74 36.9568 27.075 37.1833 25.3418C37.4097 23.6085 37.2637 21.8469 36.7551 20.1746C36.2464 18.5022 35.3868 16.9577 34.2337 15.644C33.0805 14.3304 31.6603 13.2779 30.068 12.5569C28.4756 11.8359 26.7478 11.4629 24.9998 11.4629Z" fill="#043070"/>
<path d="M25 11.4629V36.0341C28.2583 36.0341 31.3832 34.7397 33.6872 32.4357C35.9912 30.1317 37.2856 27.0068 37.2856 23.7485C37.2856 20.4901 35.9912 17.3653 33.6872 15.0613C31.3832 12.7573 28.2583 11.4629 25 11.4629Z" fill="#6AB0E5"/>
<path d="M49.1991 24.7922C49.215 24.1944 49.2315 23.5763 49.2042 22.9288C49.1231 21.1274 48.348 19.4272 47.0413 18.1846C45.7346 16.9419 43.9976 16.2532 42.1944 16.2626C39.298 9.63643 32.6815 4.99365 24.9999 4.99365C17.3183 4.99365 10.7018 9.63643 7.80566 16.2626C6.00194 16.2529 4.26452 16.9419 2.95767 18.1852C1.65083 19.4284 0.876053 21.1293 0.795795 22.9312C0.768549 23.5758 0.785053 24.1944 0.800971 24.7922C0.817866 25.427 0.835346 26.0836 0.804096 26.8195C0.727578 28.6656 1.38587 30.4667 2.63475 31.8284C3.88364 33.19 5.6213 34.0011 7.46708 34.0841C7.56923 34.0884 7.67112 34.0907 7.77275 34.0907C8.65537 34.0912 9.52996 33.9232 10.3495 33.5955C10.5578 33.5305 10.749 33.4199 10.909 33.2715C11.0691 33.1232 11.194 32.941 11.2746 32.7383C11.3552 32.5355 11.3895 32.3173 11.375 32.0996C11.3604 31.8819 11.2975 31.6701 11.1906 31.4799C9.8683 29.1177 9.1742 26.4557 9.1747 23.7486C9.1747 15.0227 16.2743 7.92344 24.9999 7.92344C33.7255 7.92344 40.8251 15.023 40.8251 23.7486C40.836 27.4423 39.5502 31.0226 37.1917 33.8653C34.8333 36.7081 31.552 38.6329 27.9198 39.3041C27.5373 38.4381 26.8643 37.7329 26.017 37.3105C25.1697 36.8881 24.2015 36.775 23.2797 36.9907C22.3578 37.2064 21.5404 37.7374 20.9685 38.4919C20.3967 39.2464 20.1064 40.177 20.1479 41.1228C20.1894 42.0687 20.56 42.9703 21.1957 43.6718C21.8314 44.3734 22.6923 44.8307 23.6294 44.9649C24.5666 45.0991 25.5212 44.9016 26.3282 44.4067C27.1353 43.9117 27.744 43.1503 28.0492 42.2541C30.6293 41.8275 33.0919 40.8668 35.2793 39.4335C37.4667 38.0003 39.3306 36.126 40.7518 33.9308C41.2366 34.0367 41.7313 34.0903 42.2274 34.0906C42.3293 34.0906 42.4314 34.0884 42.5338 34.0841C44.3793 34.0008 46.1165 33.1897 47.3651 31.8282C48.6138 30.4667 49.272 28.6659 49.1956 26.8201C49.1645 26.0838 49.1819 25.4271 49.1991 24.7922Z" fill="#043070"/>
<path d="M49.1992 24.7924C49.2151 24.1947 49.2316 23.5765 49.2043 22.929C49.1214 21.0832 48.3102 19.3456 46.9484 18.0969C45.5866 16.8482 43.7853 16.1903 41.9392 16.2673C41.6199 16.2818 41.302 16.3177 40.9875 16.3747C40.7769 16.4122 40.5771 16.4953 40.4021 16.6182C40.2271 16.7411 40.0811 16.9008 39.9744 17.0862C39.8677 17.2715 39.8029 17.478 39.7845 17.6911C39.7662 17.9042 39.7947 18.1187 39.868 18.3196C40.6479 20.4606 40.957 22.7446 40.7742 25.0159C40.5913 27.2873 39.9209 29.4925 38.8086 31.4812C38.7019 31.6714 38.6392 31.8831 38.6248 32.1007C38.6104 32.3183 38.6448 32.5364 38.7254 32.7391C38.8061 32.9417 38.931 33.1238 39.091 33.272C39.251 33.4202 39.4421 33.5308 39.6503 33.5957C40.47 33.9234 41.3447 34.0915 42.2275 34.0908C42.3294 34.0908 42.4315 34.0887 42.5339 34.0843C44.3793 34.0011 46.1166 33.1899 47.3652 31.8284C48.6138 30.4669 49.272 28.6661 49.1957 26.8203C49.1646 26.084 49.182 25.4274 49.1992 24.7924Z" fill="#6AB0E5"/>
<path d="M39.8808 18.3622C39.8761 18.348 39.8729 18.3329 39.8678 18.3189C39.7944 18.1181 39.7659 17.9035 39.7843 17.6905C39.8026 17.4774 39.8674 17.2709 39.9741 17.0856C40.0808 16.9002 40.2268 16.7405 40.4018 16.6176C40.5768 16.4947 40.7766 16.4116 40.9872 16.3741C41.3017 16.3171 41.6197 16.2812 41.939 16.2667C42.0245 16.263 42.1094 16.2628 42.1942 16.2622C39.2981 9.63643 32.6817 4.99375 25 4.99365V7.92334C31.8359 7.92344 37.6725 12.2801 39.8808 18.3622Z" fill="#043070"/>
<path d="M11.1906 31.4799C10.0786 29.4912 9.40835 27.2861 9.22568 25.0149C9.04302 22.7437 9.35219 20.4599 10.1321 18.319C10.2055 18.1181 10.234 17.9036 10.2156 17.6905C10.1973 17.4774 10.1324 17.271 10.0258 17.0856C9.91907 16.9003 9.77309 16.7405 9.59807 16.6176C9.42306 16.4947 9.22325 16.4116 9.01269 16.3742C8.69713 16.317 8.37808 16.2811 8.05771 16.2667C6.21165 16.1902 4.41056 16.8488 3.04929 18.0981C1.68801 19.3474 0.877632 21.0855 0.795795 22.9313C0.768549 23.5758 0.785053 24.1945 0.800971 24.7922C0.817866 25.427 0.835346 26.0836 0.804096 26.8196C0.727578 28.6656 1.38587 30.4668 2.63475 31.8284C3.88364 33.19 5.6213 34.0012 7.46708 34.0841C7.56923 34.0885 7.67112 34.0907 7.77275 34.0908C8.65537 34.0913 9.52996 33.9232 10.3495 33.5955C10.5578 33.5306 10.749 33.4199 10.909 33.2716C11.0691 33.1233 11.194 32.9411 11.2746 32.7383C11.3552 32.5356 11.3895 32.3173 11.375 32.0996C11.3604 31.8819 11.2975 31.6702 11.1906 31.4799Z" fill="#6AB0E5"/>
<path d="M9.17477 23.7487C9.17264 21.8966 9.49659 20.0587 10.1318 18.319C10.2052 18.1181 10.2337 17.9036 10.2153 17.6905C10.1969 17.4774 10.1321 17.271 10.0254 17.0856C9.91875 16.9003 9.77277 16.7405 9.59775 16.6176C9.42274 16.4947 9.22293 16.4116 9.01237 16.3742C8.6968 16.317 8.37776 16.2811 8.05739 16.2667C7.6605 16.2503 7.26293 16.2677 6.86901 16.3188C5.86629 17.8316 5.30493 19.594 5.24791 21.4081C5.21754 22.2367 5.2359 23.0306 5.25368 23.7985C5.27252 24.614 5.29205 25.4573 5.25719 26.4025C5.14186 29.5243 6.43659 32.347 8.48922 34.0527C9.1275 33.987 9.75358 33.8331 10.3496 33.5954C10.5579 33.5304 10.749 33.4197 10.9091 33.2714C11.0691 33.1231 11.194 32.9409 11.2746 32.7381C11.3553 32.5354 11.3896 32.3171 11.375 32.0994C11.3605 31.8817 11.2975 31.67 11.1907 31.4797C9.86843 29.1176 9.17433 26.4557 9.17477 23.7487ZM40.8252 23.7487C40.8273 21.8966 40.5033 20.0587 39.8681 18.319C39.7947 18.1181 39.7662 17.9036 39.7846 17.6905C39.803 17.4774 39.8678 17.271 39.9745 17.0856C40.0812 16.9003 40.2272 16.7405 40.4022 16.6176C40.5772 16.4947 40.777 16.4116 40.9876 16.3742C41.3032 16.317 41.6222 16.2811 41.9426 16.2667C42.3395 16.2503 42.737 16.2677 43.1309 16.3188C44.1336 17.8316 44.695 19.594 44.752 21.4081C44.7824 22.2367 44.764 23.0306 44.7463 23.7985C44.7274 24.614 44.708 25.4573 44.7427 26.4025C44.8589 29.5239 43.5641 32.3466 41.5116 34.0526C40.8733 33.9869 40.2472 33.833 39.6511 33.5953C39.4428 33.5303 39.2517 33.4196 39.0916 33.2713C38.9316 33.123 38.8067 32.9408 38.7261 32.738C38.6455 32.5353 38.6112 32.3171 38.6257 32.0993C38.6402 31.8816 38.7032 31.6699 38.81 31.4796C40.132 29.1175 40.8258 26.4556 40.8252 23.7487Z" fill="#6AB0E5"/>
<path d="M20.1196 25.2134C19.7311 25.2138 19.3583 25.0598 19.0834 24.7853C18.8084 24.5109 18.6537 24.1385 18.6533 23.75C18.6529 23.3615 18.8069 22.9887 19.0814 22.7137C19.3558 22.4388 19.7282 22.2841 20.1167 22.2837H20.1196C20.5081 22.2837 20.8807 22.438 21.1554 22.7127C21.4301 22.9874 21.5844 23.36 21.5844 23.7485C21.5844 24.137 21.4301 24.5096 21.1554 24.7843C20.8807 25.059 20.5081 25.2134 20.1196 25.2134ZM24.9999 25.2133C24.9516 25.2135 24.9033 25.2111 24.8553 25.2063C24.8078 25.2017 24.7605 25.1945 24.7137 25.185C24.6668 25.1752 24.62 25.1635 24.5741 25.1498C24.5283 25.1359 24.4834 25.1196 24.4393 25.101C24.3949 25.0832 24.3516 25.063 24.3094 25.0404C24.2674 25.018 24.2264 24.9926 24.1864 24.9661C24.1466 24.9398 24.1081 24.9115 24.0711 24.8812C24.034 24.851 23.9979 24.8177 23.9637 24.7846C23.9295 24.7515 23.8973 24.7142 23.867 24.6771C23.8368 24.6402 23.8084 24.6018 23.7821 24.5619C23.7557 24.5219 23.7303 24.4809 23.7079 24.4389C23.6854 24.3969 23.6659 24.3529 23.6473 24.309C23.6287 24.2649 23.6124 24.22 23.5985 24.1742C23.5848 24.1282 23.5731 24.0813 23.5633 24.0345C23.5536 23.9876 23.5467 23.9398 23.5418 23.893C23.5371 23.8449 23.5349 23.7967 23.535 23.7484C23.5349 23.7005 23.5371 23.6526 23.5418 23.6049C23.5467 23.557 23.5545 23.5092 23.5633 23.4623C23.5721 23.4154 23.5848 23.3686 23.5985 23.3236C23.6123 23.2775 23.6286 23.2322 23.6473 23.1879C23.6659 23.1439 23.6864 23.101 23.7079 23.059C23.7305 23.0164 23.7553 22.975 23.7821 22.935C23.8084 22.8959 23.8368 22.8568 23.867 22.8197C23.8973 22.7826 23.9305 22.7465 23.9637 22.7123C23.9969 22.6781 24.034 22.6469 24.0711 22.6157C24.1083 22.5864 24.1463 22.5571 24.1864 22.5308C24.2264 22.5044 24.2674 22.48 24.3094 22.4575C24.3514 22.4351 24.3954 22.4146 24.4393 22.396C24.4834 22.3777 24.5284 22.3617 24.5741 22.348C24.6658 22.3203 24.76 22.3014 24.8553 22.2915C24.9511 22.2817 25.0476 22.2817 25.1434 22.2915C25.1913 22.2957 25.239 22.3028 25.286 22.313C25.3329 22.3217 25.3792 22.3334 25.4247 22.348C25.4707 22.3617 25.516 22.3777 25.5604 22.396C25.6043 22.4146 25.6473 22.4351 25.6893 22.4575C25.7315 22.4798 25.7726 22.5043 25.8124 22.5308C25.8524 22.5571 25.8915 22.5864 25.9286 22.6157C25.9657 22.6469 26.0018 22.6792 26.035 22.7123C26.0682 22.7454 26.1014 22.7827 26.1327 22.8197C26.162 22.8568 26.1913 22.8959 26.2176 22.935C26.2441 22.975 26.2686 23.0164 26.2909 23.059C26.3133 23.101 26.3338 23.1439 26.3524 23.1879C26.3709 23.2318 26.3866 23.2776 26.4012 23.3236C26.4159 23.3696 26.4266 23.4154 26.4364 23.4623C26.4461 23.5092 26.453 23.557 26.4579 23.6049C26.4627 23.6527 26.4647 23.7006 26.4647 23.7484C26.4647 23.7963 26.4618 23.8451 26.4579 23.893C26.454 23.9408 26.4452 23.9876 26.4364 24.0345C26.4276 24.0813 26.4149 24.1282 26.4012 24.1742C26.3875 24.2202 26.3709 24.265 26.3524 24.309C26.3338 24.3529 26.3133 24.3969 26.2909 24.4389C26.2684 24.4809 26.244 24.5219 26.2176 24.5619C26.1913 24.602 26.162 24.64 26.1327 24.6771C26.1014 24.7142 26.0692 24.7504 26.035 24.7846C26.0008 24.8188 25.9657 24.851 25.9286 24.8812C25.8913 24.9115 25.8525 24.9398 25.8124 24.9661C25.7726 24.993 25.7316 25.0178 25.6893 25.0404C25.6475 25.063 25.6045 25.0832 25.5604 25.101C25.516 25.1196 25.4707 25.1359 25.4247 25.1498C25.3797 25.1635 25.3329 25.1752 25.286 25.185C25.2389 25.1946 25.1913 25.2017 25.1434 25.2063C25.0957 25.2111 25.0478 25.2135 24.9999 25.2133Z" fill="white"/>
<path d="M26.4366 23.4623C26.4269 23.4154 26.4151 23.3686 26.4015 23.3236C26.3878 23.2787 26.3712 23.2318 26.3526 23.1879C26.3341 23.1439 26.3136 23.101 26.2911 23.059C26.2688 23.0164 26.2444 22.975 26.2179 22.935C26.1915 22.8959 26.1622 22.8568 26.1329 22.8197C26.1017 22.7826 26.0694 22.7465 26.0353 22.7123C26.0011 22.6781 25.9659 22.647 25.9288 22.6157C25.8917 22.5864 25.8526 22.5571 25.8126 22.5308C25.7729 22.5043 25.7318 22.4798 25.6896 22.4575C25.6476 22.4351 25.6046 22.4146 25.5606 22.396C25.5162 22.3777 25.4709 22.3617 25.4249 22.348C25.3795 22.3334 25.3332 22.3217 25.2862 22.313C25.2392 22.3028 25.1916 22.2957 25.1437 22.2915C25.0959 22.2866 25.048 22.2842 25 22.2842V25.2134C25.0479 25.2136 25.0959 25.2112 25.1436 25.2064C25.1914 25.2018 25.239 25.1947 25.2861 25.1851C25.333 25.1753 25.3799 25.1636 25.4248 25.1499C25.4709 25.136 25.5162 25.1197 25.5605 25.1011C25.6046 25.0833 25.6476 25.0631 25.6895 25.0405C25.7317 25.0179 25.7728 24.9931 25.8125 24.9663C25.8525 24.9398 25.8916 24.9115 25.9287 24.8813C25.9658 24.8512 26.002 24.8178 26.0352 24.7847C26.0684 24.7516 26.1016 24.7143 26.1328 24.6772C26.1621 24.6401 26.1914 24.6021 26.2178 24.562C26.2441 24.522 26.2686 24.481 26.291 24.439C26.3135 24.397 26.334 24.353 26.3525 24.3091C26.3711 24.2651 26.3867 24.2192 26.4014 24.1743C26.416 24.1294 26.4268 24.0814 26.4365 24.0346C26.4463 23.9877 26.4531 23.9399 26.458 23.8931C26.4629 23.8462 26.4648 23.7964 26.4648 23.7485C26.4648 23.7007 26.4619 23.6528 26.458 23.605C26.4541 23.5571 26.4453 23.5092 26.4366 23.4623ZM29.8828 25.2134C29.4943 25.2137 29.1216 25.0598 28.8466 24.7853C28.5716 24.5108 28.417 24.1384 28.4166 23.7499C28.4162 23.3614 28.5702 22.9887 28.8447 22.7137C29.1191 22.4387 29.4916 22.2841 29.8801 22.2837H29.8828C30.2713 22.2837 30.6439 22.438 30.9186 22.7127C31.1933 22.9874 31.3477 23.36 31.3477 23.7485C31.3477 24.137 31.1933 24.5096 30.9186 24.7843C30.6439 25.059 30.2713 25.2134 29.8828 25.2134Z" fill="white"/>
<path d="M25.1467 44.88C27.3292 44.3625 28.6789 42.1737 28.1614 39.9912C27.6438 37.8087 25.455 36.459 23.2725 36.9765C21.0901 37.494 19.7403 39.6828 20.2579 41.8653C20.7754 44.0478 22.9642 45.3975 25.1467 44.88Z" fill="#6AB0E5"/>
<path d="M24.2056 36.8833V45.0062C25.2827 45.0062 26.3158 44.5783 27.0774 43.8166C27.8391 43.0549 28.267 42.0219 28.267 40.9447C28.267 39.8676 27.8391 38.8345 27.0774 38.0729C26.3158 37.3112 25.2827 36.8833 24.2056 36.8833Z" fill="#043070"/>
<path d="M39.6504 33.5955C39.4578 33.5354 39.2797 33.4362 39.1272 33.3041C38.9747 33.1719 38.8512 33.0097 38.7643 32.8276C38.6775 32.6455 38.6292 32.4474 38.6225 32.2458C38.6158 32.0441 38.6508 31.8432 38.7254 31.6558C37.5874 33.6385 36.0314 35.3498 34.1654 36.6705C32.2994 37.9913 30.1682 38.89 27.9199 39.3041C28.3331 40.2361 28.3793 41.2898 28.0492 42.2544C30.6294 41.8278 33.092 40.867 35.2794 39.4337C37.4668 38.0004 39.3308 36.1261 40.752 33.9308C40.3762 33.8494 40.0078 33.7373 39.6504 33.5955Z" fill="#043070"/>
</svg>
