<svg width="50" height="50" viewBox="0 0 50 50" fill="none" xmlns="http://www.w3.org/2000/svg">
<g clip-path="url(#clip0_3040_856)">
<path d="M39.4412 29.124C41.7007 29.124 43.5325 27.2923 43.5325 25.0327C43.5325 22.7731 41.7007 20.9414 39.4412 20.9414C37.1816 20.9414 35.3499 22.7731 35.3499 25.0327C35.3499 27.2923 37.1816 29.124 39.4412 29.124Z" fill="#6AB0E5"/>
<path d="M20.7897 13.475L33.1995 6.31016L30.5386 4.77393L18.1288 11.9388L20.7897 13.475ZM17.4452 17.8793L20.1061 19.4156V14.659L17.4452 13.1228V17.8793ZM4.49038 38.9565C4.63006 38.9566 4.76636 38.9995 4.88095 39.0793C4.99555 39.1592 5.08295 39.2722 5.1314 39.4032C6.6898 43.6173 10.6761 46.7538 15.7947 47.7932C20.5964 48.7682 25.5073 47.6949 29.5285 44.9009C23.0641 46.9046 18.0469 45.5175 15.4085 44.3607C12.1188 42.9185 9.55327 40.5087 8.87271 38.2215C8.82171 38.0501 8.83991 37.8655 8.92339 37.7074C9.00687 37.5492 9.149 37.4301 9.31929 37.3755L11.5586 36.6581L4.50669 31.121L1.8689 39.762L4.28179 38.9891C4.3492 38.9674 4.41957 38.9564 4.49038 38.9563V38.9565Z" fill="#6AB0E5"/>
<path d="M32.7453 42.1474C24.9426 45.9668 18.8781 44.3891 15.9576 43.1087C12.8662 41.7534 11.1228 39.8793 10.43 38.4555L12.3613 37.8368C12.7745 37.7044 13.067 37.3704 13.1438 36.9432C13.2207 36.5161 13.0627 36.1011 12.7212 35.8329L5.10425 29.8521C4.80074 29.614 4.41558 29.5438 4.04722 29.6594C3.67906 29.7752 3.40328 30.0532 3.29058 30.4223L0.441556 39.7555C0.379731 39.9566 0.374357 40.1709 0.426022 40.3749C0.477686 40.579 0.584403 40.7649 0.734525 40.9124C0.884078 41.0605 1.07144 41.1646 1.27615 41.2135C1.48086 41.2623 1.69506 41.254 1.89537 41.1894L4.09244 40.4856C4.98843 42.5672 6.4563 44.4346 8.36812 45.9166C10.3846 47.4798 12.8586 48.592 15.5227 49.1331C16.7658 49.3859 18.0311 49.5134 19.2997 49.5136C24.5877 49.5133 29.7216 47.2926 33.5437 43.2299C33.6532 43.1133 33.7184 42.962 33.7279 42.8023C33.7374 42.6426 33.6906 42.4846 33.5956 42.3559C33.5007 42.2271 33.3636 42.1358 33.2082 42.0977C33.0528 42.0596 32.889 42.0772 32.7453 42.1474ZM15.7948 47.7931C10.6762 46.7537 6.6899 43.6173 5.1315 39.4032C5.08305 39.2722 4.99565 39.1592 4.88106 39.0793C4.76646 38.9995 4.63016 38.9566 4.49048 38.9565C4.41968 38.9565 4.3493 38.9676 4.28189 38.9892L1.869 39.7622L4.50679 31.1212L11.5587 36.6583L9.31939 37.3757C9.14908 37.4302 9.00695 37.5494 8.92346 37.7075C8.83997 37.8657 8.82179 38.0503 8.87281 38.2217C9.55337 40.5088 12.1189 42.9186 15.4086 44.3609C18.047 45.5177 23.0642 46.9047 29.5286 44.9011C25.5074 47.6951 20.5965 48.7683 15.7948 47.7933V47.7931ZM49.6062 38.4352C49.3785 35.9079 48.2203 33.567 46.3449 31.8437C45.2231 30.8116 43.8839 30.0446 42.426 29.5993C43.9142 28.6233 44.8998 26.9413 44.8998 25.0326C44.8998 22.2545 42.8129 19.956 40.1248 19.6184V9.12449C40.1248 9.0045 40.0932 8.88662 40.0332 8.7827C39.9732 8.67878 39.8869 8.59249 39.783 8.5325L26.0058 0.578401C25.9019 0.518403 25.784 0.486816 25.664 0.486816C25.544 0.486816 25.4261 0.518403 25.3222 0.578401L11.5454 8.5325C11.4414 8.59249 11.3551 8.67878 11.2951 8.7827C11.2351 8.88662 11.2036 9.0045 11.2036 9.12449V25.0328C11.2036 25.1528 11.2351 25.2707 11.2951 25.3746C11.3551 25.4785 11.4414 25.5648 11.5454 25.6248L25.3223 33.579C25.4262 33.639 25.5441 33.6706 25.6641 33.6706C25.7841 33.6706 25.902 33.639 26.0059 33.579L35.0955 28.331C35.4738 28.828 35.934 29.2569 36.4563 29.5994C34.9985 30.0447 33.6592 30.8117 32.5375 31.8438C30.662 33.5671 29.5038 35.908 29.2761 38.4353C29.2743 38.4557 29.2734 38.4762 29.2734 38.4967V40.5254C29.2734 40.7067 29.3454 40.8805 29.4736 41.0087C29.6018 41.1369 29.7757 41.209 29.957 41.209H48.9253C49.1066 41.209 49.2805 41.1369 49.4087 41.0087C49.5369 40.8805 49.6089 40.7067 49.6089 40.5254V38.4967C49.6089 38.4763 49.608 38.4556 49.6062 38.4352ZM43.5325 25.0326C43.5325 27.2886 41.6971 29.1239 39.4411 29.1239C37.185 29.1239 35.3498 27.2886 35.3498 25.0326C35.3498 22.7766 37.1851 20.9413 39.4411 20.9413C41.697 20.9413 43.5325 22.7766 43.5325 25.0326ZM25.6642 16.2892L22.1569 14.2643L34.5667 7.09949L38.074 9.1244L25.6641 16.2892H25.6642ZM17.4452 13.1227L20.1061 14.659V19.4156L17.4452 17.8793V13.1226V13.1227ZM18.1288 11.9388L30.5386 4.77391L33.1996 6.31014L20.7898 13.475L18.1288 11.9388ZM25.664 1.95975L29.1714 3.98475L16.7616 11.1496L13.2542 9.12469L25.664 1.95975ZM12.5708 10.3087L16.078 12.3335V18.2741C16.078 18.3941 16.1096 18.512 16.1696 18.6159C16.2296 18.7198 16.3159 18.8061 16.4198 18.8661L20.4479 21.1917C20.5518 21.2517 20.6697 21.2833 20.7897 21.2833C20.9097 21.2833 21.0276 21.2517 21.1315 21.1917C21.2354 21.1317 21.3217 21.0454 21.3817 20.9415C21.4417 20.8376 21.4733 20.7197 21.4733 20.5997V15.4483L24.9806 17.4732V31.8028L12.5709 24.638L12.5708 10.3087ZM26.3477 31.8029V17.4733L38.7575 10.3086V19.6185C36.0694 19.9561 33.9826 22.2546 33.9826 25.0327C33.9818 25.7594 34.127 26.4789 34.4095 27.1484L26.3478 31.8029H26.3477ZM48.2417 39.8418H30.6405V38.5279C31.067 33.9616 34.8453 30.5219 39.4412 30.5219C44.0371 30.5219 47.8152 33.9616 48.2418 38.5279V39.8418H48.2417Z" fill="#043070"/>
</g>
<defs>
<clipPath id="clip0_3040_856">
<rect width="50" height="50" fill="white"/>
</clipPath>
</defs>
</svg>
