<svg width="101" height="100" viewBox="0 0 101 100" fill="none" xmlns="http://www.w3.org/2000/svg">
<g clip-path="url(#clip0_2899_845)">
<path d="M98.6657 68.3065C98.011 65.4753 95.5188 63.4987 92.6032 63.4987C91.9047 63.4987 91.2688 63.5972 90.6828 63.7925L70.786 70.1253C70.7875 70.0581 70.7891 69.9909 70.7891 69.9253C70.7891 66.3706 67.8875 63.4769 64.3219 63.4769H52.7578C51.2782 63.4769 49.8797 62.8472 48.9172 61.7503C41.7813 53.6065 27.1813 53.8815 19.7 54.6472V54.2956C19.7 51.1487 17.1407 48.5894 13.9953 48.5894H3.47503C2.63909 48.5894 1.96097 49.2675 1.96097 50.1034V87.2987C1.96097 88.1347 2.63909 88.8128 3.47503 88.8128H13.9922C16.9672 88.8128 19.3907 86.5144 19.6469 83.605L40.4625 91.0065C43.975 92.2519 47.6016 92.8784 51.2797 92.8784C52.2297 92.8784 53.1828 92.8362 54.1391 92.7534C57.9453 92.4112 61.636 91.4003 65.111 89.7503L95.2938 75.3909C97.9344 74.1097 99.3516 71.1237 98.6657 68.3065ZM16.6703 83.1081C16.6703 84.5847 15.4688 85.7862 13.9922 85.7862H4.98909V51.6175H13.9922C15.4688 51.6175 16.6703 52.819 16.6703 54.2956V83.1081ZM93.9829 72.6612L63.8125 87.0159C60.6625 88.5128 57.3188 89.4284 53.8735 89.7378C49.7188 90.1019 45.4266 89.555 41.4782 88.155L19.7032 80.4128V57.6925C25.7282 57.0628 40.2235 56.4237 46.6391 63.7472C48.175 65.5003 50.4047 66.5065 52.7563 66.5065H64.3203C66.2172 66.5065 67.761 68.0409 67.761 69.9269C67.761 70.48 67.625 71.0362 67.3766 71.5253C67.3219 71.605 67.2735 71.6894 67.2328 71.7769C67.0953 71.994 66.9375 72.1909 66.7735 72.3565C66.3016 72.8175 65.4938 73.3675 64.3203 73.3675H54.6344C53.7985 73.3675 53.1203 74.0456 53.1203 74.8815C53.1203 75.7175 53.7985 76.3956 54.6344 76.3956H64.3203C66.0328 76.3956 67.6563 75.73 68.9032 74.5097C69.1547 74.2581 69.3875 73.9831 69.6 73.6815L91.6219 66.6722C91.9141 66.5737 92.236 66.5269 92.6047 66.5269C94.1032 66.5269 95.3829 67.5394 95.7219 69.005C96.0766 70.4628 95.3407 72.0034 93.9829 72.6612Z" fill="#007BFF"/>
<path d="M7.67967 57.3597C5.94373 59.0957 5.94373 61.9222 7.67967 63.6597C8.54842 64.5269 9.68904 64.9613 10.8297 64.9613C11.9703 64.9613 13.1109 64.5269 13.9797 63.6597C14.8219 62.8191 15.2844 61.7004 15.2844 60.5097C15.2844 59.3191 14.8203 58.2019 13.9797 57.3597C12.2969 55.6785 9.36248 55.6754 7.67967 57.3597ZM11.8375 61.5176C11.2812 62.0738 10.3765 62.0738 9.82029 61.5176C9.26404 60.9613 9.26404 60.0551 9.82029 59.5004C10.0906 59.2301 10.4484 59.0816 10.8297 59.0816C11.2109 59.0816 11.5687 59.2301 11.8375 59.5004C12.1078 59.7691 12.2562 60.1269 12.2562 60.5082C12.2562 60.8894 12.1078 61.2472 11.8375 61.5176ZM39.6594 55.6519C39.9187 55.8738 40.2531 56.0113 40.6203 56.0176H40.675L83.1578 55.441C83.9859 55.4301 84.6515 54.7551 84.6515 53.9269V16.2363C84.6515 15.741 84.4094 15.2769 84.0015 14.9941L73.0734 7.39567C72.8094 7.2113 72.4797 7.09567 72.1703 7.12536L58.8875 7.46755C58.875 7.46755 58.864 7.4613 58.8515 7.4613L50.8609 7.66755C50.8437 7.66755 50.8265 7.67536 50.8094 7.67692L32.2422 8.15505C31.8859 8.16286 31.5609 8.29255 31.3062 8.50505C31.2109 8.58474 31.125 8.67536 31.0515 8.77692C30.8953 8.99099 30.7937 9.24724 30.7672 9.52536C30.7625 9.57536 30.7609 9.6238 30.7609 9.6738L30.4484 47.1285C30.4453 47.5785 30.6406 48.0051 30.9828 48.2957L39.6609 55.6551L39.6594 55.6519ZM81.6234 52.4347L42.1875 52.9691L42.7797 18.0566H55.8969V28.4019C55.8969 29.3363 56.4515 30.1832 57.3094 30.5597C58.1625 30.9347 59.1594 30.7738 59.8265 30.1613L61.9984 28.2207L64.2047 30.1754C64.6453 30.5691 65.2094 30.7738 65.7797 30.7738C66.1078 30.7738 66.439 30.7051 66.7515 30.566C67.614 30.1801 68.1484 29.3566 68.1484 28.4144V18.0535H81.625V52.4301L81.6234 52.4347ZM58.9234 26.9097V18.0582H65.1187V26.9504L63.1375 25.2004C62.789 24.9472 62.3875 24.8222 61.989 24.8222C61.5234 24.8222 61.0625 24.9926 60.6984 25.3254L58.9234 26.9097ZM71.7515 10.1644L78.75 15.0301H67.1L62.464 10.4035L71.7515 10.1644ZM58.2875 10.5113L62.8156 15.0301H57.7969L54.0859 10.6191L58.2875 10.5113ZM50.2156 10.7191L53.8406 15.0301H41.8031L36.6094 11.0691L50.2156 10.7191ZM33.7625 12.7066L39.7656 17.2847L39.189 51.2832L33.4812 46.4426L33.7625 12.7066Z" fill="#007BFF"/>
<path d="M67.8249 42.6017C68.078 42.7642 68.3609 42.8407 68.6405 42.8407C69.139 42.8407 69.6265 42.5939 69.9155 42.1439L71.4046 39.8204V48.3907C71.4046 49.2267 72.0827 49.9048 72.9187 49.9048C73.7546 49.9048 74.4327 49.2267 74.4327 48.3907V39.8204L75.9218 42.1439C76.3718 42.8454 77.3062 43.0517 78.0124 42.6017C78.7155 42.1501 78.9218 41.2142 78.4702 40.5111L74.1937 33.8376C74.1452 33.7611 74.0827 33.697 74.0218 33.6314C74.0046 33.6126 73.9905 33.5892 73.9718 33.572C73.8484 33.4532 73.7062 33.3611 73.553 33.2892C73.5171 33.272 73.4827 33.2611 73.4452 33.247C73.278 33.1845 73.103 33.1407 72.9202 33.1407C72.7374 33.1407 72.5624 33.1845 72.3952 33.247C72.3577 33.2611 72.3234 33.2736 72.2874 33.2892C72.1327 33.3611 71.9905 33.4532 71.8687 33.572C71.8499 33.5907 71.8374 33.6126 71.8187 33.6314C71.7577 33.697 71.6952 33.7611 71.6468 33.8376L67.3702 40.5111C66.9187 41.2142 67.1234 42.1517 67.828 42.6017H67.8249Z" fill="#007BFF"/>
</g>
<defs>
<clipPath id="clip0_2899_845">
<rect width="100" height="100" fill="white" transform="translate(0.399994)"/>
</clipPath>
</defs>
</svg>
