<svg width="100" height="101" viewBox="0 0 100 101" fill="none" xmlns="http://www.w3.org/2000/svg">
<path d="M50 1.60364C27.8388 1.60364 9.90979 19.5928 9.90979 41.6938C9.90979 63.7438 27.774 81.784 50 81.784C72.1537 81.784 90.0902 63.8004 90.0902 41.6938C90.0902 19.607 72.1718 1.60364 50 1.60364ZM78.3096 65.3328C75.1717 63.72 71.6155 62.4601 68.1596 61.563C69.7791 56.0375 70.6994 49.8028 70.8294 43.2974H86.848C86.498 51.3877 83.5051 59.1172 78.3096 65.3328ZM21.6902 65.3328C16.4948 59.117 13.502 51.3877 13.1518 43.2974H29.1704C29.3006 49.8028 30.2209 56.0375 31.8403 61.563C28.3811 62.462 24.8846 63.6974 21.6902 65.3328ZM21.6902 18.0547C24.8795 19.6886 28.3862 20.9255 31.8403 21.8247C30.2209 27.3502 29.3006 33.5847 29.1704 40.0902H13.1518C13.502 31.9999 16.4948 24.2705 21.6902 18.0547ZM67.1685 18.7735C65.5447 14.2468 63.1283 9.51937 59.7472 6.12758C65.8667 7.80848 71.5037 11.0526 76.0557 15.5932C73.2733 16.9361 70.0818 18.0451 67.1685 18.7735ZM51.6036 20.8283V4.96913C55.5196 5.73646 59.2241 9.29919 62.1727 15.1969C62.8471 16.5459 63.4631 17.9818 64.0192 19.4911C59.9318 20.3113 55.7387 20.7408 51.6036 20.8283ZM48.3964 20.8283C44.2262 20.7401 40.0217 20.3036 35.9808 19.4911C36.5367 17.9816 37.1528 16.5457 37.8272 15.1969C40.776 9.29919 44.4804 5.7363 48.3964 4.96913V20.8283ZM48.3964 24.0362V40.0902H32.3781C32.5082 33.8152 33.4002 27.8254 34.9657 22.5532C39.1195 23.4129 43.6646 23.94 48.3964 24.0362ZM48.3964 43.2974V59.3515C43.9273 59.4424 39.3249 59.9286 34.9658 60.8345C33.4002 55.5623 32.5082 49.5725 32.3781 43.2974H48.3964ZM48.3964 62.5593V78.4186C44.4804 77.6512 40.776 74.0883 37.8272 68.1907C37.1527 66.8418 36.5367 65.4059 35.9808 63.8966C39.866 63.1123 44.0939 62.6504 48.3964 62.5593ZM51.6036 62.5593C55.8961 62.6501 60.1069 63.1084 64.0192 63.8966C63.4631 65.4059 62.8471 66.8418 62.1727 68.1907C59.2239 74.0883 55.5196 77.6512 51.6036 78.4186V62.5593ZM51.6036 59.3515V43.2974H67.622C67.4918 49.5725 66.5999 55.5623 65.0341 60.8345C60.9049 59.9769 56.3291 59.4477 51.6036 59.3515ZM51.6036 40.0902V24.0362C56.3886 23.9389 60.9162 23.4042 65.0343 22.5532C66.5999 27.8252 67.4918 33.8152 67.622 40.0902H51.6036ZM32.8314 18.7735C29.8247 18.0142 26.728 16.9388 23.9441 15.5932C28.4962 11.0526 34.1333 7.80848 40.2529 6.12758C36.8668 9.52434 34.4512 14.2579 32.8314 18.7735ZM32.8314 64.6142C34.4506 69.1287 36.8664 73.8632 40.2529 77.2601C34.1333 75.5792 28.4962 72.3349 23.9441 67.7945C26.7321 66.4462 29.8303 65.3758 32.8314 64.6142ZM67.1684 64.6142C70.042 65.3325 73.2746 66.4486 76.0559 67.7945C71.5037 72.3349 65.8667 75.5792 59.7472 77.2601C63.1334 73.863 65.5495 69.1284 67.1684 64.6142ZM70.8296 40.0902C70.6994 33.5847 69.7791 27.3502 68.1597 21.8247C71.6734 20.9122 75.1922 19.6535 78.3098 18.0549C83.5051 24.2705 86.4981 32 86.8482 40.0904H70.8296V40.0902Z" fill="#007BFF"/>
<path d="M25.4072 85.4065V69.1204C25.4072 66.0314 27.9113 63.5272 31.0004 63.5272H68.8368C71.9258 63.5272 74.43 66.0314 74.43 69.1204V85.4065C74.43 86.6785 73.3988 87.7096 72.1269 87.7096H57.7854C57.0772 87.7096 56.4083 88.0355 55.9717 88.5933L51.1049 94.812C50.8753 95.1054 50.5234 95.2769 50.1508 95.2769C49.7948 95.2769 49.4568 95.1203 49.2266 94.8488L43.8637 88.5233C43.4261 88.0072 42.7837 87.7096 42.107 87.7096H27.7103C26.4383 87.7096 25.4072 86.6785 25.4072 85.4065Z" fill="#007BFF" stroke="#007BFF" stroke-width="2.46759"/>
<path d="M38.1328 70.4365H33.3308C33.0004 70.4365 32.6834 70.5678 32.4497 70.8015C32.216 71.0352 32.0847 71.3522 32.0847 71.6827V80.1116C32.09 80.4386 32.2237 80.7504 32.4568 80.9798C32.6899 81.2091 33.0038 81.3377 33.3308 81.3377C33.6579 81.3377 33.9718 81.2091 34.2049 80.9798C34.438 80.7504 34.5717 80.4386 34.577 80.1116V77.8839H37.4537C37.7842 77.8839 38.1012 77.7526 38.3348 77.5189C38.5685 77.2852 38.6998 76.9682 38.6998 76.6377C38.6998 76.3072 38.5685 75.9903 38.3348 75.7566C38.1012 75.5229 37.7842 75.3916 37.4537 75.3916H34.577V72.9286H38.1328C38.4608 72.9249 38.7741 72.7919 39.0047 72.5586C39.2353 72.3254 39.3646 72.0106 39.3646 71.6826C39.3646 71.3546 39.2353 71.0398 39.0047 70.8065C38.7741 70.5732 38.4608 70.4403 38.1328 70.4365ZM57.0442 72.9288C57.3747 72.9288 57.6917 72.7975 57.9254 72.5638C58.1591 72.3301 58.2904 72.0131 58.2904 71.6827C58.2904 71.3522 58.1591 71.0352 57.9254 70.8015C57.6917 70.5678 57.3747 70.4365 57.0442 70.4365H52.2423C51.9118 70.4365 51.5948 70.5678 51.3612 70.8015C51.1275 71.0352 50.9962 71.3522 50.9962 71.6827V80.1116C50.9962 80.4421 51.1275 80.759 51.3612 80.9927C51.5949 81.2264 51.9118 81.3577 52.2423 81.3578H57.0442C57.3747 81.3578 57.6917 81.2265 57.9254 80.9928C58.1591 80.7591 58.2904 80.4421 58.2904 80.1116C58.2904 79.7811 58.1591 79.4642 57.9254 79.2305C57.6917 78.9968 57.3747 78.8655 57.0442 78.8655H53.4884V77.1431H56.3652C56.6956 77.1431 57.0126 77.0118 57.2463 76.7781C57.48 76.5444 57.6113 76.2275 57.6113 75.897C57.6113 75.5665 57.48 75.2495 57.2463 75.0158C57.0126 74.7821 56.6956 74.6508 56.3652 74.6508H53.4884V72.9285H57.0442V72.9288ZM66.5522 72.9288C66.8827 72.9288 67.1996 72.7975 67.4333 72.5638C67.667 72.3301 67.7983 72.0131 67.7983 71.6827C67.7983 71.3522 67.667 71.0352 67.4333 70.8015C67.1996 70.5678 66.8827 70.4365 66.5522 70.4365H61.7503C61.4198 70.4365 61.1028 70.5678 60.8691 70.8015C60.6354 71.0352 60.5041 71.3522 60.5041 71.6827V80.1116C60.5042 80.4421 60.6355 80.759 60.8692 80.9927C61.1028 81.2264 61.4198 81.3577 61.7503 81.3578H66.5522C66.8827 81.3578 67.1996 81.2265 67.4333 80.9928C67.667 80.7591 67.7983 80.4421 67.7983 80.1116C67.7983 79.7811 67.667 79.4642 67.4333 79.2305C67.1996 78.9968 66.8827 78.8655 66.5522 78.8655H62.9964V77.1431H65.8731C66.2036 77.1431 66.5206 77.0118 66.7543 76.7781C66.9879 76.5444 67.1192 76.2275 67.1192 75.897C67.1192 75.5665 66.9879 75.2495 66.7543 75.0158C66.5206 74.7821 66.2036 74.6508 65.8731 74.6508H62.9964V72.9285H66.5522V72.9288ZM46.5287 76.8738C47.5761 76.2814 48.2932 75.1705 48.2932 73.8841C48.2932 71.9832 46.7462 70.4367 44.8453 70.4367H42.2451C41.9146 70.4367 41.5976 70.568 41.364 70.8017C41.1303 71.0354 40.999 71.3523 40.999 71.6828V80.1118C41.0043 80.4388 41.1379 80.7506 41.371 80.9799C41.6041 81.2093 41.9181 81.3378 42.2451 81.3378C42.5721 81.3378 42.8861 81.2093 43.1192 80.9799C43.3523 80.7506 43.4859 80.4388 43.4912 80.1118V77.3316H43.8306L46.1781 80.8091C46.5654 81.3823 47.3415 81.5278 47.9077 81.1445C48.0435 81.0531 48.1598 80.9358 48.2502 80.7993C48.3405 80.6628 48.4031 80.5099 48.4343 80.3492C48.4655 80.1885 48.4647 80.0233 48.432 79.8629C48.3993 79.7026 48.3353 79.5502 48.2437 79.4146L46.5287 76.8738ZM43.4912 72.9288H44.8453C45.3725 72.9288 45.8009 73.3572 45.8009 73.8841C45.8009 74.411 45.3725 74.8394 44.8453 74.8394H43.4912V72.9288Z" fill="white"/>
</svg>
