<svg width="101" height="100" viewBox="0 0 101 100" fill="none" xmlns="http://www.w3.org/2000/svg">
<path d="M97.0172 53.5828L77.6203 34.186C77.1861 33.7489 76.6694 33.4025 76.1002 33.1667C75.531 32.931 74.9207 32.8106 74.3047 32.8125H47.475V35.9375H55.2875V59.375H58.4125V35.9375H74.3047C74.5101 35.9374 74.7136 35.9777 74.9034 36.0563C75.0932 36.1348 75.2657 36.25 75.4109 36.3953L78.0781 39.0625H70.9125C70.0837 39.0625 69.2888 39.3918 68.7028 39.9778C68.1167 40.5639 67.7875 41.3587 67.7875 42.1875V56.25C67.7875 57.0788 68.1167 57.8737 68.7028 58.4597C69.2888 59.0458 70.0837 59.375 70.9125 59.375H94.35V71.875C94.35 72.2894 94.1854 72.6869 93.8923 72.9799C93.5993 73.2729 93.2019 73.4375 92.7875 73.4375H89.5375C89.1639 70.8362 87.865 68.4567 85.879 66.7356C83.893 65.0144 81.353 64.0669 78.725 64.0669C76.0969 64.0669 73.557 65.0144 71.571 66.7356C69.585 68.4567 68.2861 70.8362 67.9125 73.4375H45.7875C45.4139 70.8362 44.115 68.4567 42.129 66.7356C40.143 65.0144 37.603 64.0669 34.975 64.0669C32.3469 64.0669 29.807 65.0144 27.821 66.7356C25.835 68.4567 24.5361 70.8362 24.1625 73.4375H20.9125C20.4981 73.4375 20.1006 73.2729 19.8076 72.9799C19.5146 72.6869 19.35 72.2894 19.35 71.875V57.8125H16.225V71.875C16.225 73.1182 16.7188 74.3105 17.5979 75.1896C18.477 76.0687 19.6693 76.5625 20.9125 76.5625H24.1625C24.5035 78.9384 25.619 81.1353 27.3359 82.8125H3.72498V85.9375H78.725C81.3523 85.9325 83.8902 84.9827 85.8753 83.2615C87.8604 81.5404 89.1602 79.1626 89.5375 76.5625H92.7875C94.0307 76.5625 95.223 76.0687 96.102 75.1896C96.9811 74.3105 97.475 73.1182 97.475 71.875V54.6875C97.4749 54.2732 97.3102 53.8758 97.0172 53.5828ZM27.1625 75C27.1625 73.4549 27.6207 71.9444 28.4791 70.6596C29.3376 69.3749 30.5577 68.3735 31.9853 67.7822C33.4128 67.1909 34.9836 67.0362 36.4991 67.3376C38.0146 67.6391 39.4066 68.3832 40.4992 69.4758C41.5918 70.5683 42.3359 71.9604 42.6374 73.4759C42.9388 74.9914 42.7841 76.5622 42.1928 77.9897C41.6015 79.4173 40.6001 80.6374 39.3154 81.4959C38.0306 82.3543 36.5201 82.8125 34.975 82.8125C32.9037 82.81 30.918 81.9861 29.4534 80.5216C27.9889 79.057 27.165 77.0713 27.1625 75ZM42.614 82.8125C44.3309 81.1353 45.4464 78.9384 45.7875 76.5625H67.9125C68.2535 78.9384 69.369 81.1353 71.0859 82.8125H42.614ZM78.725 82.8125C77.1798 82.8125 75.6693 82.3543 74.3846 81.4959C73.0998 80.6374 72.0985 79.4173 71.5072 77.9897C70.9159 76.5622 70.7611 74.9914 71.0626 73.4759C71.364 71.9604 72.1081 70.5683 73.2007 69.4758C74.2933 68.3832 75.6854 67.6391 77.2008 67.3376C78.7163 67.0362 80.2871 67.1909 81.7147 67.7822C83.1422 68.3735 84.3624 69.3749 85.2208 70.6596C86.0793 71.9444 86.5375 73.4549 86.5375 75C86.535 77.0713 85.7111 79.057 84.2465 80.5216C82.7819 81.9861 80.7962 82.81 78.725 82.8125ZM70.9125 56.25V42.1875H81.2031L94.35 55.3344V56.25H70.9125Z" fill="#007BFF"/>
<path d="M33.4125 73.4375H36.5375V76.5625H33.4125V73.4375ZM77.1625 73.4375H80.2875V76.5625H77.1625V73.4375ZM3.72498 68.75H11.5375V71.875H3.72498V68.75ZM6.84998 62.5H11.5375V65.625H6.84998V62.5ZM8.41248 56.25H11.5375V59.375H8.41248V56.25ZM24.0375 54.6875C28.0549 54.6875 31.9821 53.4962 35.3225 51.2642C38.6629 49.0323 41.2664 45.8599 42.8038 42.1483C44.3412 38.4366 44.7434 34.3525 43.9597 30.4122C43.1759 26.472 41.2413 22.8527 38.4006 20.0119C35.5598 17.1711 31.9405 15.2366 28.0002 14.4528C24.06 13.669 19.9758 14.0713 16.2642 15.6087C12.5526 17.1461 9.38022 19.7496 7.14825 23.09C4.91628 26.4304 3.72498 30.3576 3.72498 34.375C3.73118 39.7603 5.87323 44.9233 9.68122 48.7313C13.4892 52.5393 18.6522 54.6813 24.0375 54.6875ZM24.0375 17.1875C27.4368 17.1875 30.7599 18.1955 33.5863 20.0841C36.4128 21.9727 38.6158 24.657 39.9167 27.7976C41.2175 30.9382 41.5579 34.3941 40.8947 37.7281C40.2315 41.0622 38.5946 44.1247 36.1909 46.5284C33.7872 48.9321 30.7246 50.5691 27.3906 51.2323C24.0565 51.8954 20.6007 51.5551 17.4601 50.2542C14.3195 48.9533 11.6352 46.7503 9.74659 43.9239C7.858 41.0974 6.84998 37.7744 6.84998 34.375C6.85535 29.8183 8.6679 25.4497 11.89 22.2275C15.1121 19.0054 19.4807 17.1929 24.0375 17.1875Z" fill="#007BFF"/>
<path d="M24.0375 48.4375C24.4518 48.4374 24.8492 48.2727 25.1422 47.9797C26.1484 46.9734 34.975 37.9531 34.975 31.25C34.975 28.3492 33.8226 25.5672 31.7715 23.516C29.7203 21.4648 26.9383 20.3125 24.0375 20.3125C21.1367 20.3125 18.3547 21.4648 16.3035 23.516C14.2523 25.5672 13.1 28.3492 13.1 31.25C13.1 37.9531 21.9265 46.9734 22.9328 47.9797C23.2257 48.2727 23.6231 48.4374 24.0375 48.4375ZM24.0375 23.4375C26.1087 23.44 28.0944 24.2639 29.559 25.7285C31.0236 27.1931 31.8475 29.1788 31.85 31.25C31.85 35.2594 26.9328 41.4547 24.0375 44.6109C21.1422 41.4547 16.225 35.2594 16.225 31.25C16.2275 29.1788 17.0514 27.1931 18.5159 25.7285C19.9805 24.2639 21.9662 23.44 24.0375 23.4375Z" fill="#007BFF"/>
<path d="M28.725 31.25C28.725 30.3229 28.4501 29.4166 27.935 28.6458C27.4199 27.8749 26.6878 27.2741 25.8313 26.9193C24.9748 26.5645 24.0323 26.4717 23.123 26.6526C22.2137 26.8334 21.3785 27.2799 20.7229 27.9354C20.0674 28.591 19.6209 29.4262 19.44 30.3355C19.2592 31.2448 19.352 32.1873 19.7068 33.0438C20.0616 33.9004 20.6624 34.6324 21.4332 35.1475C22.2041 35.6626 23.1104 35.9375 24.0375 35.9375C25.2807 35.9375 26.473 35.4436 27.352 34.5646C28.2311 33.6855 28.725 32.4932 28.725 31.25ZM22.475 31.25C22.475 30.941 22.5666 30.6389 22.7383 30.3819C22.91 30.125 23.154 29.9247 23.4395 29.8064C23.725 29.6882 24.0392 29.6572 24.3423 29.7175C24.6454 29.7778 24.9238 29.9266 25.1423 30.1451C25.3609 30.3637 25.5097 30.6421 25.57 30.9452C25.6302 31.2483 25.5993 31.5624 25.481 31.8479C25.3628 32.1335 25.1625 32.3775 24.9056 32.5492C24.6486 32.7209 24.3465 32.8125 24.0375 32.8125C23.6231 32.8125 23.2256 32.6479 22.9326 32.3549C22.6396 32.0618 22.475 31.6644 22.475 31.25ZM63.1 62.5H69.35V65.625H63.1V62.5Z" fill="#007BFF"/>
</svg>
