<svg width="101" height="100" viewBox="0 0 101 100" fill="none" xmlns="http://www.w3.org/2000/svg">
<g clip-path="url(#clip0_2905_952)">
<path d="M99.8162 49.3441L83.8826 11.2076L68.5083 17.6312C68.7012 15.8179 68.7012 13.2523 67.7175 11.4005C65.5184 7.29167 60.3872 5.72917 56.2784 7.92824C52.1696 10.1273 50.6071 15.2585 52.8062 19.3673C53.5778 20.814 54.7352 21.9907 56.1627 22.7816L39.7275 29.6296C39.361 28.4722 38.8016 27.3727 38.0878 26.3889C38.3 26.2731 38.4736 26.1381 38.6472 25.9645C39.0523 25.5594 39.3031 25.0193 39.3031 24.4406L39.2259 18.0748H40.5377C40.8463 18.0748 41.1357 17.9398 41.3478 17.7276C41.5793 17.5154 41.6951 17.2068 41.6951 16.8981L41.4636 0L39.1488 0.0385802L39.361 15.76L8.4389 15.9915L8.22671 0L5.91189 0.0385802L6.12408 17.1875C6.14337 17.8241 6.64492 18.3063 7.28149 18.3256H8.6318C8.6318 18.3835 8.70896 24.6914 8.70896 24.6914C8.72825 25.3858 9.07547 26.0224 9.63488 26.4275L8.78612 27.7778C8.45819 28.2986 8.01451 29.591 8.01451 29.591H7.99522L4.61945 42.1875L5.5068 44.9267L4.25294 45.4861C3.09553 46.0069 2.16961 46.9522 1.72593 48.1481C1.28226 49.3441 1.32084 50.6559 1.84167 51.8133L18.9906 90.1235L35.0593 82.9282C35.638 82.6775 36.0431 82.1373 36.1009 81.5008C36.1588 80.8642 35.8695 80.2469 35.3486 79.8997C33.2846 78.4529 31.8571 76.8904 31.4327 75.6173C30.3525 72.4151 32.0693 68.9236 35.2908 67.8434C38.4929 66.7631 41.9844 68.4799 43.0647 71.7014C43.5855 73.2253 43.4698 74.9035 42.756 76.3503C42.4474 76.9676 42.5631 77.7006 43.0454 78.1829C43.5083 78.6844 44.2414 78.8387 44.8587 78.5494L58.2074 72.5694C58.844 72.2994 59.3841 71.8364 59.7699 71.2577L61.7954 70.4282C62.0269 72.338 62.7406 74.1512 63.8787 75.7137C63.6665 75.8295 63.4929 75.9838 63.3193 76.1574C62.8949 76.5625 62.6634 77.1219 62.6634 77.7006L62.7599 84.0471H61.4482C61.1395 84.0471 60.8502 84.1821 60.638 84.3943C60.4065 84.6065 60.2907 84.9151 60.31 85.2238L60.5222 99.7878H62.837L62.6249 86.3812L93.5469 86.1304L93.7591 99.8071H96.0739L95.8617 84.973C95.8424 84.3364 95.3409 83.8349 94.7043 83.8156H93.354C93.354 83.777 93.3733 83.7191 93.3733 83.6805L93.2769 77.4691C93.2769 76.7747 92.9296 76.1188 92.3509 75.733C92.7946 75.0193 93.1418 74.4792 93.1997 74.3634C93.5276 73.8619 93.7784 73.3025 93.9327 72.7045L93.9713 72.5694H93.9906L97.3664 59.9537L96.1318 56.0571L97.2506 55.5941C99.6812 54.591 100.839 51.8326 99.8355 49.402C99.8355 49.3827 99.8162 49.3634 99.8162 49.3441ZM19.0099 38.8889L18.817 39.2168C17.5053 41.5316 15.1326 42.554 15.1133 42.554L14.2645 42.9012C14.2645 42.9012 15.5955 50.9452 15.962 53.2793C16.1742 54.6682 15.9235 56.0957 15.229 57.311C14.7275 58.0247 13.9173 58.4491 13.0492 58.4491C12.4512 58.4298 12.2005 58.1211 12.104 57.9475L8.34245 46.1998L7.62871 43.9815L7.03072 42.1296L10.2907 29.9961C10.3872 29.6489 10.5415 29.321 10.7344 29.0123C10.7344 29.0123 11.3324 28.0478 12.0076 27.0062L35.4644 26.8133C36.4674 27.8742 37.2005 29.1667 37.6056 30.5748L19.0099 38.8889ZM36.5639 24.5177H36.5253V24.4792L11.506 24.6721C11.3324 24.6914 11.1781 24.6335 11.0431 24.537V24.3056L10.9659 18.4799C11.1009 18.4028 11.2553 18.3449 11.4096 18.3449L36.4674 18.152C36.6411 18.1327 36.7954 18.1906 36.9304 18.287L37.0269 24.3827C36.8918 24.4599 36.7182 24.5177 36.5639 24.5177ZM57.2622 70.4475L45.4374 75.7523C46.5755 71.2191 43.8363 66.6281 39.3031 65.49C34.7699 64.3518 30.1789 67.091 29.0407 71.6242C28.6357 73.1867 28.7128 74.8457 29.2144 76.3696C29.8702 78.2793 31.6256 79.9768 33.2267 81.2114L20.1287 87.0756L3.92501 50.8681C3.65495 50.2701 3.63566 49.5949 3.88643 48.9776C4.11791 48.3603 4.58087 47.8781 5.17887 47.608L6.20124 47.1451L9.98211 58.9313C10.5608 60.0309 11.6796 60.7446 12.9335 60.7639C12.9335 60.7639 15.9428 60.8218 17.1773 58.5262V58.4877C18.1418 56.7901 18.5083 54.8225 18.1997 52.8935C17.9103 51.0417 17.1195 46.1998 16.7915 44.2515C18.3347 43.4028 19.6465 42.1682 20.611 40.7022L40.1904 31.9252C40.1904 31.9252 40.7306 31.6165 41.1549 31.713C41.4057 31.8094 41.6372 32.0988 41.7529 32.3495L47.81 46.1998C48.0608 46.8364 48.6974 47.2222 49.3725 47.1836C50.0477 47.1451 50.6264 46.6821 50.8386 46.0455C51.3594 44.2901 52.6326 42.8819 54.3301 42.1875C57.3394 40.8372 60.8887 42.1682 62.2391 45.1775C63.4929 47.9552 62.4705 51.2153 59.8471 52.7778C58.1688 53.723 55.2367 53.4915 54.06 53.3565C53.4428 53.2793 52.8255 53.5494 52.4397 54.0509C52.4397 54.0702 51.8803 54.7068 52.2468 55.8063L57.9759 68.5764C58.1881 69.0586 58.111 69.6373 57.783 70.0424C57.6673 70.216 57.4744 70.3704 57.2622 70.4475ZM90.962 77.7971L91.0585 83.6227C90.9235 83.7191 90.7691 83.777 90.5955 83.7577L65.5377 83.9506C65.3641 83.9699 65.2097 83.912 65.0747 83.8156L64.9783 77.8164L90.962 77.7971ZM91.6951 72.1065C91.5986 72.4537 91.4443 72.7816 91.2514 73.0903V73.1289C91.2514 73.1289 90.6727 74.0741 89.9975 75.1157L89.7661 75.4822H66.7144L66.5215 75.2893C65.0361 73.7076 64.1488 71.6435 64.033 69.4637L80.7383 62.5C80.3718 63.1559 80.0245 63.8503 79.6966 64.5448L81.7992 65.5285C82.2236 64.6219 82.6866 63.7346 83.1688 62.8858C83.6511 62.037 84.307 61.304 85.0593 60.6867C85.6187 60.2238 86.2167 59.8573 86.8725 59.5486L87.7213 59.2014L87.5863 58.2948C87.567 58.2755 87.5091 57.8511 87.3934 57.2145C87.0462 55.1312 86.3131 50.6173 86.0238 48.8426C85.8116 47.4537 86.0624 46.0262 86.7568 44.811C87.2583 44.0972 88.0685 43.6535 88.9366 43.6535C89.5346 43.6728 89.7854 43.9815 89.8818 44.1744L93.2769 54.7454L93.9906 56.9637L94.9551 59.9923L91.6951 72.1065ZM97.6943 52.1219C97.4435 52.7199 96.9613 53.2022 96.3633 53.4529L95.4181 53.858L91.9844 43.1713C91.4057 42.0718 90.2869 41.3773 89.0523 41.3387C86.0816 41.4159 84.7892 43.5957 84.7892 43.5957C83.8247 45.2932 83.4582 47.2608 83.7668 49.1898C84.0562 51.061 84.8471 55.8835 85.175 57.8318C84.7313 58.0826 84.307 58.3719 83.9019 58.6806L60.3679 68.5185C60.31 68.2099 54.9474 56.1343 54.9474 56.1343C56.8571 56.2693 59.0562 56.1728 60.6958 55.3048L61.4289 54.8611C62.3162 54.2631 63.0878 53.5108 63.6858 52.6235L63.9366 52.2376C64.3803 51.5046 64.7082 50.7137 64.9204 49.8843C64.9397 49.8457 64.9397 49.8071 64.9397 49.7685H64.959C65.1712 49.0162 65.2676 48.2446 65.2676 47.4537C65.2676 46.6049 65.1326 45.7369 64.8818 44.9267C63.4929 40.4707 58.7475 38.0015 54.2915 39.3904C53.2276 39.7268 52.2404 40.2697 51.3864 40.988C50.5324 41.7062 49.8284 42.5858 49.3147 43.5764L47.9451 40.5093C47.5014 39.4097 44.55 32.9282 43.8941 31.4236C43.7398 31.1343 43.5662 30.8449 43.354 30.5941L58.6125 24.3056C59.2491 24.0355 59.6349 23.3989 59.5963 22.7238C59.577 22.0486 59.1141 21.4699 58.4775 21.277C55.2367 20.2932 53.4042 16.8789 54.388 13.6188C54.4844 13.3102 54.6002 13.0208 54.7352 12.7315C55.4875 11.1497 56.8764 9.9537 58.5739 9.49074C61.3517 8.69985 64.3031 9.93441 65.6727 12.4807C66.5793 14.1782 66.2707 17.091 66.0971 18.2677C66.0199 18.9043 66.2707 19.5216 66.7722 19.9074C67.2738 20.2932 67.9296 20.3897 68.5083 20.1389L82.6287 14.2361L97.675 50.2315C97.9451 50.8295 97.9451 51.5239 97.6943 52.1219Z" fill="#007BFF"/>
<path d="M25.2637 91.7068L27.3206 90.6452L29.9923 95.8219L27.9352 96.8835L25.2637 91.7068ZM8.56616 95.9151L11.2378 90.7384L13.2949 91.7999L10.6233 96.9766L8.56616 95.9151ZM18.0054 99.8779L18.1478 94.054L20.4618 94.1105L20.3194 99.9342L18.0054 99.8779ZM74.2043 4.32868L76.2612 3.26715L78.9329 8.44385L76.8758 9.50538L74.2043 4.32868ZM90.908 8.52159L93.5797 3.34489L95.6364 4.40662L92.9647 9.58312L90.908 8.52159ZM83.6063 6.07425L83.7486 0.250366L86.0627 0.306886L85.9205 6.13057L83.6063 6.07425Z" fill="#007BFF"/>
</g>
<defs>
<clipPath id="clip0_2905_952">
<rect width="100" height="100" fill="white" transform="translate(0.799927)"/>
</clipPath>
</defs>
</svg>
