<svg width="101" height="100" viewBox="0 0 101 100" fill="none" xmlns="http://www.w3.org/2000/svg">
<g clip-path="url(#clip0_2900_881)">
<path d="M87.2214 55.4341V25.781C87.2214 25.5067 87.1492 25.2373 87.0121 24.9998C86.875 24.7622 86.6777 24.565 86.4402 24.4279L44.4919 0.20912C44.2544 0.0718866 43.985 -0.000366211 43.7107 -0.000366211C43.4364 -0.000366211 43.1669 0.0718866 42.9294 0.20912L0.981201 24.4279C0.743664 24.565 0.54641 24.7622 0.40927 24.9998C0.272131 25.2373 0.199938 25.5067 0.199951 25.781L0.199951 74.2189C0.199958 74.4932 0.272159 74.7626 0.409296 75.0001C0.546434 75.2376 0.743677 75.4349 0.981201 75.572L42.9294 99.7908C43.1669 99.928 43.4364 100 43.7107 100C43.985 100 44.2545 99.928 44.4919 99.7908L58.6644 91.6083C62.9849 96.7359 69.4503 99.9999 76.6648 99.9999C89.6421 99.9999 100.2 89.4421 100.2 76.4648C100.2 67.281 94.9119 59.3103 87.2214 55.4341ZM43.7105 48.1958L31.9439 41.4023L70.7671 18.9874L82.5339 25.7812L43.7105 48.1958ZM19.7791 34.3788L58.6021 11.964L67.6423 17.1833L28.8189 39.598L19.7791 34.3788ZM27.2566 42.3042V57.7697L18.2167 52.5503V37.0849L27.2566 42.3042ZM43.7105 3.36635L55.4771 10.1599L16.6541 32.5745L4.88726 25.7812L43.7105 3.36635ZM3.32495 28.4872L15.0916 35.2808V53.4527C15.0916 53.7269 15.1638 53.9964 15.3009 54.2339C15.438 54.4714 15.6353 54.6687 15.8728 54.8058L28.0376 61.8292C28.2751 61.9665 28.5446 62.0388 28.8189 62.0388C29.0932 62.0388 29.3627 61.9665 29.6001 61.8292C29.8377 61.6921 30.0349 61.4949 30.1721 61.2574C30.3092 61.0198 30.3814 60.7504 30.3814 60.4761V44.1085L42.148 50.9019V95.7312L3.32495 73.3167V28.4872ZM45.273 95.7314V50.9019L84.0964 28.4872V54.1329C81.7002 53.334 79.1907 52.9276 76.6648 52.9296C63.6875 52.9296 53.1296 63.4874 53.1296 76.4648C53.1296 81.1009 54.4777 85.4279 56.8017 89.0753L45.273 95.7314ZM76.6648 96.8749C65.4105 96.8749 56.2546 87.7189 56.2546 76.4648C56.2546 65.2107 65.4105 56.0546 76.6648 56.0546C87.9191 56.0546 97.075 65.2107 97.075 76.4648C97.075 87.7189 87.9191 96.8749 76.6648 96.8749ZM76.6648 58.124C66.5517 58.124 58.324 66.3517 58.324 76.4648C58.324 86.5779 66.5517 94.8056 76.6648 94.8056C86.7781 94.8056 95.0058 86.5779 95.0058 76.4648C95.0058 66.3517 86.7781 58.124 76.6648 58.124ZM76.6648 91.6806C68.2748 91.6806 61.449 84.8548 61.449 76.4648C61.449 68.0747 68.2748 61.249 76.6648 61.249C85.055 61.249 91.8808 68.0747 91.8808 76.4648C91.8808 84.8548 85.055 91.6806 76.6648 91.6806ZM83.5691 80.2042C83.7431 81.637 83.3568 82.9474 82.4519 83.9935C81.4972 85.0972 79.9722 85.8628 78.2275 86.1488V87.0822C78.2275 87.4966 78.0629 87.894 77.7698 88.187C77.4768 88.48 77.0794 88.6447 76.665 88.6447C76.2506 88.6447 75.8532 88.48 75.5601 88.187C75.2671 87.894 75.1025 87.4966 75.1025 87.0822V86.124C72.4361 85.6154 70.3857 83.84 69.7664 81.356C69.6661 80.9539 69.7297 80.5284 69.9431 80.1732C70.1565 79.818 70.5023 79.5621 70.9044 79.4619C71.3065 79.3616 71.732 79.4252 72.0872 79.6386C72.4424 79.852 72.6983 80.1978 72.7986 80.5999C73.2824 82.5398 75.2859 83.1888 76.8468 83.1466C78.215 83.1142 79.4875 82.6441 80.0886 81.949C80.4144 81.5722 80.5347 81.1374 80.4671 80.5804C80.3533 79.6439 79.7916 78.4982 76.4273 77.946C71.5232 77.1406 70.3783 74.5908 70.2816 72.5939C70.1472 69.831 72.0626 67.5195 75.0476 66.8423C75.0658 66.8382 75.0843 66.8349 75.1027 66.831V65.8474C75.1027 65.433 75.2673 65.0356 75.5603 64.7425C75.8534 64.4495 76.2508 64.2849 76.6652 64.2849C77.0796 64.2849 77.477 64.4495 77.77 64.7425C78.0631 65.0356 78.2277 65.433 78.2277 65.8474V66.8179C80.1902 67.2236 82.0716 68.4437 83.0455 70.763C83.2024 71.1445 83.2022 71.5725 83.0449 71.9538C82.8875 72.3351 82.5858 72.6387 82.2054 72.7984C81.8251 72.958 81.3971 72.9609 81.0147 72.8062C80.6323 72.6516 80.3266 72.352 80.1642 71.9728C79.3468 70.0263 77.3525 69.5242 75.7388 69.8904C74.5626 70.157 73.3312 70.9677 73.4029 72.4425C73.4275 72.9501 73.4927 74.2976 76.9335 74.8626C80.9869 75.5279 83.2195 77.3251 83.5691 80.2042Z" fill="#007BFF"/>
</g>
<defs>
<clipPath id="clip0_2900_881">
<rect width="100" height="100" fill="white" transform="translate(0.199951)"/>
</clipPath>
</defs>
</svg>
