<svg width="235" height="80" viewBox="0 0 235 80" fill="none" xmlns="http://www.w3.org/2000/svg">
<path d="M39.0643 3.33949H56.0002L52.7961 4.33949L45.383 50.4336C44.637 54.7997 43.0573 58.5733 40.6439 61.7546C38.2306 64.914 35.1699 67.3603 31.4621 69.0935C27.7542 70.8049 23.6185 71.6605 19.055 71.6605C14.9523 71.6605 11.3541 70.9365 8.26058 69.4885C5.18898 68.0404 2.9182 65.8464 1.44822 62.9065C0.000183225 59.9665 -0.361826 56.2587 0.362192 51.7829H14.4476C14.2282 53.6039 14.3379 55.1397 14.7767 56.3903C15.2375 57.6409 16.0163 58.5953 17.1133 59.2535C18.2103 59.9117 19.5816 60.2408 21.2271 60.2408C23.0042 60.2408 24.5839 59.8568 25.9661 59.0889C27.3483 58.321 28.4892 57.1911 29.3888 55.6992C30.3102 54.2073 30.9575 52.3863 31.3304 50.2361L39.0643 3.33949Z" fill="#007BFF"/>
<path d="M79.2656 3.33949C86.045 3.3395 91.6727 4.72156 96.1484 7.48598C100.646 10.2504 103.816 14.2109 105.659 19.3668C107.502 24.5008 107.831 30.6329 106.646 37.7633C105.506 44.6524 103.235 50.5651 99.834 55.5016C96.4334 60.416 92.0788 64.1901 86.7695 66.8229C81.4601 69.4337 75.3823 70.7389 68.5371 70.7389H46.1064C48.0741 58.0936 59.5775 45.489 76.1895 38.7252L79.457 48.8707L90.4141 27.5055L69.0449 16.5446L72.2754 26.5729C62.2601 30.6504 54.102 36.8506 48.7705 43.903L55.5049 3.33949H79.2656Z" fill="#007BFF"/>
<path d="M122.68 34L119.399 3.45454H123.157L125.424 28.3324H125.723L136.342 3.45454H140.518L142.904 28.3324H143.203L153.703 3.45454H157.461L144.038 34H140.22L137.535 9.65909H137.296L126.498 34H122.68ZM163.934 34.4773C161.737 34.4773 159.922 33.9901 158.49 33.0156C157.058 32.0312 156.059 30.6591 155.492 28.8991C154.926 27.1293 154.836 25.071 155.224 22.7244C155.612 20.3778 156.382 18.3097 157.536 16.5199C158.689 14.7202 160.126 13.3182 161.846 12.3139C163.566 11.2997 165.455 10.7926 167.514 10.7926C168.707 10.7926 169.855 10.9915 170.959 11.3892C172.063 11.7869 173.017 12.4332 173.823 13.3281C174.628 14.2131 175.19 15.3864 175.508 16.848C175.826 18.3097 175.806 20.1094 175.448 22.2472L175.21 23.7386H157.551L158.028 20.696H172.107C172.336 19.4034 172.277 18.25 171.929 17.2358C171.59 16.2216 170.999 15.4212 170.154 14.8345C169.318 14.2479 168.259 13.9545 166.977 13.9545C165.654 13.9545 164.421 14.3125 163.278 15.0284C162.134 15.7344 161.18 16.6293 160.414 17.7131C159.649 18.7869 159.171 19.8807 158.982 20.9943L158.565 23.6193C158.267 25.5185 158.311 27.0298 158.699 28.1534C159.097 29.277 159.788 30.0874 160.772 30.5845C161.757 31.0717 162.99 31.3153 164.471 31.3153C165.416 31.3153 166.286 31.1861 167.081 30.9276C167.877 30.6591 168.588 30.2614 169.214 29.7344C169.84 29.1974 170.367 28.5312 170.795 27.7358L174.017 28.6903C173.47 29.8438 172.699 30.858 171.705 31.733C170.72 32.598 169.567 33.2741 168.245 33.7614C166.932 34.2386 165.495 34.4773 163.934 34.4773ZM179.393 34L184.464 3.45454H187.984L186.135 14.7301H186.433C186.751 14.3324 187.194 13.8253 187.761 13.2088C188.327 12.5824 189.088 12.0256 190.042 11.5384C190.997 11.0412 192.22 10.7926 193.712 10.7926C195.641 10.7926 197.256 11.2749 198.559 12.2393C199.871 13.2038 200.791 14.571 201.318 16.3409C201.855 18.1108 201.925 20.1989 201.527 22.6051C201.129 25.0312 200.368 27.1342 199.245 28.9141C198.131 30.6839 196.759 32.0561 195.128 33.0305C193.508 33.995 191.743 34.4773 189.834 34.4773C188.362 34.4773 187.224 34.2337 186.418 33.7464C185.623 33.2493 185.036 32.6875 184.658 32.0611C184.29 31.4247 184.007 30.8977 183.808 30.4801H183.391L182.794 34H179.393ZM184.763 22.5455C184.484 24.2756 184.489 25.8018 184.778 27.1243C185.066 28.4368 185.638 29.4659 186.493 30.2116C187.348 30.9474 188.481 31.3153 189.893 31.3153C191.365 31.3153 192.658 30.9276 193.771 30.152C194.885 29.3665 195.8 28.3125 196.516 26.9901C197.231 25.6577 197.729 24.1761 198.007 22.5455C198.266 20.9347 198.256 19.483 197.977 18.1903C197.709 16.8878 197.142 15.8587 196.277 15.103C195.422 14.3374 194.248 13.9545 192.757 13.9545C191.325 13.9545 190.057 14.3175 188.954 15.0433C187.86 15.7592 186.955 16.7635 186.239 18.0561C185.533 19.3388 185.041 20.8352 184.763 22.5455ZM220.43 34.62C219.52 34.7027 218.652 34.4753 217.826 33.938C216.999 33.3593 216.586 32.7187 216.586 32.016C216.586 30.7347 217.805 28.2753 220.244 24.638C222.93 20.6287 224.274 18.314 224.274 17.694C224.274 17.322 224.088 17.1153 223.716 17.074C222.517 17.1567 220.657 18.3553 218.136 20.67C214.54 24.018 211.171 28.5647 208.03 34.31C207.947 34.3927 207.72 34.434 207.348 34.434C205.57 34.434 204.764 34.186 204.93 33.69C205.384 32.4913 206.17 30.6933 207.286 28.296C208.443 25.8987 209.931 22.8813 211.75 19.244C212.99 16.8053 214.25 15.586 215.532 15.586C215.945 15.586 216.214 15.6893 216.338 15.896C216.42 16.02 215.552 17.7973 213.734 21.228C212.866 22.8813 212.184 24.204 211.688 25.196C211.192 26.1467 210.84 26.7667 210.634 27.056C211.336 26.3533 212.163 25.4853 213.114 24.452C214.106 23.4187 215.242 22.22 216.524 20.856C218.549 18.5827 220.781 16.888 223.22 15.772C223.798 15.524 224.46 15.4 225.204 15.4C226.898 15.4 227.746 16.02 227.746 17.26C227.746 18.0453 227.353 18.9753 226.568 20.05C222.104 26.2913 219.872 30.4867 219.872 32.636C219.872 33.0907 220.016 33.38 220.306 33.504C220.967 33.7933 222.6 33.1113 225.204 31.458C228.262 29.474 230.866 27.0147 233.016 24.08C233.47 23.46 233.884 23.15 234.256 23.15C234.38 23.15 234.442 23.1913 234.442 23.274C234.442 23.4807 234.256 23.8733 233.884 24.452C232.065 27.304 229.544 29.8253 226.32 32.016C223.426 33.9173 221.463 34.7853 220.43 34.62ZM136.237 49.3288C136.287 48.0859 135.924 47.1264 135.149 46.4503C134.383 45.7741 133.225 45.4361 131.674 45.4361C130.62 45.4361 129.705 45.5852 128.929 45.8835C128.154 46.1719 127.532 46.5746 127.065 47.0916C126.607 47.5987 126.324 48.1854 126.215 48.8516C126.105 49.3984 126.14 49.8757 126.319 50.2834C126.508 50.6911 126.801 51.044 127.199 51.3423C127.607 51.6307 128.089 51.8842 128.646 52.103C129.203 52.3118 129.794 52.4908 130.421 52.6399L133.046 53.2962C134.328 53.5945 135.482 53.9922 136.506 54.4893C137.54 54.9865 138.405 55.598 139.101 56.3239C139.807 57.0497 140.304 57.9048 140.593 58.8892C140.881 59.8736 140.921 61.0021 140.712 62.2749C140.394 64.1442 139.653 65.7649 138.49 67.1371C137.326 68.4993 135.8 69.5582 133.911 70.3139C132.022 71.0597 129.834 71.4325 127.348 71.4325C124.882 71.4325 122.799 71.0547 121.099 70.299C119.399 69.5433 118.161 68.4247 117.385 66.9432C116.62 65.4517 116.391 63.6072 116.699 61.4098H122.948C122.839 62.4339 122.988 63.2891 123.396 63.9751C123.813 64.6513 124.435 65.1634 125.26 65.5114C126.085 65.8494 127.055 66.0185 128.169 66.0185C129.272 66.0185 130.252 65.8594 131.107 65.5412C131.972 65.223 132.673 64.7805 133.21 64.2138C133.747 63.647 134.075 62.9957 134.194 62.2599C134.313 61.5739 134.209 60.9972 133.881 60.5298C133.553 60.0625 133.026 59.6648 132.3 59.3366C131.584 58.9986 130.694 58.7003 129.63 58.4418L126.438 57.6065C123.973 56.9801 122.108 56.0007 120.845 54.6683C119.583 53.3359 119.13 51.5412 119.488 49.2841C119.806 47.4347 120.577 45.8189 121.8 44.4368C123.033 43.0447 124.584 41.9659 126.453 41.2003C128.333 40.4247 130.386 40.0369 132.613 40.0369C134.88 40.0369 136.794 40.4297 138.355 41.2152C139.916 41.9908 141.055 43.0746 141.771 44.4666C142.487 45.8587 142.705 47.4794 142.427 49.3288H136.237ZM152.081 57.7557L149.873 71H143.535L148.606 40.4545H154.765L152.856 52.1328H153.11C153.846 50.7805 154.855 49.7216 156.137 48.956C157.42 48.1804 158.936 47.7926 160.686 47.7926C162.277 47.7926 163.605 48.1406 164.669 48.8366C165.743 49.5227 166.503 50.5121 166.951 51.8047C167.398 53.0874 167.473 54.6236 167.174 56.4134L164.728 71H158.39L160.627 57.5469C160.856 56.1349 160.672 55.0362 160.075 54.2507C159.488 53.4652 158.554 53.0724 157.271 53.0724C156.406 53.0724 155.611 53.2564 154.885 53.6243C154.159 53.9922 153.547 54.5291 153.05 55.2351C152.563 55.9311 152.24 56.7713 152.081 57.7557ZM169.699 71L173.517 48.0909H179.871L176.052 71H169.699ZM177.35 45.108C176.405 45.108 175.625 44.7947 175.008 44.1683C174.402 43.532 174.153 42.7763 174.263 41.9013C174.372 41.0064 174.8 40.2507 175.545 39.6342C176.291 39.0078 177.136 38.6946 178.081 38.6946C179.025 38.6946 179.796 39.0078 180.393 39.6342C180.989 40.2507 181.238 41.0064 181.138 41.9013C181.039 42.7763 180.616 43.532 179.871 44.1683C179.135 44.7947 178.295 45.108 177.35 45.108ZM179.755 79.5909L185.035 48.0909H191.299L190.658 51.9389H190.941C191.319 51.3224 191.821 50.696 192.448 50.0597C193.084 49.4134 193.874 48.8764 194.819 48.4489C195.764 48.0114 196.872 47.7926 198.145 47.7926C199.825 47.7926 201.292 48.2301 202.545 49.1051C203.798 49.9702 204.702 51.2777 205.259 53.0277C205.826 54.7678 205.891 56.9503 205.453 59.5753C205.036 62.1307 204.265 64.2884 203.141 66.0483C202.028 67.7983 200.69 69.1257 199.129 70.0305C197.578 70.9254 195.933 71.3729 194.193 71.3729C192.96 71.3729 191.945 71.169 191.15 70.7614C190.364 70.3537 189.753 69.8416 189.315 69.2251C188.878 68.5987 188.57 67.9673 188.391 67.331H188.152L186.124 79.5909H179.755ZM189.345 59.5455C189.126 60.9077 189.117 62.0959 189.315 63.1101C189.524 64.1243 189.942 64.9148 190.568 65.4815C191.195 66.0384 192.02 66.3168 193.044 66.3168C194.078 66.3168 194.998 66.0334 195.803 65.4666C196.609 64.8899 197.28 64.0945 197.817 63.0803C198.354 62.0561 198.737 60.8778 198.965 59.5455C199.174 58.223 199.179 57.0597 198.98 56.0554C198.781 55.0511 198.374 54.2656 197.757 53.6989C197.141 53.1321 196.305 52.8487 195.251 52.8487C194.227 52.8487 193.308 53.1222 192.492 53.669C191.687 54.2159 191.016 54.9915 190.479 55.9957C189.942 57 189.564 58.1832 189.345 59.5455Z" fill="#002042"/>
</svg>
