<svg width="91" height="40" viewBox="0 0 91 40" fill="none" xmlns="http://www.w3.org/2000/svg">
<rect x="0.5" y="0.5" width="89.6509" height="39" rx="5.5" fill="white"/>
<rect x="0.5" y="0.5" width="89.6509" height="39" rx="5.5" stroke="black"/>
<path d="M26.3814 12.6809C26.3643 12.561 26.2616 12.4925 26.176 12.4925C26.0904 12.4925 24.396 12.4583 24.396 12.4583C24.396 12.4583 22.9755 11.0886 22.8386 10.9345C22.7017 10.7975 22.4278 10.8317 22.3251 10.866C22.3251 10.866 22.0513 10.9516 21.6063 11.0886C21.5379 10.8489 21.4181 10.5578 21.264 10.2496C20.7677 9.29079 20.0146 8.77713 19.1247 8.77713C19.0562 8.77713 19.0049 8.77713 18.9364 8.79426C18.9022 8.76001 18.8851 8.72577 18.8508 8.70865C18.4572 8.29773 17.9609 8.09227 17.3618 8.10939C16.2151 8.14363 15.0684 8.98259 14.1271 10.4551C13.4768 11.4995 12.9804 12.8007 12.8264 13.8109C11.5085 14.2218 10.5843 14.5129 10.5501 14.5129C9.88264 14.7184 9.86552 14.7355 9.77995 15.369C9.74572 15.8484 8 29.3574 8 29.3574L22.6503 31.8914L28.9999 30.3163C28.9828 30.3163 26.3985 12.8007 26.3814 12.6809ZM20.8704 11.3283C20.5281 11.431 20.1516 11.5509 19.7408 11.6878C19.7408 11.1057 19.6552 10.2838 19.3985 9.59898C20.2714 9.73595 20.6992 10.729 20.8704 11.3283ZM18.9706 11.9104C18.2005 12.1501 17.3618 12.4069 16.5232 12.6638C16.7628 11.7563 17.2078 10.866 17.7555 10.2667C17.9609 10.0441 18.2518 9.80444 18.577 9.66746C18.9193 10.3352 18.9877 11.2769 18.9706 11.9104ZM17.3961 8.87986C17.6699 8.87986 17.8924 8.93123 18.0807 9.0682C17.7726 9.2223 17.4645 9.462 17.1907 9.77019C16.4547 10.5578 15.89 11.7734 15.6675 12.9548C14.9658 13.1774 14.2812 13.3829 13.665 13.5712C14.0758 11.7049 15.6332 8.93123 17.3961 8.87986Z" fill="#95BF47"/>
<path d="M26.1761 12.4927C26.0905 12.4927 24.3961 12.4584 24.3961 12.4584C24.3961 12.4584 22.9756 11.0887 22.8387 10.9346C22.7873 10.8832 22.7189 10.849 22.6504 10.849V31.8916L29 30.3164C29 30.3164 26.4157 12.8009 26.3985 12.681C26.3643 12.5612 26.2616 12.4927 26.1761 12.4927Z" fill="#5E8E3E"/>
<path d="M19.1248 15.763L18.3889 18.5196C18.3889 18.5196 17.5674 18.1429 16.5918 18.2114C15.1542 18.297 15.1542 19.2045 15.1542 19.4271C15.2397 20.6598 18.4745 20.9338 18.6627 23.8274C18.7996 26.1045 17.4647 27.6626 15.5136 27.7825C13.186 27.9023 11.9023 26.5326 11.9023 26.5326L12.3987 24.4266C12.3987 24.4266 13.6994 25.4026 14.7263 25.3341C15.3938 25.2998 15.6505 24.7348 15.6163 24.3581C15.5136 22.7487 12.8779 22.8514 12.7067 20.1976C12.5698 17.9717 14.0246 15.7288 17.2422 15.5233C18.4916 15.4377 19.1248 15.763 19.1248 15.763Z" fill="white"/>
<path d="M43.61 11.71C43.61 12.71 43.3133 13.5067 42.72 14.1C42.0533 14.8067 41.1767 15.16 40.09 15.16C39.05 15.16 38.17 14.8 37.45 14.08C36.73 13.36 36.37 12.4733 36.37 11.42C36.37 10.3667 36.73 9.48 37.45 8.76C38.17 8.04 39.05 7.68 40.09 7.68C40.6167 7.68 41.1133 7.77333 41.58 7.96C42.0467 8.14667 42.43 8.41 42.73 8.75L42.07 9.41C41.85 9.14333 41.5633 8.93667 41.21 8.79C40.8633 8.63667 40.49 8.56 40.09 8.56C39.31 8.56 38.65 8.83 38.11 9.37C37.5767 9.91667 37.31 10.6 37.31 11.42C37.31 12.24 37.5767 12.9233 38.11 13.47C38.65 14.01 39.31 14.28 40.09 14.28C40.8033 14.28 41.3967 14.08 41.87 13.68C42.3433 13.28 42.6167 12.73 42.69 12.03H40.09V11.17H43.56C43.5933 11.3567 43.61 11.5367 43.61 11.71ZM48.9078 7.84V8.72H45.6478V10.99H48.5878V11.85H45.6478V14.12H48.9078V15H44.7278V7.84H48.9078ZM52.5877 8.72V15H51.6677V8.72H49.6677V7.84H54.5877V8.72H52.5877ZM58.6654 15H57.7454V7.84H58.6654V15ZM62.5487 8.72V15H61.6287V8.72H59.6287V7.84H64.5487V8.72H62.5487ZM74.521 11.42C74.521 12.48 74.1677 13.3667 73.461 14.08C72.7477 14.8 71.8743 15.16 70.841 15.16C69.801 15.16 68.9277 14.8 68.221 14.08C67.5143 13.3667 67.161 12.48 67.161 11.42C67.161 10.36 67.5143 9.47333 68.221 8.76C68.9277 8.04 69.801 7.68 70.841 7.68C71.881 7.68 72.7543 8.04333 73.461 8.77C74.1677 9.48333 74.521 10.3667 74.521 11.42ZM68.101 11.42C68.101 12.2467 68.361 12.93 68.881 13.47C69.4077 14.01 70.061 14.28 70.841 14.28C71.621 14.28 72.271 14.01 72.791 13.47C73.3177 12.9367 73.581 12.2533 73.581 11.42C73.581 10.5867 73.3177 9.90333 72.791 9.37C72.271 8.83 71.621 8.56 70.841 8.56C70.061 8.56 69.4077 8.83 68.881 9.37C68.361 9.91 68.101 10.5933 68.101 11.42ZM76.5267 15H75.6067V7.84H76.7267L80.2067 13.41H80.2467L80.2067 12.03V7.84H81.1267V15H80.1667L76.5267 9.16H76.4867L76.5267 10.54V15Z" fill="black"/>
<path d="M40.0027 26.7304C39.4421 26.4304 39.1553 26.1696 39.1553 25.8174C39.1553 25.3739 39.5594 25.087 40.1853 25.087C40.9154 25.087 41.5673 25.387 41.5673 25.387L42.0758 23.8217C42.0758 23.8217 41.6065 23.4565 40.2244 23.4565C38.2947 23.4565 36.9518 24.5652 36.9518 26.1174C36.9518 27.0043 37.5776 27.6696 38.4121 28.1522C39.0901 28.5304 39.3248 28.8043 39.3248 29.2087C39.3248 29.6261 38.9858 29.9652 38.3599 29.9652C37.4342 29.9652 36.5476 29.4826 36.5476 29.4826L36 31.0478C36 31.0478 36.8084 31.5957 38.1774 31.5957C40.1592 31.5957 41.5934 30.6174 41.5934 28.8565C41.5804 27.9043 40.8633 27.2261 40.0027 26.7304ZM47.9039 23.4304C46.9261 23.4304 46.1568 23.9 45.5701 24.6043L45.544 24.5913L46.3915 20.1565H44.188L42.0367 31.4522H44.2402L44.9703 27.5913C45.2572 26.1304 46.0134 25.2304 46.7175 25.2304C47.2129 25.2304 47.4085 25.5696 47.4085 26.0522C47.4085 26.3522 47.3824 26.7304 47.3172 27.0304L46.4828 31.4522H48.6862L49.5468 26.887C49.638 26.4043 49.7032 25.8304 49.7032 25.4391C49.7163 24.187 49.0643 23.4304 47.9039 23.4304ZM54.7099 23.4304C52.0501 23.4304 50.2899 25.8304 50.2899 28.5043C50.2899 30.213 51.346 31.5957 53.3279 31.5957C55.9355 31.5957 57.6957 29.2609 57.6957 26.5217C57.7087 24.9435 56.783 23.4304 54.7099 23.4304ZM53.6277 29.913C52.8715 29.913 52.5586 29.2739 52.5586 28.4652C52.5586 27.2 53.2105 25.1391 54.41 25.1391C55.1923 25.1391 55.4531 25.8174 55.4531 26.4696C55.4531 27.8261 54.7881 29.913 53.6277 29.913ZM63.3543 23.4304C61.8679 23.4304 61.0204 24.7478 61.0204 24.7478H60.9943L61.1247 23.5609H59.169C59.0777 24.3565 58.8952 25.5826 58.7257 26.4957L57.1872 34.5826H59.3906L60.0034 31.3087H60.0556C60.0556 31.3087 60.5119 31.5957 61.3464 31.5957C63.941 31.5957 65.636 28.9348 65.636 26.2478C65.636 24.7609 64.971 23.4304 63.3543 23.4304ZM61.2421 29.9391C60.6684 29.9391 60.3294 29.613 60.3294 29.613L60.6945 27.5522C60.9552 26.1696 61.6723 25.2565 62.4416 25.2565C63.1196 25.2565 63.3282 25.8826 63.3282 26.4696C63.3282 27.9043 62.4807 29.9391 61.2421 29.9391ZM68.7912 20.2609C68.0872 20.2609 67.5265 20.8217 67.5265 21.5391C67.5265 22.1913 67.9437 22.6478 68.5696 22.6478H68.5957C69.2867 22.6478 69.8734 22.1783 69.8864 21.3696C69.8864 20.7304 69.4562 20.2609 68.7912 20.2609ZM65.7012 31.4391H67.9046L69.404 23.613H67.1875L65.7012 31.4391ZM75.0235 23.6H73.485L73.5632 23.2348C73.6936 22.4783 74.1369 21.813 74.8801 21.813C75.2712 21.813 75.5842 21.9304 75.5842 21.9304L76.0144 20.1957C76.0144 20.1957 75.6363 20 74.8149 20C74.0326 20 73.2503 20.2217 72.6506 20.7304C71.8943 21.3696 71.5423 22.2957 71.3728 23.2348L71.3076 23.6H70.2776L69.9516 25.2696H70.9817L69.8082 31.4522H72.0117L73.1851 25.2696H74.7106L75.0235 23.6ZM80.3431 23.613C80.3431 23.613 78.9611 27.0957 78.3483 29H78.3222C78.2831 28.387 77.7746 23.613 77.7746 23.613H75.4538L76.7837 30.8C76.8098 30.9565 76.7967 31.0609 76.7315 31.1652C76.4708 31.6609 76.0405 32.1435 75.532 32.4957C75.1148 32.7957 74.6454 32.9913 74.2803 33.1217L74.8931 35C75.3364 34.9087 76.2752 34.5304 77.0575 33.8C78.0614 32.8609 79.0002 31.4 79.952 29.4174L82.6509 23.613H80.3431Z" fill="black"/>
</svg>
