<svg width="42" height="42" viewBox="0 0 42 42" fill="none" xmlns="http://www.w3.org/2000/svg">
<g clip-path="url(#clip0_114_25)">
<path d="M21 0C15.3902 0 10.1178 2.184 6.1516 6.1516C2.1854 10.1192 0 15.3916 0 21C0 26.6084 2.184 31.8822 6.1516 35.8484C10.1192 39.8146 15.3916 42 21 42C26.6084 42 31.8822 39.816 35.8484 35.8484C39.8146 31.8808 42 26.6084 42 21C42 15.3916 39.816 10.1178 35.8484 6.1516C31.8808 2.1854 26.6084 0 21 0ZM8.1312 33.8688C6.43597 32.1827 5.09193 30.1772 4.17684 27.9683C3.26175 25.7594 2.79378 23.3909 2.8 21C2.8 16.6096 4.3582 12.4642 7.189 9.17L32.8314 34.811C29.544 37.6497 25.3434 39.208 21 39.2C18.609 39.2065 16.2405 38.7387 14.0315 37.8236C11.8226 36.9085 9.81709 35.5643 8.1312 33.8688ZM34.811 32.8314L9.1686 7.189C12.456 4.35027 16.6566 2.79198 21 2.8C25.8622 2.8 30.4318 4.6928 33.8688 8.1312C37.3058 11.5696 39.2 16.1392 39.2 21C39.2 25.3904 37.6418 29.5372 34.811 32.8314Z" fill="#007BFF"/>
</g>
<defs>
<clipPath id="clip0_114_25">
<rect width="42" height="42" fill="white"/>
</clipPath>
</defs>
</svg>
