<svg width="42" height="42" viewBox="0 0 42 42" fill="none" xmlns="http://www.w3.org/2000/svg">
<path d="M39.7666 11.0299L21.3916 1.84243C21.27 1.7818 21.136 1.75024 21.0002 1.75024C20.8644 1.75024 20.7304 1.7818 20.6089 1.84243L2.23388 11.0299C2.08849 11.1026 1.96621 11.2143 1.88074 11.3525C1.79528 11.4908 1.75001 11.6501 1.75 11.8126V30.1876C1.74996 30.3501 1.79517 30.5094 1.88056 30.6476C1.96594 30.7859 2.08813 30.8976 2.23344 30.9703L20.6084 40.1578C20.73 40.2187 20.8641 40.2504 21 40.2504C21.1359 40.2504 21.27 40.2187 21.3916 40.1578L39.7666 30.9703C39.9119 30.8976 40.0341 30.7859 40.1194 30.6476C40.2048 30.5094 40.25 30.3501 40.25 30.1876V11.8126C40.25 11.6501 40.2048 11.4909 40.1194 11.3526C40.0341 11.2144 39.9119 11.1026 39.7666 11.0299ZM21 3.60337L37.4185 11.8126L33.9063 13.5687L17.4882 5.35949L21 3.60337ZM26.9063 17.0687L10.4878 8.85949L15.5313 6.33774L31.9498 14.547L26.9063 17.0687ZM27.5625 18.6971L32.8125 16.0721V22.5808L31.1334 21.3816C31.0389 21.3143 30.9321 21.2664 30.819 21.2406C30.7059 21.2149 30.5888 21.2118 30.4745 21.2316C30.3603 21.2516 30.2512 21.2941 30.1535 21.3566C30.0558 21.4191 29.9715 21.5003 29.9053 21.5956L27.5625 24.9805V18.6971ZM8.53125 9.83774L24.9493 18.047L21 20.0219L4.5815 11.8126L8.53125 9.83774ZM3.5 13.2284L20.125 21.5409V37.9589L3.5 29.6464V13.2284ZM21.875 37.9594V21.5409L25.8125 19.5721V27.7814C25.8124 27.9679 25.8719 28.1497 25.9823 28.3001C26.0928 28.4504 26.2484 28.5615 26.4265 28.6172C26.6046 28.6728 26.7958 28.6701 26.9722 28.6094C27.1487 28.5487 27.3011 28.4331 27.4072 28.2797L30.8394 23.3224L33.1796 24.9936C33.3103 25.0874 33.4644 25.1432 33.6248 25.155C33.7852 25.1668 33.9458 25.1341 34.0889 25.0604C34.2319 24.9868 34.3518 24.875 34.4354 24.7376C34.5189 24.6001 34.5629 24.4422 34.5625 24.2814V15.1971L38.5 13.2284V29.6464L21.875 37.9594Z" fill="#007BFF"/>
</svg>
