<svg width="42" height="42" viewBox="0 0 42 42" fill="none" xmlns="http://www.w3.org/2000/svg">
<g clip-path="url(#clip0_117_33)">
<path d="M38.6003 10.8143C38.5788 9.68031 38.5582 8.60909 38.5582 7.57277C38.5582 7.18287 38.4033 6.80894 38.1276 6.53324C37.8519 6.25754 37.478 6.10266 37.0881 6.10266C30.8009 6.10266 26.0141 4.2958 22.024 0.416281C21.7496 0.14935 21.3819 0 20.9991 0C20.6163 0 20.2487 0.14935 19.9743 0.416281C15.9846 4.2958 11.1985 6.10266 4.91175 6.10266C4.52185 6.10266 4.14793 6.25754 3.87223 6.53324C3.59653 6.80894 3.44164 7.18287 3.44164 7.57277C3.44164 8.60929 3.42126 9.6809 3.3995 10.815C3.198 21.3677 2.92201 35.82 20.5176 41.919C20.8295 42.0271 21.1686 42.0271 21.4805 41.919C39.0774 35.8198 38.8018 21.3671 38.6003 10.8143ZM20.9992 38.97C5.90868 33.488 6.13684 21.4792 6.33932 10.8711C6.35148 10.2344 6.36324 9.61739 6.37147 9.01249C12.2597 8.76394 16.9684 6.97963 20.9992 3.46823C25.0305 6.97963 29.7399 8.76414 35.6286 9.01249C35.6368 9.6172 35.6486 10.2339 35.6607 10.8701C35.863 21.4786 36.091 33.4878 20.9992 38.97Z" fill="#007BFF"/>
<path d="M26.0617 15.8933L18.9661 22.9885L15.9383 19.9606C15.661 19.6926 15.2895 19.5442 14.9039 19.5475C14.5183 19.5508 14.1494 19.7054 13.8767 19.9781C13.604 20.2508 13.4494 20.6198 13.4462 21.0054C13.4429 21.391 13.5913 21.7625 13.8594 22.0397L17.9267 26.107C18.063 26.2437 18.2251 26.3521 18.4035 26.426C18.5818 26.4998 18.7731 26.5377 18.9661 26.5375C19.1592 26.5377 19.3504 26.4998 19.5288 26.426C19.7072 26.3521 19.8692 26.2437 20.0056 26.107L28.1404 17.9724C28.2769 17.836 28.3853 17.6739 28.4592 17.4956C28.5331 17.3172 28.5712 17.1261 28.5712 16.933C28.5712 16.74 28.5332 16.5488 28.4593 16.3704C28.3854 16.1921 28.2771 16.03 28.1406 15.8935C27.8649 15.6178 27.491 15.4629 27.1012 15.4629C26.7113 15.4629 26.3374 15.6177 26.0617 15.8933Z" fill="#007BFF"/>
</g>
<defs>
<clipPath id="clip0_117_33">
<rect width="42" height="42" fill="white"/>
</clipPath>
</defs>
</svg>
