<svg width="42" height="42" viewBox="0 0 42 42" fill="none" xmlns="http://www.w3.org/2000/svg">
<path fill-rule="evenodd" clip-rule="evenodd" d="M10.0713 20.0934L9.94877 21.1198C9.94528 21.1537 9.93152 21.1858 9.90932 21.2118C9.88712 21.2377 9.85754 21.2563 9.82452 21.265C9.36321 21.413 8.91534 21.6001 8.48577 21.8241C8.45568 21.8395 8.4218 21.846 8.38814 21.8428C8.35449 21.8395 8.32247 21.8267 8.2959 21.8058C8.04302 21.6063 7.7429 21.3674 7.4769 21.1609C7.12503 20.8841 6.68748 20.739 6.23994 20.7506C5.79239 20.7623 5.363 20.93 5.02602 21.2248L5.02252 21.2283C4.67602 21.5345 4.3479 21.8618 4.03815 22.2056L4.02852 22.2161C3.73265 22.5555 3.56497 22.9877 3.55458 23.4378C3.54419 23.8879 3.69175 24.3275 3.97165 24.6801L4.6104 25.4913C4.63184 25.518 4.64473 25.5506 4.64738 25.5848C4.65004 25.619 4.64233 25.6531 4.62527 25.6829C4.40339 26.1134 4.21896 26.5621 4.07402 27.0243C4.06417 27.0566 4.04422 27.0853 4.01826 27.1069C3.9923 27.1285 3.96058 27.1421 3.92702 27.1459C3.58177 27.1852 3.23673 27.2264 2.8919 27.2693C2.4474 27.322 2.03533 27.5285 1.72707 27.853C1.41882 28.1776 1.23378 28.5998 1.20402 29.0464L1.20315 29.0525C1.17561 29.519 1.17444 29.9867 1.19965 30.4534C1.23009 30.9026 1.41704 31.3269 1.72798 31.6526C2.03892 31.9782 2.45418 32.1846 2.90152 32.2358L3.92702 32.3583C3.96099 32.3617 3.99309 32.3755 4.01904 32.3977C4.04499 32.4199 4.06356 32.4495 4.07227 32.4825C4.2203 32.9438 4.40735 33.3917 4.6314 33.8213C4.64682 33.8513 4.65328 33.8852 4.65002 33.9189C4.64677 33.9525 4.63393 33.9846 4.61302 34.0111C4.41352 34.264 4.17465 34.5641 3.96815 34.8301C3.69134 35.182 3.54622 35.6195 3.55789 36.0671C3.56955 36.5146 3.73727 36.944 4.03202 37.281L4.03552 37.2845C4.34177 37.631 4.66902 37.9591 5.0129 38.2689L5.0234 38.2785C5.7234 38.8893 6.7594 38.9129 7.4874 38.3354L8.29852 37.6966C8.32527 37.6752 8.35786 37.6623 8.39204 37.6596C8.42622 37.657 8.46041 37.6647 8.49015 37.6818C8.92063 37.9036 9.36941 38.0881 9.83152 38.233C9.89802 38.2531 9.94527 38.3118 9.95315 38.38C9.9899 38.7003 10.0345 39.0809 10.0765 39.4151C10.1293 39.8608 10.3366 40.2738 10.6624 40.5824C10.9882 40.8909 11.4119 41.0755 11.8598 41.1039C12.3209 41.1319 12.7838 41.1319 13.2458 41.1083L13.2606 41.1074C13.7099 41.0769 14.1342 40.89 14.4599 40.579C14.7855 40.2681 14.9919 39.8528 15.043 39.4055L15.1655 38.38C15.169 38.346 15.1828 38.3139 15.205 38.288C15.2272 38.262 15.2568 38.2435 15.2898 38.2348C15.7511 38.0867 16.199 37.8997 16.6285 37.6756C16.6586 37.6602 16.6925 37.6537 16.7262 37.657C16.7598 37.6603 16.7918 37.6731 16.8184 37.694C17.0713 37.8935 17.3714 38.1324 17.6374 38.3389C17.9893 38.6157 18.4268 38.7608 18.8744 38.7491C19.3219 38.7375 19.7513 38.5698 20.0883 38.275L20.0918 38.2715C20.4383 37.9653 20.7664 37.638 21.0761 37.2941L21.0858 37.2836C21.6965 36.5836 21.7201 35.5476 21.1427 34.8196L20.5039 34.0085C20.4825 33.9818 20.4696 33.9492 20.4669 33.915C20.4643 33.8808 20.472 33.8466 20.489 33.8169C20.7109 33.3864 20.8953 32.9376 21.0403 32.4755H21.0412C21.051 32.4432 21.0701 32.4145 21.096 32.3929C21.122 32.3712 21.1537 32.3577 21.1873 32.3539C21.5325 32.3145 21.8776 32.2734 22.2224 32.2305C22.6669 32.1778 23.079 31.9713 23.3872 31.6467C23.6955 31.3222 23.8805 30.9 23.9103 30.4534L23.9111 30.4473C23.9391 29.9861 23.9392 29.5233 23.9155 29.0613L23.9146 29.0464C23.8842 28.5972 23.6973 28.1728 23.3863 27.8472C23.0754 27.5215 22.6601 27.3152 22.2128 27.264L21.1873 27.1415C21.1533 27.138 21.1212 27.1242 21.0953 27.102C21.0693 27.0799 21.0507 27.0503 21.042 27.0173C20.894 26.5559 20.707 26.1081 20.4829 25.6785C20.4675 25.6484 20.461 25.6145 20.4643 25.5809C20.4675 25.5472 20.4804 25.5152 20.5013 25.4886C20.7008 25.2358 20.9396 24.9356 21.1462 24.6696C21.423 24.3178 21.5681 23.8802 21.5564 23.4327C21.5447 22.9851 21.377 22.5557 21.0823 22.2188L21.0788 22.2153C20.7719 21.8689 20.4456 21.5402 20.1014 21.2309L20.0909 21.2213C19.7515 20.9254 19.3193 20.7577 18.8692 20.7473C18.4191 20.7369 17.9795 20.8845 17.6269 21.1644L16.8158 21.8031C16.789 21.8246 16.7564 21.8375 16.7223 21.8401C16.6881 21.8428 16.6539 21.8351 16.6241 21.818C16.1937 21.5961 15.7449 21.4117 15.2828 21.2668C15.2505 21.2569 15.2217 21.237 15.2001 21.211C15.1785 21.185 15.165 21.1533 15.1611 21.1198C15.1218 20.7745 15.0807 20.4295 15.0378 20.0846C14.9851 19.6401 14.7785 19.2281 14.454 18.9198C14.1294 18.6115 13.7073 18.4265 13.2606 18.3968L13.2545 18.3959C12.793 18.3686 12.3302 18.3671 11.8685 18.3915L11.8536 18.3924C11.4044 18.4228 10.9801 18.6098 10.6544 18.9207C10.3288 19.2317 10.1224 19.646 10.0713 20.0934ZM11.8099 20.2938V20.2929C11.8144 20.2544 11.8315 20.2185 11.8586 20.1908C11.8856 20.1631 11.9212 20.1451 11.9595 20.1398C12.3594 20.1188 12.7514 20.1188 13.1425 20.1424C13.2248 20.1485 13.2913 20.2124 13.3009 20.2938L13.4225 21.3219C13.4656 21.6914 13.6147 22.0405 13.852 22.327C14.0893 22.6135 14.4045 22.8251 14.7595 22.9363C15.1261 23.0518 15.4831 23.1996 15.8261 23.3755C16.4903 23.722 17.3031 23.6468 17.8964 23.1795C18.1519 22.9826 18.452 22.7446 18.7154 22.5355L18.7163 22.5346C18.7465 22.5104 18.7839 22.497 18.8226 22.4965C18.8613 22.496 18.899 22.5085 18.9298 22.532C19.2273 22.7998 19.5046 23.0771 19.7645 23.3711C19.7907 23.4012 19.8055 23.4394 19.8063 23.4793C19.8071 23.5191 19.7939 23.5579 19.7689 23.589L19.1293 24.4019C18.898 24.6934 18.7563 25.0457 18.7214 25.4161C18.6864 25.7866 18.7597 26.1592 18.9324 26.4888C19.11 26.83 19.2579 27.187 19.376 27.5536C19.4872 27.9055 19.6976 28.2177 19.982 28.4529C20.2664 28.688 20.6126 28.8361 20.979 28.8793C21.2984 28.9204 21.679 28.9641 22.0133 29.0026C22.0518 29.0071 22.0886 29.0242 22.1163 29.0513C22.144 29.0784 22.1619 29.1139 22.1673 29.1523C22.1883 29.5521 22.1883 29.9441 22.1646 30.3353C22.1617 30.3751 22.145 30.4127 22.1174 30.4416C22.0897 30.4705 22.053 30.4889 22.0133 30.4936L20.9851 30.6153C20.6156 30.6583 20.2665 30.8075 19.98 31.0448C19.6935 31.282 19.4819 31.5972 19.3708 31.9523C19.2546 32.3195 19.1076 32.6763 18.9315 33.0189C18.7617 33.3463 18.6898 33.7157 18.7246 34.0829C18.7594 34.4501 18.8993 34.7994 19.1275 35.0891C19.3406 35.3639 19.5556 35.6372 19.7724 35.909C19.7966 35.9392 19.81 35.9766 19.8105 36.0153C19.811 36.054 19.7985 36.0917 19.775 36.1225C19.5073 36.42 19.2299 36.6974 18.9359 36.9573C18.9059 36.9834 18.8676 36.9982 18.8278 36.999C18.7879 36.9998 18.7491 36.9866 18.718 36.9616L17.9051 36.322C17.6137 36.0908 17.2613 35.9491 16.8909 35.9141C16.5205 35.8792 16.1479 35.9525 15.8183 36.1251C15.477 36.3028 15.12 36.4506 14.7534 36.5688C14.4016 36.68 14.0893 36.8904 13.8541 37.1747C13.619 37.4591 13.4709 37.8053 13.4278 38.1718C13.3866 38.4911 13.3429 38.8718 13.3044 39.206C13.2999 39.2445 13.2828 39.2813 13.2557 39.309C13.2287 39.3367 13.1931 39.3546 13.1548 39.36C12.7549 39.381 12.3629 39.381 11.9718 39.3574C11.9319 39.3544 11.8943 39.3377 11.8654 39.3101C11.8366 39.2825 11.8182 39.2457 11.8134 39.206L11.6918 38.1779C11.6487 37.8084 11.4996 37.4593 11.2623 37.1728C11.025 36.8863 10.7098 36.6746 10.3548 36.5635C9.98752 36.4473 9.63072 36.3004 9.28815 36.1243C8.96075 35.9544 8.59134 35.8826 8.22415 35.9173C7.85697 35.9521 7.5076 36.092 7.2179 36.3203C6.9624 36.5171 6.66227 36.7551 6.3989 36.9643L6.39802 36.9651C6.36784 36.9893 6.33042 37.0028 6.29172 37.0032C6.25303 37.0037 6.21529 36.9912 6.18452 36.9678C5.89048 36.7042 5.61178 36.424 5.34977 36.1286C5.32359 36.0986 5.30881 36.0603 5.30801 36.0205C5.30721 35.9807 5.32044 35.9418 5.3454 35.9108L5.98502 35.0979C6.45752 34.502 6.53452 33.6839 6.1819 33.011C6.00443 32.6691 5.85603 32.3129 5.73827 31.9461C5.62707 31.5943 5.41666 31.282 5.1323 31.0469C4.84794 30.8117 4.50173 30.6637 4.13527 30.6205C3.8159 30.5794 3.43527 30.5356 3.10102 30.4971C3.06254 30.4927 3.02575 30.4755 2.99803 30.4485C2.97032 30.4214 2.95238 30.3859 2.94702 30.3475C2.92602 29.9476 2.92602 29.5556 2.94965 29.1645C2.95261 29.1247 2.96933 29.0871 2.99694 29.0582C3.02455 29.0293 3.06134 29.0109 3.10102 29.0061L4.12915 28.8845C4.49865 28.8415 4.84777 28.6923 5.13427 28.455C5.42078 28.2177 5.63239 27.9025 5.74352 27.5475C5.85902 27.1809 6.0069 26.8239 6.18277 26.4809C6.35261 26.1535 6.42445 25.7841 6.38969 25.4169C6.35493 25.0497 6.21503 24.7003 5.98677 24.4106C5.77398 24.1362 5.55931 23.8632 5.34277 23.5916L5.3419 23.5908C5.31768 23.5606 5.30426 23.5232 5.30379 23.4845C5.30331 23.4458 5.3158 23.408 5.33927 23.3773C5.60702 23.0798 5.8844 22.8024 6.1784 22.5425C6.20843 22.5163 6.24671 22.5015 6.28654 22.5007C6.32637 22.4999 6.36522 22.5132 6.39627 22.5381L7.20915 23.1778C7.80502 23.6503 8.62315 23.7273 9.29602 23.3746C9.63727 23.197 9.99427 23.0491 10.3609 22.931C10.7127 22.8198 11.025 22.6094 11.2601 22.325C11.4953 22.0407 11.6434 21.6945 11.6865 21.328C11.7276 21.0086 11.7714 20.628 11.8099 20.2938Z" fill="#007BFF"/>
<path fill-rule="evenodd" clip-rule="evenodd" d="M23.9846 25.3321C24.255 25.3601 24.5298 25.375 24.8071 25.375C29.1541 25.375 32.6821 21.8461 32.6821 17.5C32.6821 13.1539 29.1541 9.625 24.8071 9.625C20.461 9.625 16.9321 13.1539 16.9321 17.5C16.9321 17.7765 16.947 18.0495 16.975 18.319C17.003 18.5465 17.119 18.7539 17.2983 18.8967C17.4775 19.0395 17.7057 19.1063 17.9336 19.0827C18.1616 19.0591 18.3712 18.947 18.5174 18.7705C18.6636 18.5939 18.7347 18.3671 18.7154 18.1388C18.6265 17.2853 18.7177 16.4227 18.9833 15.6067C19.2489 14.7908 19.6828 14.0397 20.2571 13.4021C20.8313 12.7645 21.5331 12.2546 22.3169 11.9054C23.1007 11.5562 23.9491 11.3755 24.8071 11.375C28.1881 11.375 30.9321 14.1199 30.9321 17.5C30.9318 18.3584 30.7511 19.2071 30.4018 19.9911C30.0525 20.7752 29.5424 21.4771 28.9044 22.0515C28.2665 22.6258 27.515 23.0597 26.6987 23.325C25.8824 23.5904 25.0195 23.6812 24.1658 23.5918C23.937 23.5716 23.7095 23.6423 23.5324 23.7884C23.3552 23.9345 23.2426 24.1444 23.2189 24.3728C23.1951 24.6012 23.2621 24.8298 23.4053 25.0093C23.5486 25.1887 23.7567 25.3047 23.9846 25.3321Z" fill="#007BFF"/>
<path fill-rule="evenodd" clip-rule="evenodd" d="M12.6271 15.168C12.4463 14.971 12.2295 14.8104 11.9884 14.6946C11.578 14.4943 11.0618 14.2466 10.6278 14.0384C10.5557 14.0039 10.4975 13.9458 10.4631 13.8736C10.4287 13.8015 10.4201 13.7197 10.4388 13.642C10.5737 13.1484 10.7325 12.6616 10.9148 12.1834C10.9444 12.1083 10.9992 12.0459 11.0697 12.0066C11.1402 11.9674 11.2221 11.9538 11.3015 11.9681L12.7881 12.2376C13.2027 12.3133 13.6305 12.2624 14.0157 12.0917C14.401 11.921 14.726 11.6383 14.9485 11.2804C15.218 10.8473 15.5199 10.4325 15.8471 10.0396C16.3993 9.38514 16.4946 8.45414 16.086 7.69551C15.8708 7.29214 15.5986 6.78814 15.3703 6.36551C15.3324 6.2953 15.3196 6.21338 15.3341 6.13493C15.3486 6.05647 15.3894 5.98532 15.4499 5.93326C15.8533 5.61126 16.2663 5.31114 16.6933 5.03289C16.7611 4.98963 16.8419 4.97122 16.9218 4.98079C17.0018 4.99036 17.0759 5.02732 17.1316 5.08539L18.1764 6.17739C18.4674 6.48231 18.8434 6.69262 19.2556 6.78094C19.6677 6.86927 20.0969 6.83153 20.4873 6.67264C20.9598 6.48189 21.4471 6.32351 21.9433 6.19751C22.351 6.09607 22.7188 5.87436 22.9989 5.56119C23.279 5.24802 23.4584 4.85786 23.5139 4.44139C23.5778 3.98901 23.6539 3.42114 23.7178 2.94514C23.7285 2.86604 23.7659 2.79211 23.8238 2.73721C23.8818 2.6823 23.9567 2.64885 24.0363 2.64239C24.5476 2.61803 25.0598 2.61861 25.571 2.64414C25.7373 2.65464 25.8729 2.78064 25.8948 2.94514L26.0978 4.44226C26.154 4.85997 26.3346 5.25108 26.6161 5.56475C26.8977 5.87842 27.2671 6.10011 27.6763 6.20101C28.1715 6.32439 28.6589 6.48276 29.134 6.67264C29.5233 6.83024 29.951 6.86712 30.3616 6.77848C30.7721 6.68985 31.1465 6.47981 31.4361 6.17564C31.7538 5.84664 32.1493 5.43189 32.4809 5.08364H32.4818C32.5368 5.02589 32.6099 4.98868 32.689 4.97817C32.7681 4.96767 32.8484 4.9845 32.9166 5.02589C33.3471 5.31026 33.7601 5.60951 34.1574 5.93064C34.2851 6.03564 34.321 6.21764 34.2423 6.36376L33.5265 7.69464C33.3263 8.0655 33.2425 8.48805 33.2859 8.90726C33.3293 9.32646 33.4979 9.72288 33.7698 10.0449C34.0979 10.436 34.3989 10.8508 34.6719 11.2839C34.8944 11.6402 35.2188 11.9213 35.6032 12.0908C35.9875 12.2602 36.4139 12.3102 36.827 12.2341C37.2768 12.1554 37.8403 12.0521 38.3136 11.9655C38.3922 11.9511 38.4732 11.964 38.5434 12.0021C38.6136 12.0401 38.6687 12.101 38.6995 12.1746C38.8815 12.6576 39.039 13.1433 39.172 13.6359C39.1923 13.7139 39.1848 13.7966 39.1508 13.8697C39.1168 13.9428 39.0584 14.0019 38.9856 14.0366L37.6241 14.692C37.2443 14.8747 36.9283 15.1674 36.717 15.5321C36.5057 15.8967 36.409 16.3165 36.4394 16.7369C36.4753 17.2453 36.4753 17.758 36.442 18.269C36.4125 18.688 36.5096 19.1061 36.7207 19.4692C36.9318 19.8323 37.2472 20.1235 37.6259 20.3051C38.0371 20.5055 38.5534 20.7531 38.9865 20.9614C39.0585 20.996 39.1174 21.0541 39.1518 21.1262C39.1862 21.1984 39.1948 21.28 39.1764 21.3578C39.0416 21.8515 38.8824 22.3383 38.6995 22.8164C38.6702 22.8915 38.6156 22.954 38.5452 22.9933C38.4748 23.0325 38.3929 23.0461 38.3136 23.0316L36.827 22.7621C36.4124 22.6865 35.9847 22.7374 35.5994 22.9081C35.2141 23.0788 34.8891 23.3615 34.6666 23.7194C34.3963 24.1525 34.0953 24.5673 33.768 24.9601C33.4979 25.2819 33.3307 25.6775 33.2881 26.0955C33.2455 26.5134 33.3295 26.9346 33.5291 27.3043C33.7663 27.7486 34.0049 28.1923 34.2449 28.6351C34.2827 28.7054 34.2953 28.7866 34.2806 28.865C34.266 28.9435 34.225 29.0146 34.1644 29.0665C33.7619 29.3885 33.3489 29.6886 32.9219 29.9669C32.8539 30.0102 32.773 30.0287 32.6929 30.0191C32.6128 30.0095 32.5385 29.9725 32.4826 29.9144L31.4379 28.8224C31.1471 28.5174 30.7712 28.3071 30.3592 28.2188C29.9472 28.1304 29.5181 28.1682 29.1279 28.3271C28.6554 28.5179 28.168 28.6763 27.6719 28.8023C27.2641 28.9036 26.8963 29.1253 26.6162 29.4385C26.336 29.7517 26.1566 30.1419 26.1013 30.5584C26.0374 31.0108 25.9613 31.5786 25.8974 32.0546C25.8867 32.1337 25.8493 32.2077 25.7913 32.2626C25.7334 32.3175 25.6584 32.3509 25.5789 32.3574L25.4503 32.3635C25.2224 32.3777 25.0092 32.4803 24.856 32.6495C24.7028 32.8187 24.6217 33.0411 24.6302 33.2692C24.6386 33.4973 24.7359 33.7131 24.9012 33.8705C25.0665 34.0279 25.2868 34.1145 25.515 34.1118L25.6699 34.1056C26.1574 34.0781 26.62 33.8815 26.978 33.5496C27.3361 33.2177 27.5673 32.7714 27.6316 32.2874C27.6955 31.8149 27.7708 31.2505 27.8346 30.7964L27.8355 30.7903C27.8449 30.7213 27.8747 30.6567 27.9212 30.6049C27.9677 30.5531 28.0287 30.5165 28.0963 30.4998L28.1015 30.4989C28.6748 30.3536 29.2375 30.1698 29.7859 29.9485L29.7876 29.9476C29.8527 29.9213 29.9243 29.9151 29.9929 29.9299C30.0616 29.9447 30.1242 29.9799 30.1726 30.0308C30.4911 30.365 30.8866 30.7789 31.22 31.1254C31.5566 31.4767 32.0049 31.7001 32.4881 31.7572C32.9713 31.8144 33.4594 31.7018 33.8686 31.4386L33.873 31.436C34.3531 31.1225 34.8177 30.7858 35.2651 30.4271C35.6433 30.1183 35.902 29.6874 35.9967 29.2084C36.0914 28.7295 36.0162 28.2325 35.784 27.803C35.5574 27.383 35.287 26.8834 35.0718 26.4774L35.0691 26.4721C35.0361 26.4108 35.0223 26.341 35.0295 26.2717C35.0367 26.2024 35.0645 26.1369 35.1094 26.0836L35.1129 26.0801C35.4909 25.6251 35.8391 25.1465 36.1524 24.6451L36.1533 24.6434C36.1903 24.5838 36.2444 24.5367 36.3085 24.5083C36.3727 24.4799 36.4439 24.4715 36.5129 24.4841C36.9679 24.5673 37.5305 24.6696 38.0039 24.7536C38.4837 24.8405 38.9787 24.7574 39.4039 24.5186C39.829 24.2799 40.1576 23.9004 40.3331 23.4455C40.537 22.9135 40.7129 22.3701 40.8643 21.8206L40.8669 21.811C40.9911 21.3388 40.9469 20.838 40.7419 20.3949C40.5368 19.9517 40.1838 19.5939 39.7434 19.3829C39.3138 19.1773 38.801 18.9314 38.3889 18.7293L38.3836 18.7275C38.3209 18.6973 38.2686 18.649 38.2337 18.5888C38.1987 18.5286 38.1827 18.4592 38.1876 18.3898V18.3836C38.2275 17.7939 38.2266 17.2022 38.185 16.6126V16.61C38.18 16.54 38.1962 16.4701 38.2315 16.4094C38.2668 16.3487 38.3195 16.3 38.3828 16.2696C38.7993 16.0693 39.3155 15.8216 39.7469 15.6116C40.1855 15.4003 40.5369 15.043 40.7408 14.6009C40.9446 14.1588 40.9883 13.6595 40.8643 13.1888L40.8625 13.1844C40.7142 12.6339 40.539 12.0911 40.3375 11.5578L40.334 11.5481C40.1569 11.0933 39.8269 10.7143 39.4007 10.4764C38.9745 10.2385 38.4788 10.1564 37.9986 10.2444C37.5296 10.3301 36.9696 10.4325 36.5173 10.5121L36.512 10.513C36.4435 10.5256 36.3728 10.5172 36.3091 10.4889C36.2454 10.4607 36.1917 10.4139 36.155 10.3546L36.1524 10.3503C35.8374 9.84989 35.4887 9.3716 35.1085 8.91876L35.1076 8.91701C35.0622 8.86336 35.034 8.79727 35.0267 8.72735C35.0193 8.65743 35.0332 8.58692 35.0665 8.52501C35.2861 8.11901 35.5583 7.61501 35.784 7.19151C36.0146 6.76269 36.0888 6.26697 35.9938 5.78943C35.8988 5.31188 35.6406 4.88229 35.2634 4.57439L35.2599 4.57176C34.816 4.21348 34.3549 3.87708 33.8783 3.56376L33.8704 3.55851C33.4596 3.29446 32.9697 3.18182 32.4849 3.23995C32 3.29807 31.5506 3.52335 31.2139 3.87701C30.8849 4.22176 30.4929 4.63301 30.1735 4.96376L30.17 4.96726C30.122 5.01788 30.0598 5.05282 29.9915 5.06749C29.9233 5.08217 29.8522 5.0759 29.7876 5.04951L29.7833 5.04776C29.2343 4.82782 28.671 4.64569 28.0971 4.50264L28.0954 4.50176C28.0271 4.485 27.9655 4.44807 27.9185 4.39579C27.8716 4.3435 27.8414 4.27829 27.832 4.20864C27.7708 3.75101 27.6946 3.18401 27.629 2.70801C27.5635 2.22555 27.332 1.78095 26.9744 1.45059C26.6167 1.12023 26.1552 0.924718 25.669 0.897636L25.6646 0.896761C25.0951 0.868324 24.5245 0.867448 23.9549 0.894136H23.9453C23.4578 0.921634 22.9952 1.11826 22.6371 1.45015C22.279 1.78204 22.0479 2.22841 21.9835 2.71239C21.9196 3.18489 21.8444 3.74926 21.7805 4.20339L21.7796 4.20951C21.7703 4.27848 21.7404 4.34305 21.6939 4.39485C21.6474 4.44665 21.5865 4.48329 21.5189 4.50001L21.5136 4.50089C20.9405 4.64614 20.3779 4.82989 19.8293 5.05126L19.8275 5.05214C19.7624 5.07852 19.6909 5.08469 19.6222 5.06987C19.5536 5.05504 19.4909 5.0199 19.4425 4.96901C19.1231 4.63476 18.7285 4.22089 18.3951 3.87439C18.0584 3.52298 17.6099 3.29958 17.1266 3.24244C16.6432 3.18529 16.1551 3.29796 15.7456 3.56114L15.7421 3.56376C15.2644 3.87526 14.8024 4.21039 14.357 4.56651L14.3491 4.57264C13.9711 4.88156 13.7126 5.31257 13.6181 5.79151C13.5235 6.27045 13.5989 6.76737 13.8311 7.19676C14.0578 7.61676 14.3273 8.11639 14.5434 8.52239L14.546 8.52764C14.579 8.58896 14.5928 8.6588 14.5857 8.72808C14.5785 8.79736 14.5507 8.86288 14.5058 8.91614L14.5023 8.91964C14.1243 9.37464 13.776 9.85326 13.4628 10.3546L13.4619 10.3564C13.4248 10.4159 13.3707 10.4629 13.3066 10.4913C13.2424 10.5197 13.1713 10.5282 13.1023 10.5156C12.6473 10.4325 12.0846 10.3301 11.6113 10.2461C11.1323 10.1595 10.6381 10.2422 10.2134 10.48C9.78872 10.7179 9.46005 11.0962 9.28377 11.5499L9.28202 11.5543C9.07839 12.0868 8.90113 12.6291 8.75089 13.1791L8.74827 13.1888C8.62415 13.6609 8.66831 14.1615 8.87317 14.6046C9.07804 15.0477 9.43081 15.4056 9.87089 15.6169C10.3255 15.8332 10.779 16.0516 11.2315 16.2723C11.271 16.2916 11.3066 16.318 11.3365 16.3501C11.4933 16.5213 11.7116 16.6231 11.9435 16.6333C12.1753 16.6435 12.4017 16.5611 12.5729 16.4044C12.744 16.2476 12.8459 16.0293 12.8561 15.7974C12.8663 15.5656 12.7839 15.3392 12.6271 15.168ZM12.5571 25.3749C10.1421 25.3749 8.18214 27.3349 8.18214 29.7499C8.18214 32.1649 10.1421 34.1249 12.5571 34.1249C14.9721 34.1249 16.9321 32.1649 16.9321 29.7499C16.9321 27.3349 14.9721 25.3749 12.5571 25.3749ZM12.5571 27.1249C13.2416 27.1426 13.8921 27.4269 14.3699 27.9172C14.8478 28.4076 15.1152 29.0652 15.1152 29.7499C15.1152 30.4346 14.8478 31.0922 14.3699 31.5825C13.8921 32.0729 13.2416 32.3572 12.5571 32.3749C11.8727 32.3572 11.2222 32.0729 10.7443 31.5825C10.2665 31.0922 9.99905 30.4346 9.99905 29.7499C9.99905 29.0652 10.2665 28.4076 10.7443 27.9172C11.2222 27.4269 11.8727 27.1426 12.5571 27.1249Z" fill="#007BFF"/>
</svg>
