<svg width="42" height="42" viewBox="0 0 42 42" fill="none" xmlns="http://www.w3.org/2000/svg">
<path d="M29.8394 22.6348H24.1324C22.5705 22.6348 21.3004 23.9049 21.3004 25.4668V29.8436C21.3004 31.4055 22.5705 32.6756 24.1324 32.6756H29.8394C31.4013 32.6756 32.6714 31.4055 32.6714 29.8436V25.4668C32.6714 23.9049 31.4013 22.6348 29.8394 22.6348ZM30.6118 29.8436C30.6118 30.2727 30.2599 30.616 29.8394 30.616H24.1324C23.7033 30.616 23.36 30.2641 23.36 29.8436V25.4668C23.36 25.0377 23.7119 24.6944 24.1324 24.6944H29.8394C30.2685 24.6944 30.6118 25.0463 30.6118 25.4668V29.8436Z" fill="#007BFF"/>
<path d="M42 14.6793C42 14.499 41.9571 14.3274 41.8627 14.1729L35.615 3.18805C35.4348 2.87052 35.0915 2.66455 34.7225 2.66455H7.2689C6.89988 2.66455 6.5566 2.86194 6.37638 3.18805L0.137311 14.1729C0.0514916 14.3274 0 14.499 0 14.6793C0 17.1423 1.48467 19.2534 3.60441 20.1889V38.3053C3.60441 38.8717 4.06784 39.3352 4.63425 39.3352H37.3572C37.9236 39.3352 38.387 38.8717 38.387 38.3053V20.3176C38.387 20.2747 38.387 20.2404 38.3784 20.206C40.5067 19.2706 42 17.1509 42 14.6793ZM7.86964 4.7328H34.1218L39.0049 13.3233H2.9951L7.86964 4.7328ZM29.8909 15.3744C29.5648 17.2281 27.9428 18.6355 25.9947 18.6355C24.0466 18.6355 22.4246 17.2281 22.0985 15.3744H29.8909ZM19.9101 15.3744C19.584 17.2281 17.962 18.6355 16.0139 18.6355C14.0658 18.6355 12.4438 17.2281 12.1091 15.3744H19.9101ZM2.12832 15.3744H9.9293C9.60319 17.2281 7.97262 18.6355 6.02452 18.6355C4.07642 18.6441 2.45443 17.2281 2.12832 15.3744ZM17.3012 37.2755H11.3796V26.1619C11.3796 25.3552 12.0319 24.6944 12.8472 24.6944H15.8423C16.649 24.6944 17.3098 25.3466 17.3098 26.1619V37.2755H17.3012ZM36.3273 37.2755H19.3608V26.1619C19.3608 24.2224 17.7818 22.6347 15.8337 22.6347H12.8386C10.8991 22.6347 9.3114 24.2138 9.3114 26.1619V37.2841H5.66408V20.6952C5.78422 20.7038 5.90437 20.7038 6.02452 20.7038C8.10135 20.7038 9.93788 19.6482 11.0192 18.0434C12.1005 19.6482 13.9371 20.7038 16.0139 20.7038C18.0907 20.7038 19.9187 19.6482 21.0086 18.0434C22.0899 19.6482 23.9264 20.7038 25.9947 20.7038C28.0715 20.7038 29.8995 19.6482 30.9808 18.0434C32.0621 19.6482 33.8987 20.7038 35.9755 20.7038C36.0956 20.7038 36.2072 20.6952 36.3273 20.6952V37.2755ZM35.9755 18.6441C34.0274 18.6441 32.4054 17.2367 32.0793 15.383H39.8803C39.5456 17.2281 37.9236 18.6441 35.9755 18.6441Z" fill="#007BFF"/>
</svg>
