<svg width="42" height="42" viewBox="0 0 42 42" fill="none" xmlns="http://www.w3.org/2000/svg">
<g clip-path="url(#clip0_117_47)">
<path d="M27.1698 19.7651C27.8519 19.7651 28.4048 20.318 28.4048 21.0001C28.4048 21.6822 27.8519 22.2351 27.1698 22.2351H25.9351C23.8909 22.2351 22.2299 23.8973 22.2299 25.94C22.2299 27.9865 23.8876 29.645 25.9328 29.645H35.8273C39.2348 29.645 42.0001 32.4136 42.0001 35.8199C42.0001 39.2295 39.2332 41.9949 35.824 41.9949H16.0549C15.3728 41.9949 14.8199 41.442 14.8199 40.7599C14.8199 40.0778 15.3728 39.5249 16.0549 39.5249H35.824C37.8693 39.5249 39.5301 37.8651 39.5301 35.8199C39.5301 33.777 37.87 32.115 35.8272 32.115H25.9327C22.5232 32.115 19.7599 29.3504 19.7599 25.94C19.7599 22.5335 22.5264 19.7651 25.9351 19.7651H27.1698ZM34.105 21.3558C33.8879 21.5254 33.6203 21.6176 33.3448 21.6176C33.0693 21.6176 32.8017 21.5254 32.5846 21.3558C32.4659 21.262 32.3487 21.1662 32.233 21.0686C31.9343 20.8176 31.641 20.5602 31.3534 20.2966C30.4484 19.4688 29.5439 18.5446 28.6969 17.5432C26.2103 14.6036 24.6998 11.6061 24.6998 8.65009C24.6998 3.87565 28.5703 0.00512695 33.3448 0.00512695C38.1193 0.00512695 41.9897 3.87565 41.9897 8.65009C41.9897 11.6061 40.4793 14.6036 37.9927 17.5432C37.1457 18.5446 36.2412 19.4688 35.3362 20.2966C35.0485 20.5602 34.7553 20.8176 34.4566 21.0686C34.341 21.1662 34.2237 21.262 34.105 21.3558ZM33.6691 18.4741C34.5008 17.7132 35.333 16.8629 36.1069 15.9481C38.2515 13.4127 39.5198 10.896 39.5198 8.65018C39.5198 5.23982 36.7552 2.47522 33.3449 2.47522C29.9345 2.47522 27.1699 5.23982 27.1699 8.65018C27.1699 10.896 28.4381 13.4128 30.5828 15.9481C31.3567 16.863 32.1889 17.7133 33.0207 18.4741C33.128 18.5723 33.2361 18.6696 33.3449 18.766C33.4537 18.6695 33.5618 18.5723 33.6691 18.4741ZM33.3448 12.3551C31.2986 12.3551 29.6398 10.6964 29.6398 8.65018C29.6398 6.604 31.2986 4.94524 33.3448 4.94524C35.391 4.94524 37.0497 6.604 37.0497 8.65018C37.0497 10.6964 35.391 12.3551 33.3448 12.3551ZM33.3448 9.8851C34.0269 9.8851 34.5798 9.33218 34.5798 8.65009C34.5798 7.96801 34.0269 7.41509 33.3448 7.41509C32.6627 7.41509 32.1098 7.96801 32.1098 8.65009C32.1098 9.33218 32.6627 9.8851 33.3448 9.8851ZM9.40513 41.7333C9.18802 41.9029 8.92043 41.995 8.64493 41.995C8.36943 41.995 8.10184 41.9029 7.88472 41.7333C7.766 41.6394 7.64876 41.5436 7.53306 41.4461C7.23438 41.195 6.94112 40.9376 6.65349 40.674C5.7485 39.8462 4.84399 38.922 3.99698 37.9206C1.51048 34.981 0 31.9835 0 29.0275C0 24.2531 3.87044 20.3825 8.64497 20.3825C13.4195 20.3825 17.2899 24.253 17.2899 29.0275C17.2899 31.9835 15.7795 34.981 13.2929 37.9206C12.4459 38.922 11.5414 39.8462 10.6364 40.674C10.3487 40.9376 10.0555 41.195 9.75679 41.4461C9.64111 41.5437 9.52387 41.6394 9.40513 41.7333ZM8.96916 38.8516C9.80092 38.0906 10.6331 37.2404 11.407 36.3255C13.5516 33.7901 14.8199 31.2734 14.8199 29.0276C14.8199 25.6172 12.0553 22.8526 8.64497 22.8526C5.23461 22.8526 2.47001 25.6172 2.47001 29.0276C2.47001 31.2734 3.73824 33.7902 5.88291 36.3255C6.65685 37.2404 7.48902 38.0907 8.32078 38.8516C8.42809 38.9497 8.53618 39.047 8.64505 39.1434C8.75384 39.047 8.86188 38.9497 8.96916 38.8516ZM8.64497 32.7324C6.59879 32.7324 4.94003 31.0737 4.94003 29.0275C4.94003 26.9813 6.59879 25.3226 8.64497 25.3226C10.6911 25.3226 12.3499 26.9813 12.3499 29.0275C12.3499 31.0737 10.6911 32.7324 8.64497 32.7324ZM8.64497 30.2625C9.32705 30.2625 9.87998 29.7096 9.87998 29.0275C9.87998 28.3454 9.32705 27.7925 8.64497 27.7925C7.96288 27.7925 7.40996 28.3454 7.40996 29.0275C7.40996 29.7096 7.96288 30.2625 8.64497 30.2625Z" fill="#007BFF"/>
</g>
<defs>
<clipPath id="clip0_117_47">
<rect width="42" height="42" fill="white"/>
</clipPath>
</defs>
</svg>
